<?xml version="1.0" encoding="utf-8"?>
<!-- Generator: Adobe Illustrator 20.1.0, SVG Export Plug-In . SVG Version: 6.00 Build 0)  -->
<svg version="1.1" id="Layer_1" xmlns="http://www.w3.org/2000/svg" xmlns:xlink="http://www.w3.org/1999/xlink" x="0px" y="0px"
	 viewBox="0 0 1600 636.6" style="enable-background:new 0 0 1600 636.6;" xml:space="preserve">
<style type="text/css">
	.st0{opacity:0.12;fill:#007BFF;enable-background:new    ;}
	.st1{fill:none;stroke:#007BFF;stroke-width:3;stroke-linecap:round;stroke-linejoin:round;stroke-miterlimit:10;}
	.st2{fill:#007BFF;}
	.st3{fill:#082E51;}
	.st4{fill:none;stroke:#082E51;stroke-width:2;stroke-miterlimit:10;}
	.st5{fill:#FFFFFF;}
</style>
<path class="st0" d="M1566.5,612.7H421.5c-6.9,0-12.6-5.7-12.6-12.6V36c0-6.9,5.7-12.6,12.6-12.6h1144.9c6.9,0,12.6,5.7,12.6,12.6
	v564.1C1579.1,607,1573.4,612.7,1566.5,612.7z"/>
<path pointer-events="none" class="st1" d="M1222.4,211l-159.5,109.6"/>
<path pointer-events="none" class="st2" d="M1224.7,225.7l-2.3-14.8l-13.2-7l29.6-4.5L1224.7,225.7z"/>
<path pointer-events="none" class="st1" d="M1062.9,320.7l165,153.7"/>
<path pointer-events="none" class="st2" d="M1242.1,488.5l-28.5-9.2l14.1-4.8l4.7-14.2L1242.1,488.5z"/>
<path pointer-events="none" class="st1" d="M1066.2,320.7l157.3,64.5"/>
<path pointer-events="none" class="st2" d="M1242.1,392.6l-29.8,2.5l11.2-9.9l-1.2-14.9L1242.1,392.6z"/>
<path pointer-events="none" class="st1" d="M1222.2,297.7l-159.3,23"/>
<path pointer-events="none" class="st2" d="M1217.3,311.8l4.9-14.2l-8.4-12.4l28.3,9.9L1217.3,311.8z"/>
<g>
	<path pointer-events="none" class="st1" d="M388.8,322.4l-66,0.1"/>
	<path pointer-events="none" class="st2" d="M382.4,335.8l6.5-13.5l-6.9-13.2l27,13.1L382.4,335.8z"/>
</g>
<path class="st3" d="M315.2,390.1H32.1c-4.2,0-7.6-3.4-7.6-7.6V253.6c0-4.2,3.4-7.6,7.6-7.6h283.2c4.2,0,7.6,3.4,7.6,7.6v128.9
	C322.8,386.7,319.4,390.1,315.2,390.1z"/>
<path class="st4" d="M1543.5,555.1h-320c-4.7,0-8.5-3.8-8.5-8.5V130.2c0-4.7,3.8-8.5,8.5-8.5h320c4.7,0,8.5,3.8,8.5,8.5v416.4
	C1552.1,551.3,1548.2,555.1,1543.5,555.1z"/>
<path class="st2" d="M625.9,357.3H469.5c-3.4,0-6.1-2.8-6.1-6.1v-65.7c0-3.4,2.8-6.1,6.1-6.1h156.4c3.4,0,6.1,2.8,6.1,6.1v65.7
	C632,354.5,629.2,357.3,625.9,357.3z"/>
<path class="st2" d="M820.5,357H664.1c-3.4,0-6.1-2.8-6.1-6.1v-65.7c0-3.4,2.8-6.1,6.1-6.1h156.4c3.4,0,6.1,2.8,6.1,6.1v65.7
	C826.7,354.3,823.9,357,820.5,357z"/>
<path class="st2" d="M1015.2,357H858.8c-3.4,0-6.1-2.8-6.1-6.1v-65.7c0-3.4,2.8-6.1,6.1-6.1h156.4c3.4,0,6.1,2.8,6.1,6.1v65.7
	C1021.3,354.3,1018.6,357,1015.2,357z"/>
<path class="st2" d="M1519,231.3h-263.6c-4.3,0-7.9-3.6-7.9-7.9v-62.2c0-4.3,3.6-7.9,7.9-7.9H1519c4.3,0,7.9,3.6,7.9,7.9v62.2
	C1526.9,227.7,1523.3,231.3,1519,231.3z"/>
<path class="st2" d="M1519,327.1h-263.6c-4.3,0-7.9-3.6-7.9-7.9V257c0-4.3,3.6-7.9,7.9-7.9H1519c4.3,0,7.9,3.6,7.9,7.9v62.2
	C1526.9,323.6,1523.3,327.1,1519,327.1z"/>
<path class="st2" d="M1519,423h-263.6c-4.3,0-7.9-3.6-7.9-7.9v-62.2c0-4.3,3.6-7.9,7.9-7.9H1519c4.3,0,7.9,3.6,7.9,7.9v62.2
	C1526.9,419.4,1523.3,423,1519,423z"/>
<path class="st2" d="M1519,526.5h-263.6c-4.3,0-7.9-3.6-7.9-7.9v-62.2c0-4.3,3.6-7.9,7.9-7.9H1519c4.3,0,7.9,3.6,7.9,7.9v62.2
	C1526.9,522.9,1523.3,526.5,1519,526.5z"/>
<g>
	<path class="st5" d="M72.2,306.2h-7.7v20.9h-3v-20.9h-7.8v-2.6h18.5V306.2z"/>
	<path class="st5" d="M83,325.4h-0.7c-1,1.3-2.8,2.2-5.2,2.2c-3.8,0-6-2.6-6-5.4c0-2.7,1.8-5.5,6.4-5.5h5.4V316c0-2-1.2-3.5-4.1-3.5
		c-2.5,0-3.7,1-3.9,2.4h-2.8c0.2-3.1,2.9-4.9,6.6-4.9c4.2,0,6.9,2,6.9,5.7v11.3H83V325.4z M82.9,320.4v-1.5h-5c-2.7,0-4,1.2-4,3.2
		c0,1.9,1.4,3.1,3.9,3.1C80.6,325.1,82.9,323,82.9,320.4z"/>
	<path class="st5" d="M97,317l1.9,0.3c2.9,0.5,4.8,2,4.8,5c0,2.7-2.3,5.2-6.8,5.2c-4.7,0-7-2.1-7.4-5.2h2.8c0.3,1.9,1.9,2.8,4.4,2.8
		c2.5,0,4.2-0.9,4.2-2.7c0-1.5-0.9-2.2-3-2.6l-3.7-0.6c-2.4-0.4-4-1.7-4-4.2c0-2.8,2.1-4.9,6.6-4.9c3.9,0,6.2,1.8,6.6,4.8h-2.8
		c-0.2-1.6-1.8-2.3-3.9-2.3c-2.1,0-3.6,0.8-3.6,2.2c0,1.3,0.8,1.8,2.5,2L97,317z"/>
	<path class="st5" d="M119.9,327.1l-4.8-9h-0.7l-3.8,4.2v4.8h-2.8v-24h2.8v15.7l7.9-8.4h3.3l-4.8,5.1l5.9,11.5H119.9z"/>
	<path class="st5" d="M146.6,313.9c3.5,0.8,5.9,2.6,5.9,6.6c0,3.7-2.9,7-8.9,7c-5.5,0-9.1-2.9-9.5-7h3c0.5,3.2,3.4,4.3,6.6,4.3
		c3.3,0,5.8-1.5,5.8-4.2c0-2.5-1.7-3.5-4-4c-1.2-0.3-3.5-0.7-4.7-1c-3.4-0.7-5.7-2.5-5.7-6c0-3.7,3-6.5,8.3-6.5c4.9,0,8,2.6,8.5,6.4
		h-3c-0.6-2.4-2.2-3.7-5.6-3.7c-2.8,0-5.2,1.3-5.2,3.8c0,2.3,2,3,4,3.4C143.1,313.2,145.3,313.7,146.6,313.9z"/>
	<path class="st5" d="M159.7,310.5v10c0,3.1,1.4,4.6,4.2,4.6c2.9,0,5-2.5,5-5.5v-9h2.8v16.6h-2.7v-1.8h-0.7c-0.9,1.3-2.8,2.2-5,2.2
		c-4.1,0-6.3-2.5-6.3-6.5v-10.6H159.7z"/>
	<path class="st5" d="M193,318.8c0,4.9-2.7,8.7-7.3,8.7c-2.6,0-4.3-1.1-5.2-2.2h-0.7v1.8H177v-24h2.8v9.1h0.7
		c0.9-1.2,2.4-2.2,5.1-2.2C190.2,310.1,193,313.8,193,318.8z M190.1,318.8c0-3.7-1.8-6.3-5.1-6.3c-3.7,0-5.2,3-5.2,6.3
		s1.5,6.3,5.2,6.3C188.4,325.1,190.1,322.5,190.1,318.8z"/>
	<path class="st5" d="M220.3,316.4v10.8h-2.8v-10.5c0-2.7-1.1-4.1-3.2-4.1c-2.6,0-4.1,2-4.1,4.8v9.7h-2.8v-10.4
		c0-2.7-1.1-4.2-3.2-4.2c-2.8,0-4.1,2.3-4.1,5.3v9.2h-2.8v-16.6h2.7v1.6h0.7c0.8-1.3,2.1-2,4.2-2c2,0,3.5,0.7,4.4,2.2h0.7
		c1-1.5,2.6-2.2,4.7-2.2C218.6,310.1,220.3,312.5,220.3,316.4z"/>
	<path class="st5" d="M225.4,306.2v-3h3v3H225.4z M228.3,327.1h-2.8v-16.6h2.8V327.1z"/>
	<path class="st5" d="M241.9,310.5v2.4h-4.2v9.1c0,1.7,0.7,2.5,3,2.5h1.2v2.5h-1.3c-3.6,0-5.7-1.1-5.7-4.7v-9.5H232v-2.4h2.9v-5h2.8
		v5H241.9z"/>
	<path class="st5" d="M254.5,310.5v2.4h-4.2v9.1c0,1.7,0.7,2.5,3,2.5h1.2v2.5h-1.3c-3.6,0-5.7-1.1-5.7-4.7v-9.5h-2.9v-2.4h2.9v-5
		h2.8v5H254.5z"/>
	<path class="st5" d="M273.3,318.8h-12.7c0.1,4,1.9,6.3,5.3,6.3c2.3,0,3.7-1,4.2-2.6h2.8c-0.5,2.8-2.9,5-7.1,5
		c-5.2,0-8.1-3.8-8.1-8.9c0-5.1,3-8.6,8-8.6c5,0,7.3,3.7,7.4,7.8V318.8z M260.8,316.4h9.6c-0.2-2.1-1.8-3.9-4.6-3.9
		C262.8,312.5,261.2,314.3,260.8,316.4z"/>
	<path class="st5" d="M287.2,313.1h-1.4c-3.3,0-5.3,2-5.3,5.7v8.3h-2.8v-16.6h2.7v2h0.7c0.8-1,2.4-2,4.8-2h1.3V313.1z"/>
</g>
<g>
	<path class="st5" d="M516.9,306.2h-7.7v20.9h-3v-20.9h-7.8v-2.6h18.5V306.2z"/>
	<path class="st5" d="M527.7,325.4H527c-1,1.3-2.8,2.2-5.2,2.2c-3.8,0-6-2.6-6-5.4c0-2.7,1.8-5.5,6.4-5.5h5.4V316
		c0-2-1.2-3.5-4.1-3.5c-2.5,0-3.7,1-3.9,2.4h-2.8c0.2-3.1,2.9-4.9,6.6-4.9c4.2,0,6.9,2,6.9,5.7v11.3h-2.6V325.4z M527.6,320.4v-1.5
		h-5c-2.7,0-4,1.2-4,3.2c0,1.9,1.4,3.1,3.9,3.1C525.3,325.1,527.6,323,527.6,320.4z"/>
	<path class="st5" d="M541.7,317l1.9,0.3c2.9,0.5,4.8,2,4.8,5c0,2.7-2.3,5.2-6.8,5.2c-4.7,0-7-2.1-7.4-5.2h2.8
		c0.3,1.9,1.9,2.8,4.4,2.8c2.5,0,4.2-0.9,4.2-2.7c0-1.5-0.9-2.2-3-2.6l-3.7-0.6c-2.4-0.4-4-1.7-4-4.2c0-2.8,2.1-4.9,6.6-4.9
		c3.9,0,6.2,1.8,6.6,4.8h-2.8c-0.2-1.6-1.8-2.3-3.9-2.3c-2.1,0-3.6,0.8-3.6,2.2c0,1.3,0.8,1.8,2.5,2L541.7,317z"/>
	<path class="st5" d="M564.6,327.1l-4.8-9h-0.7l-3.8,4.2v4.8h-2.8v-24h2.8v15.7l7.9-8.4h3.3l-4.8,5.1l5.9,11.5H564.6z"/>
	<path class="st5" d="M568.1,319.2v-2.5h9v2.5H568.1z"/>
	<path class="st5" d="M594.8,304v3.2l-5.8,5v0.7c4,0.1,6.9,2.6,6.9,7c0,4.8-3.4,7.6-8.2,7.6c-4.7,0-7.8-3-8.1-6.9h2.9
		c0.3,2.6,2.4,4.3,5.2,4.3c3.2,0,5.2-1.9,5.2-5c0-3-1.8-4.9-5.2-4.9c-0.8,0-1.5,0.1-2,0.2v-3.1l5.6-4.9v-0.7h-10.1V304H594.8z"/>
</g>
<g>
	<path class="st5" d="M711.4,306.2h-7.7v20.9h-3v-20.9h-7.8v-2.6h18.5V306.2z"/>
	<path class="st5" d="M722.2,325.4h-0.7c-1,1.3-2.8,2.2-5.2,2.2c-3.8,0-6-2.6-6-5.4c0-2.7,1.8-5.5,6.4-5.5h5.4V316
		c0-2-1.2-3.5-4.1-3.5c-2.5,0-3.7,1-3.9,2.4h-2.8c0.2-3.1,2.9-4.9,6.6-4.9c4.2,0,6.9,2,6.9,5.7v11.3h-2.6V325.4z M722.1,320.4v-1.5
		h-5c-2.7,0-4,1.2-4,3.2c0,1.9,1.4,3.1,3.9,3.1C719.8,325.1,722.1,323,722.1,320.4z"/>
	<path class="st5" d="M736.2,317l1.9,0.3c2.9,0.5,4.8,2,4.8,5c0,2.7-2.3,5.2-6.8,5.2c-4.7,0-7-2.1-7.4-5.2h2.8
		c0.3,1.9,1.9,2.8,4.4,2.8c2.5,0,4.2-0.9,4.2-2.7c0-1.5-0.9-2.2-3-2.6l-3.7-0.6c-2.4-0.4-4-1.7-4-4.2c0-2.8,2.1-4.9,6.6-4.9
		c3.9,0,6.2,1.8,6.6,4.8h-2.8c-0.2-1.6-1.8-2.3-3.9-2.3c-2.1,0-3.6,0.8-3.6,2.2c0,1.3,0.8,1.8,2.5,2L736.2,317z"/>
	<path class="st5" d="M759.1,327.1l-4.8-9h-0.7l-3.8,4.2v4.8h-2.8v-24h2.8v15.7l7.9-8.4h3.3l-4.8,5.1l5.9,11.5H759.1z"/>
	<path class="st5" d="M762.5,319.2v-2.5h9v2.5H762.5z"/>
	<path class="st5" d="M774.9,310.4c0.3-4.6,3.6-6.8,7.7-6.8c4.3,0,7.5,2.4,7.5,7c0,3.1-2.4,6.1-5.1,8.3l-5.8,4.9v0.7h11.7v2.6h-15.9
		v-3.3l3.4-2.8c1.8-1.5,4-3.3,5.2-4.5c1.6-1.4,3.6-3.3,3.6-6c0-2.9-1.8-4.5-4.7-4.5c-2.6,0-4.4,1.4-4.7,4.3H774.9z"/>
</g>
<g>
	<path class="st5" d="M907.3,306.2h-7.7v20.9h-3v-20.9h-7.8v-2.6h18.5V306.2z"/>
	<path class="st5" d="M918.2,325.4h-0.7c-1,1.3-2.8,2.2-5.2,2.2c-3.8,0-6-2.6-6-5.4c0-2.7,1.8-5.5,6.4-5.5h5.4V316
		c0-2-1.2-3.5-4.1-3.5c-2.5,0-3.7,1-3.9,2.4h-2.8c0.2-3.1,2.9-4.9,6.6-4.9c4.2,0,6.9,2,6.9,5.7v11.3h-2.6V325.4z M918.1,320.4v-1.5
		h-5c-2.7,0-4,1.2-4,3.2c0,1.9,1.4,3.1,3.9,3.1C915.7,325.1,918.1,323,918.1,320.4z"/>
	<path class="st5" d="M932.1,317l1.9,0.3c2.9,0.5,4.8,2,4.8,5c0,2.7-2.3,5.2-6.8,5.2c-4.7,0-7-2.1-7.4-5.2h2.8
		c0.3,1.9,1.9,2.8,4.4,2.8c2.5,0,4.2-0.9,4.2-2.7c0-1.5-0.9-2.2-3-2.6l-3.7-0.6c-2.4-0.4-4-1.7-4-4.2c0-2.8,2.1-4.9,6.6-4.9
		c3.9,0,6.2,1.8,6.6,4.8h-2.8c-0.2-1.6-1.8-2.3-3.9-2.3c-2.1,0-3.6,0.8-3.6,2.2c0,1.3,0.8,1.8,2.5,2L932.1,317z"/>
	<path class="st5" d="M955,327.1l-4.8-9h-0.7l-3.8,4.2v4.8h-2.8v-24h2.8v15.7l7.9-8.4h3.3l-4.8,5.1l5.9,11.5H955z"/>
	<path class="st5" d="M958.5,319.2v-2.5h9v2.5H958.5z"/>
	<path class="st5" d="M971,324.6h5.5v-17.5h-0.7l-4.9,3.3v-3l4.8-3.3h3.6v20.5h5v2.6H971V324.6z"/>
</g>
<g>
	<path class="st3" d="M695.5,192.2h-7.7v20.9h-3v-20.9H677v-2.6h18.5V192.2z"/>
	<path class="st3" d="M706.3,211.4h-0.7c-1,1.3-2.8,2.2-5.2,2.2c-3.8,0-6-2.6-6-5.4c0-2.7,1.7-5.5,6.4-5.5h5.4V202
		c0-2-1.2-3.5-4.1-3.5c-2.5,0-3.7,1-3.9,2.4h-2.8c0.2-3.1,2.9-4.9,6.6-4.9c4.2,0,6.9,2,6.9,5.7v11.3h-2.6V211.4z M706.2,206.4v-1.5
		h-5c-2.7,0-4,1.2-4,3.2c0,1.9,1.4,3.1,3.9,3.1C703.9,211.1,706.2,209,706.2,206.4z"/>
	<path class="st3" d="M720.3,203l1.9,0.3c2.9,0.5,4.8,2,4.8,5c0,2.7-2.3,5.2-6.8,5.2c-4.7,0-7-2.1-7.4-5.2h2.8
		c0.3,1.9,1.9,2.8,4.4,2.8c2.5,0,4.2-0.9,4.2-2.7c0-1.5-0.9-2.2-3-2.6l-3.7-0.6c-2.4-0.4-4-1.7-4-4.2c0-2.8,2.1-4.9,6.6-4.9
		c3.9,0,6.2,1.8,6.6,4.8h-2.8c-0.2-1.6-1.8-2.3-3.9-2.3c-2.1,0-3.6,0.8-3.6,2.2c0,1.3,0.8,1.8,2.5,2L720.3,203z"/>
	<path class="st3" d="M743.2,213.1l-4.8-9h-0.7l-3.8,4.2v4.8h-2.8v-24h2.8v15.7l7.9-8.4h3.3l-4.8,5.1l5.9,11.5H743.2z"/>
	<path class="st3" d="M779.6,201.3c0,3.6-1,6.7-3,8.9l3.2,5.1h-3l-2.1-3.4c-1.7,1.1-3.7,1.6-6,1.6c-7.2,0-11-5.4-11-12.2
		c0-6.8,3.8-12.2,11-12.2C775.8,189.1,779.6,194.6,779.6,201.3z M773.2,209.5l-4.2-6.8h2.9l3.1,4.9c1.2-1.7,1.7-3.9,1.7-6.3
		c0-4.9-2.4-9.5-8-9.5c-5.6,0-8,4.6-8,9.5c0,4.9,2.4,9.5,8,9.5C770.5,210.8,772,210.4,773.2,209.5z"/>
	<path class="st3" d="M786.7,196.5v10c0,3.1,1.4,4.6,4.2,4.6c2.9,0,5-2.5,5-5.5v-9h2.8v16.6h-2.7v-1.8h-0.7c-0.9,1.3-2.8,2.2-5,2.2
		c-4.1,0-6.3-2.5-6.3-6.5v-10.6H786.7z"/>
	<path class="st3" d="M818.5,204.8h-12.7c0.1,4,1.9,6.3,5.3,6.3c2.3,0,3.7-1,4.2-2.6h2.8c-0.5,2.8-2.9,5-7.1,5
		c-5.2,0-8.1-3.8-8.1-8.9c0-5.1,3-8.6,8-8.6c5,0,7.3,3.7,7.4,7.8V204.8z M806,202.4h9.6c-0.2-2.1-1.8-3.9-4.6-3.9
		C808,198.5,806.3,200.3,806,202.4z"/>
	<path class="st3" d="M825.4,196.5v10c0,3.1,1.4,4.6,4.2,4.6c2.9,0,5-2.5,5-5.5v-9h2.8v16.6h-2.7v-1.8h-0.7c-0.9,1.3-2.8,2.2-5,2.2
		c-4.1,0-6.3-2.5-6.3-6.5v-10.6H825.4z"/>
	<path class="st3" d="M857.2,204.8h-12.7c0.1,4,1.9,6.3,5.3,6.3c2.3,0,3.7-1,4.2-2.6h2.8c-0.5,2.8-2.9,5-7.1,5
		c-5.2,0-8.1-3.8-8.1-8.9c0-5.1,3-8.6,8-8.6c5,0,7.3,3.7,7.4,7.8V204.8z M844.7,202.4h9.6c-0.2-2.1-1.8-3.9-4.6-3.9
		C846.7,198.5,845,200.3,844.7,202.4z"/>
</g>
<g>
	<path class="st5" d="M1337,178.2h-7.7v20.9h-3v-20.9h-7.8v-2.6h18.5V178.2z"/>
	<path class="st5" d="M1352.3,199.1v-10c0-3-1.4-4.6-4.2-4.6c-3,0-5,2.6-5,5.5v9h-2.8v-24h2.8v9.1h0.7c0.9-1.3,2.7-2.2,5-2.2
		c4.1,0,6.3,2.5,6.3,6.5v10.6H1352.3z"/>
	<path class="st5" d="M1369.8,185.1h-1.4c-3.3,0-5.3,2-5.3,5.7v8.3h-2.8v-16.6h2.7v2h0.7c0.8-1,2.4-2,4.8-2h1.3V185.1z"/>
	<path class="st5" d="M1387.8,190.8h-12.7c0.1,4,1.9,6.3,5.3,6.3c2.3,0,3.7-1,4.2-2.6h2.8c-0.5,2.8-2.9,5-7.1,5
		c-5.2,0-8.1-3.8-8.1-8.9c0-5.1,3-8.6,8-8.6c5,0,7.3,3.7,7.4,7.8V190.8z M1375.3,188.4h9.6c-0.2-2.1-1.8-3.9-4.6-3.9
		C1377.3,184.5,1375.7,186.3,1375.3,188.4z"/>
	<path class="st5" d="M1402.8,197.4h-0.7c-1,1.3-2.8,2.2-5.2,2.2c-3.8,0-6-2.6-6-5.4c0-2.7,1.8-5.5,6.4-5.5h5.4V188
		c0-2-1.2-3.5-4.1-3.5c-2.5,0-3.7,1-3.9,2.4h-2.8c0.2-3.1,2.9-4.9,6.6-4.9c4.2,0,6.9,2,6.9,5.7v11.3h-2.6V197.4z M1402.7,192.4v-1.5
		h-5c-2.7,0-4,1.2-4,3.2c0,1.9,1.4,3.1,3.9,3.1C1400.3,197.1,1402.7,195,1402.7,192.4z"/>
	<path class="st5" d="M1425.5,175.1v24h-2.7v-1.8h-0.7c-0.9,1.2-2.5,2.2-5.2,2.2c-4.6,0-7.3-3.8-7.3-8.7c0-5,2.7-8.7,7.3-8.7
		c2.6,0,4.2,1,5.1,2.2h0.7v-9.1H1425.5z M1422.7,190.8c0-3.3-1.5-6.3-5.2-6.3c-3.3,0-5.1,2.6-5.1,6.3s1.8,6.3,5.1,6.3
		C1421.2,197.1,1422.7,194.1,1422.7,190.8z"/>
	<path class="st5" d="M1429.8,191.2v-2.5h9v2.5H1429.8z"/>
	<path class="st5" d="M1442.4,196.6h5.5v-17.5h-0.7l-4.9,3.3v-3l4.8-3.3h3.6v20.5h5v2.6h-13.4V196.6z"/>
</g>
<g>
	<path class="st5" d="M1335.9,280.2h-7.7v20.9h-3v-20.9h-7.8v-2.6h18.5V280.2z"/>
	<path class="st5" d="M1351.2,301.1v-10c0-3-1.4-4.6-4.2-4.6c-3,0-5,2.6-5,5.5v9h-2.8v-24h2.8v9.1h0.7c0.9-1.3,2.7-2.2,5-2.2
		c4.1,0,6.3,2.5,6.3,6.5v10.6H1351.2z"/>
	<path class="st5" d="M1368.6,287.1h-1.4c-3.3,0-5.3,2-5.3,5.7v8.3h-2.8v-16.6h2.7v2h0.7c0.8-1,2.4-2,4.8-2h1.3V287.1z"/>
	<path class="st5" d="M1386.7,292.8H1374c0.1,4,1.9,6.3,5.3,6.3c2.3,0,3.7-1,4.2-2.6h2.8c-0.5,2.8-2.9,5-7.1,5
		c-5.2,0-8.1-3.8-8.1-8.9c0-5.1,3-8.6,8-8.6c5,0,7.3,3.7,7.4,7.8V292.8z M1374.2,290.4h9.6c-0.2-2.1-1.8-3.9-4.6-3.9
		C1376.2,286.5,1374.6,288.3,1374.2,290.4z"/>
	<path class="st5" d="M1401.7,299.4h-0.7c-1,1.3-2.8,2.2-5.2,2.2c-3.8,0-6-2.6-6-5.4c0-2.7,1.8-5.5,6.4-5.5h5.4V290
		c0-2-1.2-3.5-4.1-3.5c-2.5,0-3.7,1-3.9,2.4h-2.8c0.2-3.1,2.9-4.9,6.6-4.9c4.2,0,6.9,2,6.9,5.7v11.3h-2.6V299.4z M1401.6,294.4v-1.5
		h-5c-2.7,0-4,1.2-4,3.2c0,1.9,1.4,3.1,3.9,3.1C1399.2,299.1,1401.6,297,1401.6,294.4z"/>
	<path class="st5" d="M1424.3,277.1v24h-2.7v-1.8h-0.7c-0.9,1.2-2.5,2.2-5.2,2.2c-4.6,0-7.3-3.8-7.3-8.7c0-5,2.7-8.7,7.3-8.7
		c2.6,0,4.2,1,5.1,2.2h0.7v-9.1H1424.3z M1421.5,292.8c0-3.3-1.5-6.3-5.2-6.3c-3.3,0-5.1,2.6-5.1,6.3s1.8,6.3,5.1,6.3
		C1420,299.1,1421.5,296.1,1421.5,292.8z"/>
	<path class="st5" d="M1428.6,293.2v-2.5h9v2.5H1428.6z"/>
	<path class="st5" d="M1441,284.4c0.3-4.6,3.6-6.8,7.7-6.8c4.3,0,7.5,2.4,7.5,7c0,3.1-2.4,6.1-5.1,8.3l-5.8,4.9v0.7h11.7v2.6H1441
		v-3.3l3.4-2.8c1.8-1.5,4-3.3,5.2-4.5c1.6-1.4,3.6-3.3,3.6-6c0-2.9-1.8-4.5-4.7-4.5c-2.6,0-4.4,1.4-4.7,4.3H1441z"/>
</g>
<g>
	<path class="st5" d="M1336.1,369.2h-7.7v20.9h-3v-20.9h-7.8v-2.6h18.5V369.2z"/>
	<path class="st5" d="M1351.4,390.1v-10c0-3-1.4-4.6-4.2-4.6c-3,0-5,2.6-5,5.5v9h-2.8v-24h2.8v9.1h0.7c0.9-1.3,2.7-2.2,5-2.2
		c4.1,0,6.3,2.5,6.3,6.5v10.6H1351.4z"/>
	<path class="st5" d="M1368.8,376.1h-1.4c-3.3,0-5.3,2-5.3,5.7v8.3h-2.8v-16.6h2.7v2h0.7c0.8-1,2.4-2,4.8-2h1.3V376.1z"/>
	<path class="st5" d="M1386.9,381.7h-12.7c0.1,4,1.9,6.3,5.3,6.3c2.3,0,3.7-1,4.2-2.6h2.8c-0.5,2.8-2.9,5-7.1,5
		c-5.2,0-8.1-3.8-8.1-8.9c0-5.1,3-8.6,8-8.6c5,0,7.3,3.7,7.4,7.8V381.7z M1374.4,379.4h9.6c-0.2-2.1-1.8-3.9-4.6-3.9
		C1376.4,375.5,1374.8,377.3,1374.4,379.4z"/>
	<path class="st5" d="M1401.9,388.3h-0.7c-1,1.3-2.8,2.2-5.2,2.2c-3.8,0-6-2.6-6-5.4c0-2.7,1.8-5.5,6.4-5.5h5.4v-0.7
		c0-2-1.2-3.5-4.1-3.5c-2.5,0-3.7,1-3.9,2.4h-2.8c0.2-3.1,2.9-4.9,6.6-4.9c4.2,0,6.9,2,6.9,5.7v11.3h-2.6V388.3z M1401.8,383.4v-1.5
		h-5c-2.7,0-4,1.2-4,3.2c0,1.9,1.4,3.1,3.9,3.1C1399.4,388.1,1401.8,386,1401.8,383.4z"/>
	<path class="st5" d="M1424.6,366.1v24h-2.7v-1.8h-0.7c-0.9,1.2-2.5,2.2-5.2,2.2c-4.6,0-7.3-3.8-7.3-8.7c0-5,2.7-8.7,7.3-8.7
		c2.6,0,4.2,1,5.1,2.2h0.7v-9.1H1424.6z M1421.8,381.8c0-3.3-1.5-6.3-5.2-6.3c-3.3,0-5.1,2.6-5.1,6.3s1.8,6.3,5.1,6.3
		C1420.3,388.1,1421.8,385,1421.8,381.8z"/>
	<path class="st5" d="M1428.9,382.2v-2.5h9v2.5H1428.9z"/>
	<path class="st5" d="M1455.6,367v3.2l-5.8,5v0.7c4,0.1,6.9,2.6,6.9,7c0,4.8-3.4,7.6-8.2,7.6c-4.7,0-7.8-3-8.1-6.9h2.9
		c0.3,2.6,2.4,4.3,5.2,4.3c3.2,0,5.2-1.9,5.2-5c0-3-1.8-4.9-5.2-4.9c-0.8,0-1.5,0.1-2,0.2v-3.1l5.6-4.9v-0.7h-10.1V367H1455.6z"/>
</g>
<g>
	<path class="st5" d="M1335.3,476.2h-7.7v20.9h-3v-20.9h-7.8v-2.6h18.5V476.2z"/>
	<path class="st5" d="M1350.6,497.1v-10c0-3-1.4-4.6-4.2-4.6c-3,0-5,2.6-5,5.5v9h-2.8v-24h2.8v9.1h0.7c0.9-1.3,2.7-2.2,5-2.2
		c4.1,0,6.3,2.5,6.3,6.5v10.6H1350.6z"/>
	<path class="st5" d="M1368.1,483.1h-1.4c-3.3,0-5.3,2-5.3,5.7v8.3h-2.8v-16.6h2.7v2h0.7c0.8-1,2.4-2,4.8-2h1.3V483.1z"/>
	<path class="st5" d="M1386.2,488.8h-12.7c0.1,4,1.9,6.3,5.3,6.3c2.3,0,3.7-1,4.2-2.6h2.8c-0.5,2.8-2.9,5-7.1,5
		c-5.2,0-8.1-3.8-8.1-8.9c0-5.1,3-8.6,8-8.6c5,0,7.3,3.7,7.4,7.8V488.8z M1373.7,486.4h9.6c-0.2-2.1-1.8-3.9-4.6-3.9
		C1375.7,482.5,1374,484.3,1373.7,486.4z"/>
	<path class="st5" d="M1401.1,495.4h-0.7c-1,1.3-2.8,2.2-5.2,2.2c-3.8,0-6-2.6-6-5.4c0-2.7,1.7-5.5,6.4-5.5h5.4V486
		c0-2-1.2-3.5-4.1-3.5c-2.5,0-3.7,1-3.9,2.4h-2.8c0.2-3.1,2.9-4.9,6.6-4.9c4.2,0,6.9,2,6.9,5.7v11.3h-2.6V495.4z M1401,490.4v-1.5
		h-5c-2.7,0-4,1.2-4,3.2c0,1.9,1.4,3.1,3.9,3.1C1398.7,495.1,1401,493,1401,490.4z"/>
	<path class="st5" d="M1423.8,473.1v24h-2.7v-1.8h-0.7c-0.9,1.2-2.5,2.2-5.2,2.2c-4.6,0-7.3-3.8-7.3-8.7c0-5,2.7-8.7,7.3-8.7
		c2.6,0,4.2,1,5.1,2.2h0.7v-9.1H1423.8z M1421,488.8c0-3.3-1.5-6.3-5.2-6.3c-3.3,0-5.1,2.6-5.1,6.3s1.8,6.3,5.1,6.3
		C1419.5,495.1,1421,492.1,1421,488.8z"/>
	<path class="st5" d="M1428.1,489.2v-2.5h9v2.5H1428.1z"/>
	<path class="st5" d="M1457.5,489.1v2.6h-3.2v5.4h-2.8v-5.4H1440v-3.3l10.2-14.4h4.1v15.1H1457.5z M1451.5,489.1v-11.8h-0.7
		l-7.7,11.1v0.7H1451.5z"/>
</g>
<g>
	<path class="st3" d="M865.2,74.7v3.5h-21.6V48h20.9v3.5h-17.2v9.3h13.8v3.5h-13.8v10.4H865.2z"/>
	<path class="st3" d="M879.6,69.2h-1.5l-5.4,8.9h-3.9l6.6-10.9l-5.9-10.4h3.8l4.9,8.4h1.5l5-8.4h3.8l-6,10.2l6.6,11h-4L879.6,69.2z"
		/>
	<path class="st3" d="M911.7,67.5h-16.2c0.1,5.1,2.4,8.1,6.8,8.1c3,0,4.8-1.3,5.4-3.3h3.6c-0.7,3.6-3.8,6.4-9,6.4
		c-6.6,0-10.3-4.8-10.3-11.4s3.8-11,10.2-11c6.3,0,9.4,4.7,9.5,9.9V67.5z M895.8,64.5H908c-0.2-2.7-2.3-5-5.9-5
		C898.3,59.4,896.2,61.8,895.8,64.5z"/>
	<path class="st3" d="M935.2,71.7c-0.8,4.2-4,7-8.9,7c-6.6,0-10.3-4.9-10.3-11.2c0-6.4,3.7-11.2,10.3-11.2c5.1,0,8.1,2.8,8.8,6.7
		h-3.6c-0.7-2.1-2.3-3.6-5.2-3.6c-4.8,0-6.7,3.8-6.7,8c0,4.3,2,8.1,6.7,8.1c3,0,4.8-1.5,5.4-3.8H935.2z"/>
	<path class="st3" d="M943.8,56.9v12.7c0,3.9,1.8,5.9,5.4,5.9c3.8,0,6.3-3.2,6.3-7.1V56.9h3.6v21.2h-3.5v-2.3h-0.9
		c-1.2,1.6-3.5,2.8-6.4,2.8c-5.2,0-8.1-3.2-8.1-8.3V56.9H943.8z"/>
	<path class="st3" d="M976.3,56.9V60H971v11.7c0,2.1,0.9,3.2,3.8,3.2h1.6v3.2h-1.6c-4.6,0-7.3-1.4-7.3-5.9V60h-3.7v-3.1h3.7v-6.4
		h3.6v6.4H976.3z"/>
	<path class="st3" d="M1001.5,67.5c0,6.3-3.8,11.2-10.5,11.2c-6.7,0-10.5-4.9-10.5-11.2c0-6.3,3.8-11.2,10.5-11.2
		C997.7,56.3,1001.5,61.2,1001.5,67.5z M997.9,67.5c0-4.2-2.2-8-6.9-8c-4.7,0-6.9,3.9-6.9,8c0,4.2,2.1,8,6.9,8
		C995.7,75.5,997.9,71.7,997.9,67.5z"/>
	<path class="st3" d="M1019.2,60.2h-1.8c-4.2,0-6.8,2.6-6.8,7.2v10.6h-3.6V56.9h3.5v2.5h0.9c1.1-1.3,3.1-2.5,6.2-2.5h1.6V60.2z"/>
	<path class="st3" d="M1038.4,61.3c4.5,1,7.5,3.3,7.5,8.5c0,4.7-3.8,8.9-11.4,8.9c-7,0-11.6-3.7-12.1-8.9h3.8
		c0.7,4.1,4.3,5.5,8.4,5.5c4.2,0,7.4-1.9,7.4-5.4c0-3.2-2.1-4.5-5.1-5.1c-1.5-0.3-4.5-0.9-5.9-1.2c-4.4-0.9-7.3-3.2-7.3-7.6
		c0-4.7,3.8-8.3,10.6-8.3c6.2,0,10.2,3.3,10.9,8.1h-3.8c-0.7-3-2.8-4.7-7.2-4.7c-3.6,0-6.7,1.6-6.7,4.8c0,2.9,2.6,3.8,5.1,4.4
		C1034,60.3,1036.9,60.9,1038.4,61.3z"/>
	<path class="st3" d="M1070.3,67.5h-16.2c0.1,5.1,2.4,8.1,6.8,8.1c3,0,4.8-1.3,5.4-3.3h3.6c-0.7,3.6-3.8,6.4-9,6.4
		c-6.6,0-10.3-4.8-10.3-11.4s3.8-11,10.2-11c6.3,0,9.4,4.7,9.5,9.9V67.5z M1054.3,64.5h12.3c-0.2-2.7-2.3-5-5.9-5
		C1056.9,59.4,1054.8,61.8,1054.3,64.5z"/>
	<path class="st3" d="M1088,60.2h-1.8c-4.2,0-6.8,2.6-6.8,7.2v10.6h-3.6V56.9h3.5v2.5h0.9c1.1-1.3,3.1-2.5,6.2-2.5h1.6V60.2z"/>
	<path class="st3" d="M1091.8,56.9h3.7l5.9,17.9h1.7l5.7-17.9h3.8l-7.1,21.2h-6.7L1091.8,56.9z"/>
	<path class="st3" d="M1117,51.4v-3.9h3.8v3.9H1117z M1120.7,78.1h-3.6V56.9h3.6V78.1z"/>
	<path class="st3" d="M1145.7,71.7c-0.8,4.2-4,7-8.9,7c-6.6,0-10.3-4.9-10.3-11.2c0-6.4,3.7-11.2,10.3-11.2c5.1,0,8.1,2.8,8.8,6.7
		h-3.6c-0.7-2.1-2.3-3.6-5.2-3.6c-4.8,0-6.7,3.8-6.7,8c0,4.3,2,8.1,6.7,8.1c3,0,4.8-1.5,5.4-3.8H1145.7z"/>
	<path class="st3" d="M1169.4,67.5h-16.2c0.1,5.1,2.4,8.1,6.8,8.1c3,0,4.8-1.3,5.4-3.3h3.6c-0.7,3.6-3.8,6.4-9,6.4
		c-6.6,0-10.3-4.8-10.3-11.4s3.8-11,10.2-11c6.3,0,9.4,4.7,9.5,9.9V67.5z M1153.5,64.5h12.3c-0.2-2.7-2.3-5-5.9-5
		C1156,59.4,1153.9,61.8,1153.5,64.5z"/>
</g>
<g>
	<path class="st3" d="M1292.3,70.4h-9.9v26.7h-3.8V70.4h-9.9V67h23.6V70.4z"/>
	<path class="st3" d="M1311.9,97.1V84.4c0-3.8-1.8-5.9-5.4-5.9c-3.8,0-6.3,3.3-6.3,7.1v11.5h-3.6V66.5h3.6v11.7h0.9
		c1.1-1.6,3.5-2.8,6.3-2.8c5.2,0,8,3.2,8,8.3v13.5H1311.9z"/>
	<path class="st3" d="M1334.2,79.2h-1.8c-4.2,0-6.8,2.6-6.8,7.2v10.6h-3.6V75.9h3.5v2.5h0.9c1.1-1.3,3.1-2.5,6.2-2.5h1.6V79.2z"/>
	<path class="st3" d="M1357.2,86.5h-16.2c0.1,5.1,2.4,8.1,6.8,8.1c3,0,4.8-1.3,5.4-3.3h3.6c-0.7,3.6-3.8,6.4-9,6.4
		c-6.6,0-10.3-4.8-10.3-11.4s3.8-11,10.2-11c6.3,0,9.4,4.7,9.5,9.9V86.5z M1341.3,83.5h12.3c-0.2-2.7-2.3-5-5.9-5
		C1343.8,78.4,1341.7,80.8,1341.3,83.5z"/>
	<path class="st3" d="M1376.3,94.9h-0.9c-1.3,1.6-3.6,2.8-6.6,2.8c-4.9,0-7.6-3.3-7.6-6.9c0-3.4,2.2-7,8.1-7h6.9v-0.8
		c0-2.6-1.5-4.4-5.2-4.4c-3.2,0-4.8,1.2-4.9,3.1h-3.6c0.3-3.9,3.7-6.2,8.4-6.2c5.4,0,8.8,2.6,8.8,7.3v14.5h-3.4V94.9z M1376.2,88.5
		v-1.9h-6.4c-3.5,0-5.1,1.5-5.1,4c0,2.4,1.8,3.9,4.9,3.9C1373.2,94.5,1376.2,91.9,1376.2,88.5z"/>
	<path class="st3" d="M1405.3,66.5v30.6h-3.5v-2.3h-0.9c-1.2,1.5-3.2,2.8-6.6,2.8c-5.9,0-9.3-4.9-9.3-11.2c0-6.4,3.5-11.2,9.3-11.2
		c3.4,0,5.3,1.3,6.5,2.8h0.9V66.5H1405.3z M1401.7,86.5c0-4.2-1.9-8-6.7-8c-4.3,0-6.5,3.3-6.5,8c0,4.7,2.3,8,6.5,8
		C1399.8,94.5,1401.7,90.7,1401.7,86.5z"/>
	<path class="st3" d="M1437,67c6.6,0,10.2,3.4,10.2,9c0,5.7-3.6,9.1-10.2,9.1h-8.9v12.1h-3.8V67H1437z M1436.4,81.7
		c5.1,0,7-2.1,7-5.6s-1.9-5.6-7-5.6h-8.3v11.3H1436.4z"/>
	<path class="st3" d="M1471.2,86.5c0,6.3-3.8,11.2-10.5,11.2c-6.7,0-10.5-4.9-10.5-11.2c0-6.3,3.8-11.2,10.5-11.2
		C1467.4,75.3,1471.2,80.2,1471.2,86.5z M1467.6,86.5c0-4.2-2.2-8-6.9-8c-4.7,0-6.9,3.9-6.9,8c0,4.2,2.1,8,6.9,8
		C1465.4,94.5,1467.6,90.7,1467.6,86.5z"/>
	<path class="st3" d="M1496.4,86.5c0,6.3-3.8,11.2-10.5,11.2c-6.7,0-10.5-4.9-10.5-11.2c0-6.3,3.8-11.2,10.5-11.2
		C1492.6,75.3,1496.4,80.2,1496.4,86.5z M1492.8,86.5c0-4.2-2.2-8-6.9-8c-4.7,0-6.9,3.9-6.9,8c0,4.2,2.1,8,6.9,8
		C1490.6,94.5,1492.8,90.7,1492.8,86.5z"/>
	<path class="st3" d="M1505.6,66.5v30.6h-3.6V66.5H1505.6z"/>
</g>
<path class="st4" d="M1052.7,390.1H452.5c-4.7,0-8.5-3.8-8.5-8.5V254.5c0-4.7,3.8-8.5,8.5-8.5h600.2c4.7,0,8.5,3.8,8.5,8.5v127.1
	C1061.2,386.3,1057.4,390.1,1052.7,390.1z"/>
</svg>
