<svg width="1474" height="1280" viewBox="0 0 1474 1280" fill="none" xmlns="http://www.w3.org/2000/svg">
<rect width="1474" height="1280" fill="white"/>
<path d="M580 886.753L592 875.653C594.5 873.353 598.3 873.453 600.6 875.953L611.7 887.953" stroke="#007BFF" stroke-width="4" stroke-miterlimit="10" stroke-linecap="round"/>
<path d="M596 881C596 1090.91 596 772.091 596 982" stroke="#007BFF" stroke-width="4" stroke-miterlimit="10" stroke-linecap="round"/>
<rect x="339" y="30" width="486" height="165" rx="30" fill="#007BFF"/>
<rect x="43" y="379" width="482" height="161" rx="28" fill="white" stroke="#007BFF" stroke-width="4"/>
<rect x="655" y="379" width="482" height="161" rx="28" fill="white" stroke="#007BFF" stroke-width="4"/>
<rect x="355" y="703" width="482" height="161" rx="28" fill="white" stroke="#007BFF" stroke-width="4"/>
<rect x="952" y="703" width="482" height="161" rx="28" fill="white" stroke="#274867" stroke-width="4"/>
<rect x="355" y="994" width="482" height="161" rx="28" fill="white" stroke="#274867" stroke-width="4"/>
<rect x="372" y="721" width="448" height="125" rx="20" fill="#CCE5FF"/>
<path d="M454 213.753L466 202.653C468.5 200.353 472.3 200.453 474.6 202.953L485.7 214.953" stroke="#007BFF" stroke-width="4" stroke-miterlimit="10" stroke-linecap="round"/>
<path d="M470 208C470 380.5 470 118.5 470 291" stroke="#007BFF" stroke-width="4" stroke-miterlimit="10" stroke-linecap="round"/>
<path d="M284 291C284 448.951 284 209.049 284 367" stroke="#007BFF" stroke-width="4" stroke-miterlimit="10" stroke-linecap="round"/>
<path d="M470 291C83.4348 291 670.565 291 284 291" stroke="#007BFF" stroke-width="4" stroke-miterlimit="10" stroke-linecap="round"/>
<path d="M730.7 213.753L718.7 202.653C716.2 200.353 712.4 200.453 710.1 202.953L699 214.953" stroke="#007BFF" stroke-width="4" stroke-miterlimit="10" stroke-linecap="round"/>
<path d="M714.7 208C714.7 380.5 714.7 118.5 714.7 291" stroke="#007BFF" stroke-width="4" stroke-miterlimit="10" stroke-linecap="round"/>
<path d="M900.7 291C900.7 448.951 900.7 209.049 900.7 367" stroke="#007BFF" stroke-width="4" stroke-miterlimit="10" stroke-linecap="round"/>
<path d="M714.7 291C1101.27 291 514.135 291 900.7 291" stroke="#007BFF" stroke-width="4" stroke-miterlimit="10" stroke-linecap="round"/>
<path d="M1031.7 561.753L1019.7 550.653C1017.2 548.353 1013.4 548.453 1011.1 550.953L1000 562.953" stroke="#007BFF" stroke-width="4" stroke-miterlimit="10" stroke-linecap="round"/>
<path d="M1016 556C1016 689.012 1016 486.988 1016 620" stroke="#007BFF" stroke-width="4" stroke-miterlimit="10" stroke-linecap="round"/>
<path d="M1168 620C1168 775.873 1168 539.127 1168 695" stroke="#007BFF" stroke-width="4" stroke-miterlimit="10" stroke-linecap="round"/>
<path d="M1016 620C1331.9 620 852.097 620 1168 620" stroke="#007BFF" stroke-width="4" stroke-miterlimit="10" stroke-linecap="round"/>
<path d="M787.3 561.753L799.3 550.653C801.8 548.353 805.6 548.453 807.9 550.953L819 562.953" stroke="#007BFF" stroke-width="4" stroke-miterlimit="10" stroke-linecap="round"/>
<path d="M803 556C803 689.012 803 486.988 803 620" stroke="#007BFF" stroke-width="4" stroke-miterlimit="10" stroke-linecap="round"/>
<path d="M651 620C651 775.873 651 539.127 651 695" stroke="#007BFF" stroke-width="4" stroke-miterlimit="10" stroke-linecap="round"/>
<path d="M803 620C487.097 620 966.903 620 651 620" stroke="#007BFF" stroke-width="4" stroke-miterlimit="10" stroke-linecap="round"/>
<path d="M496.873 97.1561H471.113V100.836H481.969V130H486.109V100.836H496.873V97.1561Z" fill="white"/>
<path d="M522.113 130V115.28C522.113 109.714 518.985 106.218 513.327 106.218C510.199 106.218 507.669 107.506 506.427 109.3H505.415V96.5581H501.505V130H505.415V117.442C505.415 113.348 508.175 109.714 512.315 109.714C516.225 109.714 518.203 111.922 518.203 116.108V130H522.113Z" fill="white"/>
<path d="M542.514 106.816H540.766C537.408 106.816 535.2 108.15 534.05 109.576H533.038V106.816H529.266V130H533.176V118.408C533.176 113.302 535.982 110.496 540.582 110.496H542.514V106.816Z" fill="white"/>
<path d="M557.621 106.218C550.353 106.218 546.213 111.554 546.213 118.408C546.213 125.262 550.353 130.598 557.621 130.598C564.843 130.598 569.029 125.262 569.029 118.408C569.029 111.554 564.843 106.218 557.621 106.218ZM557.621 127.194C552.469 127.194 550.123 122.962 550.123 118.408C550.123 113.854 552.469 109.622 557.621 109.622C562.727 109.622 565.119 113.854 565.119 118.408C565.119 122.962 562.727 127.194 557.621 127.194Z" fill="white"/>
<path d="M584.883 114.406L580.927 125.86H579.915L577.156 106.816H573.383L576.696 130H582.768L586.815 118.27H587.782L591.829 130H597.81L601.167 106.816H597.396L594.728 125.86H593.715L589.852 114.406H584.883Z" fill="white"/>
<path d="M621.702 130H625.382V114.222C625.382 109.024 621.656 106.218 615.814 106.218C610.616 106.218 606.936 108.702 606.614 112.98H610.524C610.708 110.956 612.456 109.622 615.906 109.622C619.954 109.622 621.564 111.646 621.564 114.452V115.372H614.02C607.58 115.372 605.142 119.328 605.142 123.054C605.142 127.01 608.132 130.598 613.468 130.598C616.78 130.598 619.264 129.356 620.69 127.562H621.702V130ZM614.434 127.194C610.984 127.194 609.052 125.538 609.052 122.916C609.052 120.156 610.8 118.5 614.618 118.5H621.564V120.616C621.564 124.296 618.298 127.194 614.434 127.194Z" fill="white"/>
<path d="M644.548 106.218C640.868 106.218 638.706 107.644 637.464 109.3H636.452V96.5581H632.542V130H636.314V127.516H637.326C638.614 129.126 640.868 130.598 644.548 130.598C650.942 130.598 654.714 125.262 654.714 118.408C654.714 111.416 650.942 106.218 644.548 106.218ZM643.674 127.194C638.522 127.194 636.406 122.962 636.406 118.408C636.406 113.854 638.522 109.622 643.674 109.622C648.32 109.622 650.804 113.256 650.804 118.408C650.804 123.56 648.32 127.194 643.674 127.194Z" fill="white"/>
<path d="M660.842 96.5581V130H664.752V96.5581H660.842Z" fill="white"/>
<path d="M692.4 117.028C692.262 111.324 688.95 106.218 682.05 106.218C675.012 106.218 670.872 111.048 670.872 118.178C670.872 125.308 674.92 130.598 682.142 130.598C687.892 130.598 691.25 127.562 691.986 123.606H688.03C687.34 125.814 685.408 127.194 682.142 127.194C677.358 127.194 674.874 123.882 674.736 118.362H692.4V117.028ZM681.958 109.622C685.868 109.622 688.122 112.152 688.352 115.096H674.966C675.472 112.152 677.772 109.622 681.958 109.622Z" fill="white"/>
<path d="M236.516 473.228V461.866H251.604V458.094H236.516V447.928H255.238V444.156H232.376V477H255.974V473.228H236.516Z" fill="#274867"/>
<path d="M275.218 453.816H273.47C270.112 453.816 267.904 455.15 266.754 456.576H265.742V453.816H261.97V477H265.88V465.408C265.88 460.302 268.686 457.496 273.286 457.496H275.218V453.816Z" fill="#274867"/>
<path d="M293.591 453.816H291.843C288.485 453.816 286.277 455.15 285.127 456.576H284.115V453.816H280.343V477H284.253V465.408C284.253 460.302 287.059 457.496 291.659 457.496H293.591V453.816Z" fill="#274867"/>
<path d="M308.698 453.218C301.43 453.218 297.29 458.554 297.29 465.408C297.29 472.262 301.43 477.598 308.698 477.598C315.92 477.598 320.106 472.262 320.106 465.408C320.106 458.554 315.92 453.218 308.698 453.218ZM308.698 474.194C303.546 474.194 301.2 469.962 301.2 465.408C301.2 460.854 303.546 456.622 308.698 456.622C313.804 456.622 316.196 460.854 316.196 465.408C316.196 469.962 313.804 474.194 308.698 474.194Z" fill="#274867"/>
<path d="M339.456 453.816H337.708C334.35 453.816 332.142 455.15 330.992 456.576H329.98V453.816H326.208V477H330.118V465.408C330.118 460.302 332.924 457.496 337.524 457.496H339.456V453.816Z" fill="#274867"/>
<path d="M794.694 473.228V461.866H809.782V458.094H794.694V447.928H813.416V444.156H790.554V477H814.152V473.228H794.694Z" fill="#274867"/>
<path d="M835.65 477H840.066L832.89 464.994L839.468 453.816H835.374L829.945 463.016H828.29L822.954 453.816H818.814L825.299 465.132L818.078 477H822.356L828.244 467.294H829.9L835.65 477Z" fill="#274867"/>
<path d="M860.585 470.008C859.987 472.584 858.055 474.194 854.743 474.194C849.545 474.194 847.383 469.962 847.383 465.316C847.383 460.716 849.499 456.622 854.743 456.622C857.917 456.622 859.711 458.186 860.447 460.532H864.357C863.575 456.254 860.263 453.218 854.743 453.218C847.521 453.218 843.473 458.416 843.473 465.408C843.473 472.262 847.521 477.598 854.743 477.598C860.125 477.598 863.621 474.562 864.495 470.008H860.585Z" fill="#274867"/>
<path d="M890.427 464.028C890.289 458.324 886.977 453.218 880.077 453.218C873.039 453.218 868.899 458.048 868.899 465.178C868.899 472.308 872.947 477.598 880.169 477.598C885.919 477.598 889.277 474.562 890.013 470.606H886.057C885.367 472.814 883.435 474.194 880.169 474.194C875.385 474.194 872.901 470.882 872.763 465.362H890.427V464.028ZM879.985 456.622C883.895 456.622 886.149 459.152 886.379 462.096H872.993C873.499 459.152 875.799 456.622 879.985 456.622Z" fill="#274867"/>
<path d="M907.647 456.622C912.293 456.622 914.777 460.256 914.777 465.408C914.777 470.56 912.293 474.194 907.647 474.194C902.495 474.194 900.379 469.962 900.379 465.408C900.379 460.854 902.495 456.622 907.647 456.622ZM896.515 453.816V486.2H900.425V474.516H901.437C902.679 476.172 904.841 477.598 908.521 477.598C914.915 477.598 918.687 472.4 918.687 465.408C918.687 458.554 914.915 453.218 908.521 453.218C904.841 453.218 902.587 454.69 901.299 456.3H900.287V453.816H896.515Z" fill="#274867"/>
<path d="M930.198 453.816V446.824H926.287V453.816H922.286V457.22H926.287V470.514C926.287 475.436 929.231 477 934.245 477H936.039V473.504H934.337C931.209 473.504 930.198 472.308 930.198 469.962V457.22H936.039V453.816H930.198Z" fill="#274867"/>
<path d="M946.61 447.79V443.558H942.47V447.79H946.61ZM946.472 453.816H942.562V477H946.472V453.816Z" fill="#274867"/>
<path d="M964.131 453.218C956.863 453.218 952.723 458.554 952.723 465.408C952.723 472.262 956.863 477.598 964.131 477.598C971.353 477.598 975.539 472.262 975.539 465.408C975.539 458.554 971.353 453.218 964.131 453.218ZM964.131 474.194C958.979 474.194 956.633 469.962 956.633 465.408C956.633 460.854 958.979 456.622 964.131 456.622C969.237 456.622 971.629 460.854 971.629 465.408C971.629 469.962 969.237 474.194 964.131 474.194Z" fill="#274867"/>
<path d="M1002.25 477V462.28C1002.25 456.714 999.122 453.218 993.418 453.218C990.29 453.218 987.714 454.506 986.426 456.3H985.414V453.816H981.642V477H985.552V464.442C985.552 460.348 988.312 456.714 992.452 456.714C996.362 456.714 998.34 458.83 998.34 463.108V477H1002.25Z" fill="#274867"/>
<path d="M399.66 768.156V801H403.8V787.246H413.368C414.242 787.246 415.162 787.2 416.036 787.108L420.958 801H425.236L419.992 786.142C423.304 784.67 425.006 781.772 425.006 777.724C425.006 771.698 421.142 768.156 414.196 768.156H399.66ZM403.8 783.566V771.836H413.598C418.888 771.836 420.82 774.044 420.82 777.724C420.82 781.358 418.888 783.566 413.598 783.566H403.8Z" fill="#274867"/>
<path d="M431.491 777.816V792.536C431.491 798.102 434.619 801.598 440.323 801.598C443.451 801.598 446.027 800.31 447.315 798.516H448.327V801H452.099V777.816H448.189V790.374C448.189 794.56 445.383 798.102 441.289 798.102C437.379 798.102 435.401 795.986 435.401 791.708V777.816H431.491Z" fill="#274867"/>
<path d="M480.229 801V786.28C480.229 780.714 477.101 777.218 471.397 777.218C468.269 777.218 465.693 778.506 464.405 780.3H463.393V777.816H459.621V801H463.531V788.442C463.531 784.348 466.291 780.714 470.431 780.714C474.341 780.714 476.319 782.83 476.319 787.108V801H480.229Z" fill="#274867"/>
<path d="M492.765 777.816V770.824H488.855V777.816H484.853V781.22H488.855V794.514C488.855 799.436 491.799 801 496.813 801H498.607V797.504H496.905C493.777 797.504 492.765 796.308 492.765 793.962V781.22H498.607V777.816H492.765Z" fill="#274867"/>
<path d="M509.177 771.79V767.558H505.037V771.79H509.177ZM509.039 777.816H505.129V801H509.039V777.816Z" fill="#274867"/>
<path d="M541.051 777.218C538.153 777.218 535.945 778.23 534.519 780.3H533.507C532.265 778.23 530.195 777.218 527.389 777.218C524.445 777.218 522.651 778.276 521.501 780.07H520.489V777.816H516.717V801H520.627V788.166C520.627 783.98 522.467 780.714 526.331 780.714C529.229 780.714 530.747 782.692 530.747 786.51V801H534.657V787.43C534.657 783.52 536.681 780.714 540.315 780.714C543.305 780.714 544.777 782.6 544.777 786.418V801H548.687V786.004C548.687 780.668 546.387 777.218 541.051 777.218Z" fill="#274867"/>
<path d="M575.946 788.028C575.808 782.324 572.496 777.218 565.596 777.218C558.558 777.218 554.418 782.048 554.418 789.178C554.418 796.308 558.466 801.598 565.688 801.598C571.438 801.598 574.796 798.562 575.532 794.606H571.576C570.886 796.814 568.954 798.194 565.688 798.194C560.904 798.194 558.42 794.882 558.282 789.362H575.946V788.028ZM565.504 780.622C569.414 780.622 571.668 783.152 571.898 786.096H558.512C559.018 783.152 561.318 780.622 565.504 780.622Z" fill="#274867"/>
<path d="M586.587 797.228V785.866H601.675V782.094H586.587V771.928H605.309V768.156H582.447V801H606.045V797.228H586.587Z" fill="#274867"/>
<path d="M627.543 801H631.959L624.783 788.994L631.361 777.816H627.267L621.839 787.016H620.183L614.847 777.816H610.707L617.193 789.132L609.971 801H614.249L620.137 791.294H621.793L627.543 801Z" fill="#274867"/>
<path d="M652.479 794.008C651.881 796.584 649.949 798.194 646.637 798.194C641.439 798.194 639.277 793.962 639.277 789.316C639.277 784.716 641.393 780.622 646.637 780.622C649.811 780.622 651.605 782.186 652.341 784.532H656.251C655.469 780.254 652.157 777.218 646.637 777.218C639.415 777.218 635.367 782.416 635.367 789.408C635.367 796.262 639.415 801.598 646.637 801.598C652.019 801.598 655.515 798.562 656.389 794.008H652.479Z" fill="#274867"/>
<path d="M682.321 788.028C682.183 782.324 678.871 777.218 671.971 777.218C664.933 777.218 660.793 782.048 660.793 789.178C660.793 796.308 664.841 801.598 672.063 801.598C677.813 801.598 681.171 798.562 681.907 794.606H677.951C677.261 796.814 675.329 798.194 672.063 798.194C667.279 798.194 664.795 794.882 664.657 789.362H682.321V788.028ZM671.879 780.622C675.789 780.622 678.043 783.152 678.273 786.096H664.887C665.393 783.152 667.693 780.622 671.879 780.622Z" fill="#274867"/>
<path d="M699.54 780.622C704.186 780.622 706.67 784.256 706.67 789.408C706.67 794.56 704.186 798.194 699.54 798.194C694.388 798.194 692.272 793.962 692.272 789.408C692.272 784.854 694.388 780.622 699.54 780.622ZM688.408 777.816V810.2H692.318V798.516H693.33C694.572 800.172 696.734 801.598 700.414 801.598C706.808 801.598 710.58 796.4 710.58 789.408C710.58 782.554 706.808 777.218 700.414 777.218C696.734 777.218 694.48 778.69 693.192 780.3H692.18V777.816H688.408Z" fill="#274867"/>
<path d="M722.091 777.816V770.824H718.181V777.816H714.179V781.22H718.181V794.514C718.181 799.436 721.125 801 726.139 801H727.933V797.504H726.231C723.103 797.504 722.091 796.308 722.091 793.962V781.22H727.933V777.816H722.091Z" fill="#274867"/>
<path d="M738.503 771.79V767.558H734.363V771.79H738.503ZM738.365 777.816H734.455V801H738.365V777.816Z" fill="#274867"/>
<path d="M756.025 777.218C748.757 777.218 744.617 782.554 744.617 789.408C744.617 796.262 748.757 801.598 756.025 801.598C763.247 801.598 767.433 796.262 767.433 789.408C767.433 782.554 763.247 777.218 756.025 777.218ZM756.025 798.194C750.873 798.194 748.527 793.962 748.527 789.408C748.527 784.854 750.873 780.622 756.025 780.622C761.131 780.622 763.523 784.854 763.523 789.408C763.523 793.962 761.131 798.194 756.025 798.194Z" fill="#274867"/>
<path d="M794.143 801V786.28C794.143 780.714 791.015 777.218 785.311 777.218C782.183 777.218 779.607 778.506 778.319 780.3H777.307V777.816H773.535V801H777.445V788.442C777.445 784.348 780.205 780.714 784.345 780.714C788.255 780.714 790.233 782.83 790.233 787.108V801H794.143Z" fill="#274867"/>
<path d="M372.938 1184.16V1205.22C372.938 1210.38 369.902 1213.83 364.152 1213.83C358.402 1213.83 355.366 1210.38 355.366 1205.22V1184.16H351.226V1205.27C351.226 1213.04 355.734 1217.6 364.152 1217.6C372.57 1217.6 377.078 1213.04 377.078 1205.27V1184.16H372.938Z" fill="#274867"/>
<path d="M405.563 1217V1202.28C405.563 1196.71 402.435 1193.22 396.731 1193.22C393.603 1193.22 391.027 1194.51 389.739 1196.3H388.727V1193.82H384.955V1217H388.865V1204.44C388.865 1200.35 391.625 1196.71 395.765 1196.71C399.675 1196.71 401.653 1198.83 401.653 1203.11V1217H405.563Z" fill="#274867"/>
<path d="M428.403 1210.01C427.805 1212.58 425.873 1214.19 422.561 1214.19C417.363 1214.19 415.201 1209.96 415.201 1205.32C415.201 1200.72 417.317 1196.62 422.561 1196.62C425.735 1196.62 427.529 1198.19 428.265 1200.53H432.175C431.393 1196.25 428.081 1193.22 422.561 1193.22C415.339 1193.22 411.291 1198.42 411.291 1205.41C411.291 1212.26 415.339 1217.6 422.561 1217.6C427.943 1217.6 431.439 1214.56 432.313 1210.01H428.403Z" fill="#274867"/>
<path d="M458.751 1217V1202.28C458.751 1196.71 455.623 1193.22 449.965 1193.22C446.837 1193.22 444.307 1194.51 443.065 1196.3H442.053V1183.56H438.143V1217H442.053V1204.44C442.053 1200.35 444.813 1196.71 448.953 1196.71C452.863 1196.71 454.841 1198.92 454.841 1203.11V1217H458.751Z" fill="#274867"/>
<path d="M486.006 1204.03C485.868 1198.32 482.556 1193.22 475.656 1193.22C468.618 1193.22 464.478 1198.05 464.478 1205.18C464.478 1212.31 468.526 1217.6 475.748 1217.6C481.498 1217.6 484.856 1214.56 485.592 1210.61H481.636C480.946 1212.81 479.014 1214.19 475.748 1214.19C470.964 1214.19 468.48 1210.88 468.342 1205.36H486.006V1204.03ZM475.564 1196.62C479.474 1196.62 481.728 1199.15 481.958 1202.1H468.572C469.078 1199.15 471.378 1196.62 475.564 1196.62Z" fill="#274867"/>
<path d="M507.78 1210.01C507.182 1212.58 505.25 1214.19 501.938 1214.19C496.74 1214.19 494.578 1209.96 494.578 1205.32C494.578 1200.72 496.694 1196.62 501.938 1196.62C505.112 1196.62 506.906 1198.19 507.642 1200.53H511.552C510.77 1196.25 507.458 1193.22 501.938 1193.22C494.716 1193.22 490.668 1198.42 490.668 1205.41C490.668 1212.26 494.716 1217.6 501.938 1217.6C507.32 1217.6 510.816 1214.56 511.69 1210.01H507.78Z" fill="#274867"/>
<path d="M538.588 1217L530.354 1200.95L537.024 1193.82H532.378L521.43 1205.45V1183.56H517.52V1217H521.43V1210.28L526.766 1204.4H527.778L534.402 1217H538.588Z" fill="#274867"/>
<path d="M563.047 1204.03C562.909 1198.32 559.597 1193.22 552.697 1193.22C545.659 1193.22 541.519 1198.05 541.519 1205.18C541.519 1212.31 545.567 1217.6 552.789 1217.6C558.539 1217.6 561.897 1214.56 562.633 1210.61H558.677C557.987 1212.81 556.055 1214.19 552.789 1214.19C548.005 1214.19 545.521 1210.88 545.383 1205.36H563.047V1204.03ZM552.605 1196.62C556.515 1196.62 558.769 1199.15 558.999 1202.1H545.613C546.119 1199.15 548.419 1196.62 552.605 1196.62Z" fill="#274867"/>
<path d="M585.971 1183.56V1196.3H584.959C583.671 1194.64 581.555 1193.22 577.875 1193.22C571.481 1193.22 567.709 1198.42 567.709 1205.41C567.709 1212.26 571.481 1217.6 577.875 1217.6C581.555 1217.6 583.809 1216.13 585.097 1214.52H586.109V1217H589.881V1183.56H585.971ZM578.749 1214.19C574.103 1214.19 571.619 1210.56 571.619 1205.41C571.619 1200.26 574.103 1196.62 578.749 1196.62C583.901 1196.62 586.017 1200.85 586.017 1205.41C586.017 1209.96 583.901 1214.19 578.749 1214.19Z" fill="#274867"/>
<path d="M630.34 1204.03C630.202 1198.32 626.89 1193.22 619.99 1193.22C612.952 1193.22 608.812 1198.05 608.812 1205.18C608.812 1212.31 612.86 1217.6 620.082 1217.6C625.832 1217.6 629.19 1214.56 629.926 1210.61H625.97C625.28 1212.81 623.348 1214.19 620.082 1214.19C615.298 1214.19 612.814 1210.88 612.676 1205.36H630.34V1204.03ZM619.898 1196.62C623.808 1196.62 626.062 1199.15 626.292 1202.1H612.906C613.412 1199.15 615.712 1196.62 619.898 1196.62Z" fill="#274867"/>
<path d="M651.256 1217H655.672L648.496 1204.99L655.074 1193.82H650.98L645.552 1203.02H643.896L638.56 1193.82H634.42L640.906 1205.13L633.684 1217H637.962L643.85 1207.29H645.506L651.256 1217Z" fill="#274867"/>
<path d="M676.192 1210.01C675.594 1212.58 673.662 1214.19 670.35 1214.19C665.152 1214.19 662.99 1209.96 662.99 1205.32C662.99 1200.72 665.106 1196.62 670.35 1196.62C673.524 1196.62 675.318 1198.19 676.054 1200.53H679.964C679.182 1196.25 675.87 1193.22 670.35 1193.22C663.128 1193.22 659.08 1198.42 659.08 1205.41C659.08 1212.26 663.128 1217.6 670.35 1217.6C675.732 1217.6 679.228 1214.56 680.102 1210.01H676.192Z" fill="#274867"/>
<path d="M706.034 1204.03C705.896 1198.32 702.584 1193.22 695.684 1193.22C688.646 1193.22 684.506 1198.05 684.506 1205.18C684.506 1212.31 688.554 1217.6 695.776 1217.6C701.526 1217.6 704.884 1214.56 705.62 1210.61H701.664C700.974 1212.81 699.042 1214.19 695.776 1214.19C690.992 1214.19 688.508 1210.88 688.37 1205.36H706.034V1204.03ZM695.592 1196.62C699.502 1196.62 701.756 1199.15 701.986 1202.1H688.6C689.106 1199.15 691.406 1196.62 695.592 1196.62Z" fill="#274867"/>
<path d="M723.253 1196.62C727.899 1196.62 730.383 1200.26 730.383 1205.41C730.383 1210.56 727.899 1214.19 723.253 1214.19C718.101 1214.19 715.985 1209.96 715.985 1205.41C715.985 1200.85 718.101 1196.62 723.253 1196.62ZM712.121 1193.82V1226.2H716.031V1214.52H717.043C718.285 1216.17 720.447 1217.6 724.127 1217.6C730.521 1217.6 734.293 1212.4 734.293 1205.41C734.293 1198.55 730.521 1193.22 724.127 1193.22C720.447 1193.22 718.193 1194.69 716.905 1196.3H715.893V1193.82H712.121Z" fill="#274867"/>
<path d="M745.804 1193.82V1186.82H741.894V1193.82H737.892V1197.22H741.894V1210.51C741.894 1215.44 744.838 1217 749.852 1217H751.646V1213.5H749.944C746.816 1213.5 745.804 1212.31 745.804 1209.96V1197.22H751.646V1193.82H745.804Z" fill="#274867"/>
<path d="M762.216 1187.79V1183.56H758.076V1187.79H762.216ZM762.078 1193.82H758.168V1217H762.078V1193.82Z" fill="#274867"/>
<path d="M779.738 1193.22C772.47 1193.22 768.33 1198.55 768.33 1205.41C768.33 1212.26 772.47 1217.6 779.738 1217.6C786.96 1217.6 791.146 1212.26 791.146 1205.41C791.146 1198.55 786.96 1193.22 779.738 1193.22ZM779.738 1214.19C774.586 1214.19 772.24 1209.96 772.24 1205.41C772.24 1200.85 774.586 1196.62 779.738 1196.62C784.844 1196.62 787.236 1200.85 787.236 1205.41C787.236 1209.96 784.844 1214.19 779.738 1214.19Z" fill="#274867"/>
<path d="M817.856 1217V1202.28C817.856 1196.71 814.728 1193.22 809.024 1193.22C805.896 1193.22 803.32 1194.51 802.032 1196.3H801.02V1193.82H797.248V1217H801.158V1204.44C801.158 1200.35 803.918 1196.71 808.058 1196.71C811.968 1196.71 813.946 1198.83 813.946 1203.11V1217H817.856Z" fill="#274867"/>
<path d="M831.45 1202.56C829.104 1202.19 827.954 1201.5 827.954 1199.7C827.954 1197.73 829.978 1196.62 832.968 1196.62C835.866 1196.62 838.074 1197.63 838.396 1199.84H842.306C841.8 1195.79 838.626 1193.22 833.152 1193.22C826.896 1193.22 823.998 1196.21 823.998 1200.07C823.998 1203.57 826.252 1205.32 829.564 1205.91L834.762 1206.79C837.706 1207.29 838.994 1208.4 838.994 1210.42C838.994 1212.95 836.694 1214.19 833.198 1214.19C829.702 1214.19 827.402 1212.91 827.034 1210.28H823.078C823.584 1214.7 826.804 1217.6 833.382 1217.6C839.638 1217.6 842.904 1214.15 842.904 1210.33C842.904 1206.1 840.328 1204.03 836.28 1203.34L833.658 1202.92L831.45 1202.56Z" fill="#274867"/>
<path d="M997.601 916.662C996.543 920.48 993.553 922.826 988.953 922.826C981.317 922.826 977.959 916.57 977.959 909.578C977.959 902.632 981.363 896.33 988.999 896.33C993.553 896.33 995.991 898.262 997.233 901.758H1001.6C1000.27 896.1 995.669 892.558 988.999 892.558C979.247 892.558 973.773 899.826 973.773 909.578C973.773 919.33 979.155 926.598 988.953 926.598C996.175 926.598 1000.64 922.504 1001.97 916.662H997.601Z" fill="#274867"/>
<path d="M1028.64 926V911.28C1028.64 905.714 1025.51 902.218 1019.85 902.218C1016.73 902.218 1014.2 903.506 1012.95 905.3H1011.94V892.558H1008.03V926H1011.94V913.442C1011.94 909.348 1014.7 905.714 1018.84 905.714C1022.75 905.714 1024.73 907.922 1024.73 912.108V926H1028.64Z" fill="#274867"/>
<path d="M1055.9 913.028C1055.76 907.324 1052.45 902.218 1045.55 902.218C1038.51 902.218 1034.37 907.048 1034.37 914.178C1034.37 921.308 1038.42 926.598 1045.64 926.598C1051.39 926.598 1054.75 923.562 1055.48 919.606H1051.53C1050.84 921.814 1048.9 923.194 1045.64 923.194C1040.85 923.194 1038.37 919.882 1038.23 914.362H1055.9V913.028ZM1045.45 905.622C1049.36 905.622 1051.62 908.152 1051.85 911.096H1038.46C1038.97 908.152 1041.27 905.622 1045.45 905.622Z" fill="#274867"/>
<path d="M1077.67 919.008C1077.07 921.584 1075.14 923.194 1071.83 923.194C1066.63 923.194 1064.47 918.962 1064.47 914.316C1064.47 909.716 1066.58 905.622 1071.83 905.622C1075 905.622 1076.8 907.186 1077.53 909.532H1081.44C1080.66 905.254 1077.35 902.218 1071.83 902.218C1064.61 902.218 1060.56 907.416 1060.56 914.408C1060.56 921.262 1064.61 926.598 1071.83 926.598C1077.21 926.598 1080.71 923.562 1081.58 919.008H1077.67Z" fill="#274867"/>
<path d="M1108.48 926L1100.24 909.946L1106.91 902.816H1102.27L1091.32 914.454V892.558H1087.41V926H1091.32V919.284L1096.66 913.396H1097.67L1104.29 926H1108.48Z" fill="#274867"/>
<path d="M1132.94 913.028C1132.8 907.324 1129.49 902.218 1122.59 902.218C1115.55 902.218 1111.41 907.048 1111.41 914.178C1111.41 921.308 1115.46 926.598 1122.68 926.598C1128.43 926.598 1131.79 923.562 1132.52 919.606H1128.57C1127.88 921.814 1125.95 923.194 1122.68 923.194C1117.9 923.194 1115.41 919.882 1115.27 914.362H1132.94V913.028ZM1122.49 905.622C1126.4 905.622 1128.66 908.152 1128.89 911.096H1115.5C1116.01 908.152 1118.31 905.622 1122.49 905.622Z" fill="#274867"/>
<path d="M1155.86 892.558V905.3H1154.85C1153.56 903.644 1151.44 902.218 1147.76 902.218C1141.37 902.218 1137.6 907.416 1137.6 914.408C1137.6 921.262 1141.37 926.598 1147.76 926.598C1151.44 926.598 1153.7 925.126 1154.99 923.516H1156V926H1159.77V892.558H1155.86ZM1148.64 923.194C1143.99 923.194 1141.51 919.56 1141.51 914.408C1141.51 909.256 1143.99 905.622 1148.64 905.622C1153.79 905.622 1155.91 909.854 1155.91 914.408C1155.91 918.962 1153.79 923.194 1148.64 923.194Z" fill="#274867"/>
<path d="M1200.23 913.028C1200.09 907.324 1196.78 902.218 1189.88 902.218C1182.84 902.218 1178.7 907.048 1178.7 914.178C1178.7 921.308 1182.75 926.598 1189.97 926.598C1195.72 926.598 1199.08 923.562 1199.82 919.606H1195.86C1195.17 921.814 1193.24 923.194 1189.97 923.194C1185.19 923.194 1182.7 919.882 1182.57 914.362H1200.23V913.028ZM1189.79 905.622C1193.7 905.622 1195.95 908.152 1196.18 911.096H1182.8C1183.3 908.152 1185.6 905.622 1189.79 905.622Z" fill="#274867"/>
<path d="M1221.15 926H1225.56L1218.39 913.994L1224.96 902.816H1220.87L1215.44 912.016H1213.79L1208.45 902.816H1204.31L1210.8 914.132L1203.57 926H1207.85L1213.74 916.294H1215.4L1221.15 926Z" fill="#274867"/>
<path d="M1246.08 919.008C1245.48 921.584 1243.55 923.194 1240.24 923.194C1235.04 923.194 1232.88 918.962 1232.88 914.316C1232.88 909.716 1235 905.622 1240.24 905.622C1243.41 905.622 1245.21 907.186 1245.94 909.532H1249.85C1249.07 905.254 1245.76 902.218 1240.24 902.218C1233.02 902.218 1228.97 907.416 1228.97 914.408C1228.97 921.262 1233.02 926.598 1240.24 926.598C1245.62 926.598 1249.12 923.562 1249.99 919.008H1246.08Z" fill="#274867"/>
<path d="M1275.92 913.028C1275.79 907.324 1272.47 902.218 1265.57 902.218C1258.54 902.218 1254.4 907.048 1254.4 914.178C1254.4 921.308 1258.44 926.598 1265.67 926.598C1271.42 926.598 1274.77 923.562 1275.51 919.606H1271.55C1270.86 921.814 1268.93 923.194 1265.67 923.194C1260.88 923.194 1258.4 919.882 1258.26 914.362H1275.92V913.028ZM1265.48 905.622C1269.39 905.622 1271.65 908.152 1271.88 911.096H1258.49C1259 908.152 1261.3 905.622 1265.48 905.622Z" fill="#274867"/>
<path d="M1293.14 905.622C1297.79 905.622 1300.27 909.256 1300.27 914.408C1300.27 919.56 1297.79 923.194 1293.14 923.194C1287.99 923.194 1285.87 918.962 1285.87 914.408C1285.87 909.854 1287.99 905.622 1293.14 905.622ZM1282.01 902.816V935.2H1285.92V923.516H1286.93C1288.17 925.172 1290.34 926.598 1294.02 926.598C1300.41 926.598 1304.18 921.4 1304.18 914.408C1304.18 907.554 1300.41 902.218 1294.02 902.218C1290.34 902.218 1288.08 903.69 1286.79 905.3H1285.78V902.816H1282.01Z" fill="#274867"/>
<path d="M1315.69 902.816V895.824H1311.78V902.816H1307.78V906.22H1311.78V919.514C1311.78 924.436 1314.73 926 1319.74 926H1321.54V922.504H1319.83C1316.71 922.504 1315.69 921.308 1315.69 918.962V906.22H1321.54V902.816H1315.69Z" fill="#274867"/>
<path d="M1332.11 896.79V892.558H1327.97V896.79H1332.11ZM1331.97 902.816H1328.06V926H1331.97V902.816Z" fill="#274867"/>
<path d="M1349.63 902.218C1342.36 902.218 1338.22 907.554 1338.22 914.408C1338.22 921.262 1342.36 926.598 1349.63 926.598C1356.85 926.598 1361.04 921.262 1361.04 914.408C1361.04 907.554 1356.85 902.218 1349.63 902.218ZM1349.63 923.194C1344.48 923.194 1342.13 918.962 1342.13 914.408C1342.13 909.854 1344.48 905.622 1349.63 905.622C1354.73 905.622 1357.13 909.854 1357.13 914.408C1357.13 918.962 1354.73 923.194 1349.63 923.194Z" fill="#274867"/>
<path d="M1387.75 926V911.28C1387.75 905.714 1384.62 902.218 1378.91 902.218C1375.79 902.218 1373.21 903.506 1371.92 905.3H1370.91V902.816H1367.14V926H1371.05V913.442C1371.05 909.348 1373.81 905.714 1377.95 905.714C1381.86 905.714 1383.84 907.83 1383.84 912.108V926H1387.75Z" fill="#274867"/>
<path d="M1401.34 911.556C1398.99 911.188 1397.84 910.498 1397.84 908.704C1397.84 906.726 1399.87 905.622 1402.86 905.622C1405.76 905.622 1407.96 906.634 1408.29 908.842H1412.2C1411.69 904.794 1408.52 902.218 1403.04 902.218C1396.79 902.218 1393.89 905.208 1393.89 909.072C1393.89 912.568 1396.14 914.316 1399.45 914.914L1404.65 915.788C1407.6 916.294 1408.88 917.398 1408.88 919.422C1408.88 921.952 1406.58 923.194 1403.09 923.194C1399.59 923.194 1397.29 921.906 1396.92 919.284H1392.97C1393.47 923.7 1396.69 926.598 1403.27 926.598C1409.53 926.598 1412.79 923.148 1412.79 919.33C1412.79 915.098 1410.22 913.028 1406.17 912.338L1403.55 911.924L1401.34 911.556Z" fill="#274867"/>
<path d="M477.831 1035H480.427L473.578 1015.28H469.381L462.56 1035H465.1L467.144 1028.95H475.787L477.831 1035ZM470.899 1017.82H472.004L475.014 1026.69H467.889L470.899 1017.82Z" fill="#274867"/>
<path d="M491.184 1021.08H490.134C488.118 1021.08 486.793 1021.88 486.103 1022.74H485.495V1021.08H483.23V1035H485.578V1028.04C485.578 1024.98 487.262 1023.29 490.024 1023.29H491.184V1021.08Z" fill="#274867"/>
<path d="M496.746 1017.46V1014.92H494.261V1017.46H496.746ZM496.663 1021.08H494.316V1035H496.663V1021.08Z" fill="#274867"/>
<path d="M504.503 1021.08V1016.88H502.156V1021.08H499.753V1023.13H502.156V1031.11C502.156 1034.06 503.923 1035 506.934 1035H508.011V1032.9H506.989C505.111 1032.9 504.503 1032.18 504.503 1030.77V1023.13H508.011V1021.08H504.503Z" fill="#274867"/>
<path d="M524.243 1035V1026.16C524.243 1022.82 522.365 1020.72 518.968 1020.72C517.09 1020.72 515.571 1021.5 514.826 1022.57H514.218V1014.92H511.871V1035H514.218V1027.46C514.218 1025 515.875 1022.82 518.361 1022.82C520.708 1022.82 521.895 1024.15 521.895 1026.66V1035H524.243Z" fill="#274867"/>
<path d="M543.146 1020.72C541.406 1020.72 540.081 1021.33 539.225 1022.57H538.617C537.871 1021.33 536.629 1020.72 534.944 1020.72C533.177 1020.72 532.1 1021.36 531.409 1022.43H530.802V1021.08H528.537V1035H530.885V1027.3C530.885 1024.78 531.989 1022.82 534.309 1022.82C536.049 1022.82 536.96 1024.01 536.96 1026.3V1035H539.307V1026.85C539.307 1024.51 540.523 1022.82 542.704 1022.82C544.499 1022.82 545.383 1023.95 545.383 1026.25V1035H547.73V1026C547.73 1022.79 546.349 1020.72 543.146 1020.72Z" fill="#274867"/>
<path d="M564.095 1027.21C564.012 1023.79 562.024 1020.72 557.881 1020.72C553.656 1020.72 551.171 1023.62 551.171 1027.9C551.171 1032.18 553.601 1035.36 557.937 1035.36C561.388 1035.36 563.404 1033.54 563.846 1031.16H561.471C561.057 1032.49 559.897 1033.32 557.937 1033.32C555.065 1033.32 553.573 1031.33 553.49 1028.01H564.095V1027.21ZM557.826 1022.77C560.173 1022.77 561.527 1024.29 561.665 1026.05H553.628C553.932 1024.29 555.313 1022.77 557.826 1022.77Z" fill="#274867"/>
<path d="M570.98 1021.08V1016.88H568.633V1021.08H566.23V1023.13H568.633V1031.11C568.633 1034.06 570.4 1035 573.411 1035H574.488V1032.9H573.466C571.588 1032.9 570.98 1032.18 570.98 1030.77V1023.13H574.488V1021.08H570.98Z" fill="#274867"/>
<path d="M580.833 1017.46V1014.92H578.348V1017.46H580.833ZM580.75 1021.08H578.403V1035H580.75V1021.08Z" fill="#274867"/>
<path d="M594.777 1030.8C594.418 1032.35 593.258 1033.32 591.269 1033.32C588.149 1033.32 586.851 1030.77 586.851 1027.99C586.851 1025.22 588.121 1022.77 591.269 1022.77C593.175 1022.77 594.252 1023.71 594.694 1025.11H597.041C596.572 1022.55 594.583 1020.72 591.269 1020.72C586.934 1020.72 584.504 1023.84 584.504 1028.04C584.504 1032.16 586.934 1035.36 591.269 1035.36C594.5 1035.36 596.599 1033.54 597.124 1030.8H594.777Z" fill="#274867"/>
<path d="M603.358 1032.74V1025.91H612.416V1023.65H603.358V1017.55H614.597V1015.28H600.872V1035H615.039V1032.74H603.358Z" fill="#274867"/>
<path d="M627.945 1035H630.596L626.288 1027.79L630.237 1021.08H627.779L624.521 1026.6H623.527L620.323 1021.08H617.838L621.732 1027.88L617.396 1035H619.964L623.499 1029.17H624.493L627.945 1035Z" fill="#274867"/>
<path d="M642.915 1030.8C642.556 1032.35 641.396 1033.32 639.408 1033.32C636.287 1033.32 634.989 1030.77 634.989 1027.99C634.989 1025.22 636.26 1022.77 639.408 1022.77C641.313 1022.77 642.39 1023.71 642.832 1025.11H645.18C644.71 1022.55 642.722 1020.72 639.408 1020.72C635.072 1020.72 632.642 1023.84 632.642 1028.04C632.642 1032.16 635.072 1035.36 639.408 1035.36C642.639 1035.36 644.738 1033.54 645.262 1030.8H642.915Z" fill="#274867"/>
<path d="M660.83 1027.21C660.747 1023.79 658.759 1020.72 654.617 1020.72C650.392 1020.72 647.906 1023.62 647.906 1027.9C647.906 1032.18 650.336 1035.36 654.672 1035.36C658.124 1035.36 660.14 1033.54 660.582 1031.16H658.207C657.793 1032.49 656.633 1033.32 654.672 1033.32C651.8 1033.32 650.309 1031.33 650.226 1028.01H660.83V1027.21ZM654.562 1022.77C656.909 1022.77 658.262 1024.29 658.4 1026.05H650.364C650.668 1024.29 652.049 1022.77 654.562 1022.77Z" fill="#274867"/>
<path d="M671.168 1022.77C673.957 1022.77 675.448 1024.95 675.448 1028.04C675.448 1031.13 673.957 1033.32 671.168 1033.32C668.075 1033.32 666.805 1030.77 666.805 1028.04C666.805 1025.31 668.075 1022.77 671.168 1022.77ZM664.485 1021.08V1040.52H666.832V1033.51H667.44C668.185 1034.5 669.483 1035.36 671.693 1035.36C675.531 1035.36 677.796 1032.24 677.796 1028.04C677.796 1023.93 675.531 1020.72 671.693 1020.72C669.483 1020.72 668.13 1021.61 667.357 1022.57H666.749V1021.08H664.485Z" fill="#274867"/>
<path d="M684.706 1021.08V1016.88H682.359V1021.08H679.956V1023.13H682.359V1031.11C682.359 1034.06 684.126 1035 687.136 1035H688.213V1032.9H687.191C685.313 1032.9 684.706 1032.18 684.706 1030.77V1023.13H688.213V1021.08H684.706Z" fill="#274867"/>
<path d="M694.559 1017.46V1014.92H692.073V1017.46H694.559ZM694.476 1021.08H692.129V1035H694.476V1021.08Z" fill="#274867"/>
<path d="M705.078 1020.72C700.715 1020.72 698.229 1023.93 698.229 1028.04C698.229 1032.16 700.715 1035.36 705.078 1035.36C709.413 1035.36 711.926 1032.16 711.926 1028.04C711.926 1023.93 709.413 1020.72 705.078 1020.72ZM705.078 1033.32C701.985 1033.32 700.576 1030.77 700.576 1028.04C700.576 1025.31 701.985 1022.77 705.078 1022.77C708.143 1022.77 709.579 1025.31 709.579 1028.04C709.579 1030.77 708.143 1033.32 705.078 1033.32Z" fill="#274867"/>
<path d="M727.962 1035V1026.16C727.962 1022.82 726.084 1020.72 722.659 1020.72C720.782 1020.72 719.235 1021.5 718.462 1022.57H717.854V1021.08H715.59V1035H717.937V1027.46C717.937 1025 719.594 1022.82 722.08 1022.82C724.427 1022.82 725.614 1024.09 725.614 1026.66V1035H727.962Z" fill="#274867"/>
<path d="M447.258 1048.28V1064.77H446.65L437.482 1048.28H433.561V1068H435.991V1051.51H436.598L445.767 1068H449.688V1048.28H447.258Z" fill="#274867"/>
<path d="M454.234 1054.08V1062.92C454.234 1066.26 456.112 1068.36 459.537 1068.36C461.414 1068.36 462.961 1067.59 463.734 1066.51H464.342V1068H466.606V1054.08H464.259V1061.62C464.259 1064.13 462.574 1066.26 460.116 1066.26C457.769 1066.26 456.582 1064.99 456.582 1062.42V1054.08H454.234Z" fill="#274867"/>
<path d="M485.73 1053.72C483.991 1053.72 482.665 1054.33 481.809 1055.57H481.201C480.456 1054.33 479.213 1053.72 477.529 1053.72C475.761 1053.72 474.684 1054.36 473.994 1055.43H473.386V1054.08H471.122V1068H473.469V1060.3C473.469 1057.78 474.574 1055.82 476.893 1055.82C478.633 1055.82 479.544 1057.01 479.544 1059.3V1068H481.892V1059.85C481.892 1057.51 483.107 1055.82 485.289 1055.82C487.084 1055.82 487.967 1056.95 487.967 1059.25V1068H490.315V1059C490.315 1055.79 488.934 1053.72 485.73 1053.72Z" fill="#274867"/>
<path d="M501.819 1053.72C499.61 1053.72 498.312 1054.58 497.566 1055.57H496.958V1047.92H494.611V1068H496.876V1066.51H497.483C498.256 1067.48 499.61 1068.36 501.819 1068.36C505.657 1068.36 507.922 1065.16 507.922 1061.04C507.922 1056.84 505.657 1053.72 501.819 1053.72ZM501.294 1066.32C498.201 1066.32 496.931 1063.77 496.931 1061.04C496.931 1058.31 498.201 1055.77 501.294 1055.77C504.083 1055.77 505.575 1057.95 505.575 1061.04C505.575 1064.13 504.083 1066.32 501.294 1066.32Z" fill="#274867"/>
<path d="M523.669 1060.21C523.586 1056.79 521.598 1053.72 517.456 1053.72C513.231 1053.72 510.745 1056.62 510.745 1060.9C510.745 1065.18 513.175 1068.36 517.511 1068.36C520.963 1068.36 522.979 1066.54 523.421 1064.16H521.046C520.632 1065.49 519.472 1066.32 517.511 1066.32C514.639 1066.32 513.148 1064.33 513.065 1061.01H523.669V1060.21ZM517.4 1055.77C519.748 1055.77 521.101 1057.29 521.239 1059.05H513.203C513.507 1057.29 514.887 1055.77 517.4 1055.77Z" fill="#274867"/>
<path d="M535.277 1054.08H534.228C532.212 1054.08 530.886 1054.88 530.196 1055.74H529.588V1054.08H527.324V1068H529.671V1061.04C529.671 1057.98 531.356 1056.29 534.117 1056.29H535.277V1054.08Z" fill="#274867"/>
<path d="M552.383 1050.55V1048.28H538.602V1068H541.088V1059.22H550.229V1056.95H541.088V1050.55H552.383Z" fill="#274867"/>
<path d="M560.581 1053.72C556.218 1053.72 553.733 1056.93 553.733 1061.04C553.733 1065.16 556.218 1068.36 560.581 1068.36C564.917 1068.36 567.43 1065.16 567.43 1061.04C567.43 1056.93 564.917 1053.72 560.581 1053.72ZM560.581 1066.32C557.488 1066.32 556.08 1063.77 556.08 1061.04C556.08 1058.31 557.488 1055.77 560.581 1055.77C563.647 1055.77 565.083 1058.31 565.083 1061.04C565.083 1063.77 563.647 1066.32 560.581 1066.32Z" fill="#274867"/>
<path d="M579.047 1054.08H577.997C575.981 1054.08 574.656 1054.88 573.965 1055.74H573.358V1054.08H571.093V1068H573.441V1061.04C573.441 1057.98 575.125 1056.29 577.887 1056.29H579.047V1054.08Z" fill="#274867"/>
<path d="M596.732 1053.72C594.992 1053.72 593.667 1054.33 592.811 1055.57H592.203C591.458 1054.33 590.215 1053.72 588.53 1053.72C586.763 1053.72 585.686 1054.36 584.995 1055.43H584.388V1054.08H582.123V1068H584.471V1060.3C584.471 1057.78 585.575 1055.82 587.895 1055.82C589.635 1055.82 590.546 1057.01 590.546 1059.3V1068H592.894V1059.85C592.894 1057.51 594.109 1055.82 596.29 1055.82C598.085 1055.82 598.969 1056.95 598.969 1059.25V1068H601.316V1059C601.316 1055.79 599.936 1053.72 596.732 1053.72Z" fill="#274867"/>
<path d="M614.478 1068H616.687V1058.53C616.687 1055.41 614.45 1053.72 610.943 1053.72C607.822 1053.72 605.613 1055.21 605.42 1057.78H607.767C607.877 1056.57 608.927 1055.77 610.998 1055.77C613.428 1055.77 614.395 1056.98 614.395 1058.67V1059.22H609.866C606 1059.22 604.536 1061.59 604.536 1063.83C604.536 1066.21 606.331 1068.36 609.534 1068.36C611.523 1068.36 613.014 1067.61 613.87 1066.54H614.478V1068ZM610.114 1066.32C608.043 1066.32 606.883 1065.32 606.883 1063.75C606.883 1062.09 607.933 1061.1 610.225 1061.1H614.395V1062.37C614.395 1064.58 612.434 1066.32 610.114 1066.32Z" fill="#274867"/>
<path d="M624.216 1054.08V1049.88H621.869V1054.08H619.466V1056.13H621.869V1064.11C621.869 1067.06 623.636 1068 626.646 1068H627.723V1065.9H626.701C624.823 1065.9 624.216 1065.18 624.216 1063.77V1056.13H627.723V1054.08H624.216Z" fill="#274867"/>
<path d="M634.317 1065.74V1058.91H643.375V1056.65H634.317V1050.55H645.557V1048.28H631.832V1068H645.999V1065.74H634.317Z" fill="#274867"/>
<path d="M658.905 1068H661.556L657.248 1060.79L661.197 1054.08H658.739L655.48 1059.6H654.486L651.283 1054.08H648.797L652.691 1060.88L648.356 1068H650.924L654.459 1062.17H655.453L658.905 1068Z" fill="#274867"/>
<path d="M673.875 1063.8C673.516 1065.35 672.356 1066.32 670.368 1066.32C667.247 1066.32 665.949 1063.77 665.949 1060.99C665.949 1058.22 667.219 1055.77 670.368 1055.77C672.273 1055.77 673.35 1056.71 673.792 1058.11H676.139C675.67 1055.55 673.681 1053.72 670.368 1053.72C666.032 1053.72 663.602 1056.84 663.602 1061.04C663.602 1065.16 666.032 1068.36 670.368 1068.36C673.599 1068.36 675.697 1066.54 676.222 1063.8H673.875Z" fill="#274867"/>
<path d="M691.79 1060.21C691.707 1056.79 689.719 1053.72 685.576 1053.72C681.351 1053.72 678.866 1056.62 678.866 1060.9C678.866 1065.18 681.296 1068.36 685.632 1068.36C689.084 1068.36 691.1 1066.54 691.541 1064.16H689.167C688.752 1065.49 687.592 1066.32 685.632 1066.32C682.76 1066.32 681.268 1064.33 681.186 1061.01H691.79V1060.21ZM685.521 1055.77C687.869 1055.77 689.222 1057.29 689.36 1059.05H681.324C681.627 1057.29 683.008 1055.77 685.521 1055.77Z" fill="#274867"/>
<path d="M702.127 1055.77C704.917 1055.77 706.408 1057.95 706.408 1061.04C706.408 1064.13 704.917 1066.32 702.127 1066.32C699.035 1066.32 697.764 1063.77 697.764 1061.04C697.764 1058.31 699.035 1055.77 702.127 1055.77ZM695.445 1054.08V1073.52H697.792V1066.51H698.399C699.145 1067.5 700.443 1068.36 702.652 1068.36C706.491 1068.36 708.755 1065.24 708.755 1061.04C708.755 1056.93 706.491 1053.72 702.652 1053.72C700.443 1053.72 699.09 1054.61 698.317 1055.57H697.709V1054.08H695.445Z" fill="#274867"/>
<path d="M715.666 1054.08V1049.88H713.318V1054.08H710.916V1056.13H713.318V1064.11C713.318 1067.06 715.086 1068 718.096 1068H719.173V1065.9H718.151C716.273 1065.9 715.666 1065.18 715.666 1063.77V1056.13H719.173V1054.08H715.666Z" fill="#274867"/>
<path d="M725.519 1050.46V1047.92H723.033V1050.46H725.519ZM725.436 1054.08H723.088V1068H725.436V1054.08Z" fill="#274867"/>
<path d="M736.038 1053.72C731.674 1053.72 729.189 1056.93 729.189 1061.04C729.189 1065.16 731.674 1068.36 736.038 1068.36C740.373 1068.36 742.886 1065.16 742.886 1061.04C742.886 1056.93 740.373 1053.72 736.038 1053.72ZM736.038 1066.32C732.945 1066.32 731.536 1063.77 731.536 1061.04C731.536 1058.31 732.945 1055.77 736.038 1055.77C739.103 1055.77 740.539 1058.31 740.539 1061.04C740.539 1063.77 739.103 1066.32 736.038 1066.32Z" fill="#274867"/>
<path d="M758.921 1068V1059.16C758.921 1055.82 757.043 1053.72 753.619 1053.72C751.741 1053.72 750.195 1054.5 749.422 1055.57H748.814V1054.08H746.55V1068H748.897V1060.46C748.897 1058 750.554 1055.82 753.039 1055.82C755.387 1055.82 756.574 1057.09 756.574 1059.66V1068H758.921Z" fill="#274867"/>
<path d="M472.891 1082.28V1098.77H472.284L463.115 1082.28H459.194V1102H461.624V1085.51H462.232L471.4 1102H475.322V1082.28H472.891Z" fill="#274867"/>
<path d="M479.868 1088.08V1096.92C479.868 1100.26 481.746 1102.36 485.17 1102.36C487.048 1102.36 488.594 1101.59 489.368 1100.51H489.975V1102H492.24V1088.08H489.892V1095.62C489.892 1098.13 488.208 1100.26 485.75 1100.26C483.403 1100.26 482.215 1098.99 482.215 1096.42V1088.08H479.868Z" fill="#274867"/>
<path d="M496.755 1081.92V1102H499.102V1081.92H496.755Z" fill="#274867"/>
<path d="M503.632 1081.92V1102H505.979V1081.92H503.632Z" fill="#274867"/>
<path d="M510.758 1082.28V1102H513.243V1094.1H519.097C523.405 1094.1 525.78 1091.89 525.78 1088.16C525.78 1084.49 523.405 1082.28 519.097 1082.28H510.758ZM513.243 1091.89V1084.49H518.683C522.052 1084.49 523.267 1085.9 523.267 1088.19C523.267 1090.48 522.052 1091.89 518.683 1091.89H513.243Z" fill="#274867"/>
<path d="M534.624 1087.72C530.261 1087.72 527.776 1090.93 527.776 1095.04C527.776 1099.16 530.261 1102.36 534.624 1102.36C538.96 1102.36 541.473 1099.16 541.473 1095.04C541.473 1090.93 538.96 1087.72 534.624 1087.72ZM534.624 1100.32C531.531 1100.32 530.123 1097.77 530.123 1095.04C530.123 1092.31 531.531 1089.77 534.624 1089.77C537.69 1089.77 539.126 1092.31 539.126 1095.04C539.126 1097.77 537.69 1100.32 534.624 1100.32Z" fill="#274867"/>
<path d="M547.622 1084.46V1081.92H545.136V1084.46H547.622ZM547.539 1088.08H545.192V1102H547.539V1088.08Z" fill="#274867"/>
<path d="M564.52 1102V1093.16C564.52 1089.82 562.642 1087.72 559.218 1087.72C557.34 1087.72 555.793 1088.5 555.02 1089.57H554.413V1088.08H552.148V1102H554.495V1094.46C554.495 1092 556.152 1089.82 558.638 1089.82C560.985 1089.82 562.173 1091.09 562.173 1093.66V1102H564.52Z" fill="#274867"/>
<path d="M572.046 1088.08V1083.88H569.698V1088.08H567.296V1090.13H569.698V1098.11C569.698 1101.06 571.466 1102 574.476 1102H575.553V1099.9H574.531C572.653 1099.9 572.046 1099.18 572.046 1097.77V1090.13H575.553V1088.08H572.046Z" fill="#274867"/>
<path d="M591.265 1094.21C591.183 1090.79 589.194 1087.72 585.052 1087.72C580.827 1087.72 578.341 1090.62 578.341 1094.9C578.341 1099.18 580.771 1102.36 585.107 1102.36C588.559 1102.36 590.575 1100.54 591.017 1098.16H588.642C588.228 1099.49 587.068 1100.32 585.107 1100.32C582.235 1100.32 580.744 1098.33 580.661 1095.01H591.265V1094.21ZM584.997 1089.77C587.344 1089.77 588.697 1091.29 588.835 1093.05H580.799C581.103 1091.29 582.484 1089.77 584.997 1089.77Z" fill="#274867"/>
<path d="M602.873 1088.08H601.824C599.808 1088.08 598.482 1088.88 597.792 1089.74H597.184V1088.08H594.92V1102H597.267V1095.04C597.267 1091.98 598.952 1090.29 601.713 1090.29H602.873V1088.08Z" fill="#274867"/>
<path d="M608.684 1099.74V1092.91H617.742V1090.65H608.684V1084.55H619.923V1082.28H606.199V1102H620.365V1099.74H608.684Z" fill="#274867"/>
<path d="M633.271 1102H635.922L631.614 1094.79L635.563 1088.08H633.106L629.847 1093.6H628.853L625.649 1088.08H623.164L627.058 1094.88L622.722 1102H625.29L628.825 1096.17H629.819L633.271 1102Z" fill="#274867"/>
<path d="M648.241 1097.8C647.882 1099.35 646.722 1100.32 644.734 1100.32C641.614 1100.32 640.316 1097.77 640.316 1094.99C640.316 1092.22 641.586 1089.77 644.734 1089.77C646.64 1089.77 647.717 1090.71 648.159 1092.11H650.506C650.036 1089.55 648.048 1087.72 644.734 1087.72C640.399 1087.72 637.968 1090.84 637.968 1095.04C637.968 1099.16 640.399 1102.36 644.734 1102.36C647.965 1102.36 650.064 1100.54 650.589 1097.8H648.241Z" fill="#274867"/>
<path d="M666.157 1094.21C666.074 1090.79 664.085 1087.72 659.943 1087.72C655.718 1087.72 653.232 1090.62 653.232 1094.9C653.232 1099.18 655.663 1102.36 659.998 1102.36C663.45 1102.36 665.466 1100.54 665.908 1098.16H663.533C663.119 1099.49 661.959 1100.32 659.998 1100.32C657.126 1100.32 655.635 1098.33 655.552 1095.01H666.157V1094.21ZM659.888 1089.77C662.235 1089.77 663.588 1091.29 663.726 1093.05H655.69C655.994 1091.29 657.375 1089.77 659.888 1089.77Z" fill="#274867"/>
<path d="M676.494 1089.77C679.283 1089.77 680.774 1091.95 680.774 1095.04C680.774 1098.13 679.283 1100.32 676.494 1100.32C673.401 1100.32 672.131 1097.77 672.131 1095.04C672.131 1092.31 673.401 1089.77 676.494 1089.77ZM669.811 1088.08V1107.52H672.158V1100.51H672.766C673.512 1101.5 674.81 1102.36 677.019 1102.36C680.857 1102.36 683.122 1099.24 683.122 1095.04C683.122 1090.93 680.857 1087.72 677.019 1087.72C674.81 1087.72 673.456 1088.61 672.683 1089.57H672.076V1088.08H669.811Z" fill="#274867"/>
<path d="M690.032 1088.08V1083.88H687.685V1088.08H685.282V1090.13H687.685V1098.11C687.685 1101.06 689.452 1102 692.462 1102H693.539V1099.9H692.518C690.64 1099.9 690.032 1099.18 690.032 1097.77V1090.13H693.539V1088.08H690.032Z" fill="#274867"/>
<path d="M699.885 1084.46V1081.92H697.4V1084.46H699.885ZM699.802 1088.08H697.455V1102H699.802V1088.08Z" fill="#274867"/>
<path d="M710.404 1087.72C706.041 1087.72 703.555 1090.93 703.555 1095.04C703.555 1099.16 706.041 1102.36 710.404 1102.36C714.74 1102.36 717.253 1099.16 717.253 1095.04C717.253 1090.93 714.74 1087.72 710.404 1087.72ZM710.404 1100.32C707.311 1100.32 705.903 1097.77 705.903 1095.04C705.903 1092.31 707.311 1089.77 710.404 1089.77C713.469 1089.77 714.905 1092.31 714.905 1095.04C714.905 1097.77 713.469 1100.32 710.404 1100.32Z" fill="#274867"/>
<path d="M733.288 1102V1093.16C733.288 1089.82 731.41 1087.72 727.986 1087.72C726.108 1087.72 724.561 1088.5 723.788 1089.57H723.181V1088.08H720.916V1102H723.263V1094.46C723.263 1092 724.92 1089.82 727.406 1089.82C729.753 1089.82 730.941 1091.09 730.941 1093.66V1102H733.288Z" fill="#274867"/>
<path d="M590.318 1135V1131.8H587.446V1135H590.318Z" fill="#274867"/>
<path d="M597.438 1135V1131.8H594.566V1135H597.438Z" fill="#274867"/>
<path d="M604.558 1135V1131.8H601.686V1135H604.558Z" fill="#274867"/>
<path d="M1054.27 726.547V724.283H1040.48V744H1042.97V735.218H1052.11V732.954H1042.97V726.547H1054.27Z" fill="#274867"/>
<path d="M1060.22 726.464V723.924H1057.74V726.464H1060.22ZM1060.14 730.082H1057.79V744H1060.14V730.082Z" fill="#274867"/>
<path d="M1064.75 723.924V744H1067.1V723.924H1064.75Z" fill="#274867"/>
<path d="M1083.7 736.213C1083.61 732.788 1081.62 729.723 1077.48 729.723C1073.26 729.723 1070.77 732.622 1070.77 736.903C1070.77 741.183 1073.2 744.359 1077.54 744.359C1080.99 744.359 1083.01 742.536 1083.45 740.162H1081.07C1080.66 741.487 1079.5 742.316 1077.54 742.316C1074.67 742.316 1073.17 740.327 1073.09 737.013H1083.7V736.213ZM1077.43 731.766C1079.77 731.766 1081.13 733.285 1081.27 735.053H1073.23C1073.53 733.285 1074.91 731.766 1077.43 731.766Z" fill="#274867"/>
<path d="M1101.3 724.283V740.769H1100.69L1091.52 724.283H1087.6V744H1090.03V727.514H1090.64L1099.8 744H1103.73V724.283H1101.3Z" fill="#274867"/>
<path d="M1114.49 729.723C1110.12 729.723 1107.64 732.926 1107.64 737.041C1107.64 741.156 1110.12 744.359 1114.49 744.359C1118.82 744.359 1121.33 741.156 1121.33 737.041C1121.33 732.926 1118.82 729.723 1114.49 729.723ZM1114.49 742.316C1111.39 742.316 1109.98 739.775 1109.98 737.041C1109.98 734.307 1111.39 731.766 1114.49 731.766C1117.55 731.766 1118.99 734.307 1118.99 737.041C1118.99 739.775 1117.55 742.316 1114.49 742.316Z" fill="#274867"/>
<path d="M1128.23 730.082V725.884H1125.88V730.082H1123.48V732.125H1125.88V740.106C1125.88 743.061 1127.65 744 1130.66 744H1131.74V741.901H1130.71C1128.84 741.901 1128.23 741.183 1128.23 739.775V732.125H1131.74V730.082H1128.23Z" fill="#274867"/>
<path d="M1149.63 726.547V724.283H1135.85V744H1138.33V735.218H1147.47V732.954H1138.33V726.547H1149.63Z" fill="#274867"/>
<path d="M1157.82 729.723C1153.46 729.723 1150.98 732.926 1150.98 737.041C1150.98 741.156 1153.46 744.359 1157.82 744.359C1162.16 744.359 1164.67 741.156 1164.67 737.041C1164.67 732.926 1162.16 729.723 1157.82 729.723ZM1157.82 742.316C1154.73 742.316 1153.32 739.775 1153.32 737.041C1153.32 734.307 1154.73 731.766 1157.82 731.766C1160.89 731.766 1162.33 734.307 1162.33 737.041C1162.33 739.775 1160.89 742.316 1157.82 742.316Z" fill="#274867"/>
<path d="M1168.12 730.082V738.919C1168.12 742.26 1169.99 744.359 1173.42 744.359C1175.3 744.359 1176.84 743.586 1177.61 742.509H1178.22V744H1180.49V730.082H1178.14V737.621C1178.14 740.134 1176.46 742.26 1174 742.26C1171.65 742.26 1170.46 740.99 1170.46 738.422V730.082H1168.12Z" fill="#274867"/>
<path d="M1197.37 744V735.163C1197.37 731.822 1195.5 729.723 1192.07 729.723C1190.19 729.723 1188.65 730.496 1187.87 731.573H1187.27V730.082H1185V744H1187.35V736.461C1187.35 734.003 1189.01 731.822 1191.49 731.822C1193.84 731.822 1195.03 733.092 1195.03 735.66V744H1197.37Z" fill="#274867"/>
<path d="M1211.78 723.924V731.573H1211.17C1210.4 730.579 1209.13 729.723 1206.92 729.723C1203.08 729.723 1200.81 732.843 1200.81 737.041C1200.81 741.156 1203.08 744.359 1206.92 744.359C1209.13 744.359 1210.48 743.475 1211.25 742.509H1211.86V744H1214.12V723.924H1211.78ZM1207.44 742.316C1204.65 742.316 1203.16 740.134 1203.16 737.041C1203.16 733.948 1204.65 731.766 1207.44 731.766C1210.53 731.766 1211.8 734.307 1211.8 737.041C1211.8 739.775 1210.53 742.316 1207.44 742.316Z" fill="#274867"/>
<path d="M1221.39 741.736V734.915H1230.45V732.65H1221.39V726.547H1232.63V724.283H1218.91V744H1233.07V741.736H1221.39Z" fill="#274867"/>
<path d="M1245.98 744H1248.63L1244.32 736.792L1248.27 730.082H1245.81L1242.56 735.605H1241.56L1238.36 730.082H1235.87L1239.77 736.875L1235.43 744H1238L1241.53 738.173H1242.53L1245.98 744Z" fill="#274867"/>
<path d="M1260.95 739.803C1260.59 741.349 1259.43 742.316 1257.44 742.316C1254.32 742.316 1253.02 739.775 1253.02 736.986C1253.02 734.224 1254.3 731.766 1257.44 731.766C1259.35 731.766 1260.43 732.705 1260.87 734.114H1263.21C1262.75 731.545 1260.76 729.723 1257.44 729.723C1253.11 729.723 1250.68 732.843 1250.68 737.041C1250.68 741.156 1253.11 744.359 1257.44 744.359C1260.67 744.359 1262.77 742.536 1263.3 739.803H1260.95Z" fill="#274867"/>
<path d="M1278.87 736.213C1278.78 732.788 1276.79 729.723 1272.65 729.723C1268.43 729.723 1265.94 732.622 1265.94 736.903C1265.94 741.183 1268.37 744.359 1272.71 744.359C1276.16 744.359 1278.18 742.536 1278.62 740.162H1276.24C1275.83 741.487 1274.67 742.316 1272.71 742.316C1269.84 742.316 1268.34 740.327 1268.26 737.013H1278.87V736.213ZM1272.6 731.766C1274.94 731.766 1276.3 733.285 1276.44 735.053H1268.4C1268.7 733.285 1270.08 731.766 1272.6 731.766Z" fill="#274867"/>
<path d="M1289.2 731.766C1291.99 731.766 1293.48 733.948 1293.48 737.041C1293.48 740.134 1291.99 742.316 1289.2 742.316C1286.11 742.316 1284.84 739.775 1284.84 737.041C1284.84 734.307 1286.11 731.766 1289.2 731.766ZM1282.52 730.082V749.523H1284.87V742.509H1285.47C1286.22 743.503 1287.52 744.359 1289.73 744.359C1293.57 744.359 1295.83 741.239 1295.83 737.041C1295.83 732.926 1293.57 729.723 1289.73 729.723C1287.52 729.723 1286.17 730.607 1285.39 731.573H1284.78V730.082H1282.52Z" fill="#274867"/>
<path d="M1302.74 730.082V725.884H1300.39V730.082H1297.99V732.125H1300.39V740.106C1300.39 743.061 1302.16 744 1305.17 744H1306.25V741.901H1305.23C1303.35 741.901 1302.74 741.183 1302.74 739.775V732.125H1306.25V730.082H1302.74Z" fill="#274867"/>
<path d="M1312.59 726.464V723.924H1310.11V726.464H1312.59ZM1312.51 730.082H1310.16V744H1312.51V730.082Z" fill="#274867"/>
<path d="M1323.11 729.723C1318.75 729.723 1316.26 732.926 1316.26 737.041C1316.26 741.156 1318.75 744.359 1323.11 744.359C1327.45 744.359 1329.96 741.156 1329.96 737.041C1329.96 732.926 1327.45 729.723 1323.11 729.723ZM1323.11 742.316C1320.02 742.316 1318.61 739.775 1318.61 737.041C1318.61 734.307 1320.02 731.766 1323.11 731.766C1326.18 731.766 1327.61 734.307 1327.61 737.041C1327.61 739.775 1326.18 742.316 1323.11 742.316Z" fill="#274867"/>
<path d="M1346 744V735.163C1346 731.822 1344.12 729.723 1340.69 729.723C1338.82 729.723 1337.27 730.496 1336.5 731.573H1335.89V730.082H1333.63V744H1335.97V736.461C1335.97 734.003 1337.63 731.822 1340.11 731.822C1342.46 731.822 1343.65 733.092 1343.65 735.66V744H1346Z" fill="#274867"/>
<path d="M1115.22 757.283V777H1117.7V757.283H1115.22Z" fill="#274867"/>
<path d="M1131.1 756.924C1125.08 756.924 1121.91 761.48 1121.91 767.141C1121.91 772.803 1125.08 777.359 1131.1 777.359C1137.09 777.359 1140.3 772.803 1140.3 767.141C1140.3 761.48 1137.09 756.924 1131.1 756.924ZM1131.1 775.095C1126.41 775.095 1124.42 771.256 1124.42 767.141C1124.42 763.027 1126.41 759.188 1131.1 759.188C1135.8 759.188 1137.79 763.027 1137.79 767.141C1137.79 771.256 1135.8 775.095 1131.1 775.095Z" fill="#274867"/>
<path d="M1146.83 774.736V767.915H1155.88V765.65H1146.83V759.547H1158.07V757.283H1144.34V777H1158.51V774.736H1146.83Z" fill="#274867"/>
<path d="M1171.41 777H1174.06L1169.76 769.792L1173.7 763.082H1171.25L1167.99 768.605H1166.99L1163.79 763.082H1161.31L1165.2 769.875L1160.86 777H1163.43L1166.97 771.173H1167.96L1171.41 777Z" fill="#274867"/>
<path d="M1186.38 772.803C1186.02 774.349 1184.86 775.316 1182.88 775.316C1179.76 775.316 1178.46 772.775 1178.46 769.986C1178.46 767.224 1179.73 764.766 1182.88 764.766C1184.78 764.766 1185.86 765.705 1186.3 767.114H1188.65C1188.18 764.545 1186.19 762.723 1182.88 762.723C1178.54 762.723 1176.11 765.843 1176.11 770.041C1176.11 774.156 1178.54 777.359 1182.88 777.359C1186.11 777.359 1188.21 775.536 1188.73 772.803H1186.38Z" fill="#274867"/>
<path d="M1204.3 769.213C1204.22 765.788 1202.23 762.723 1198.08 762.723C1193.86 762.723 1191.37 765.622 1191.37 769.903C1191.37 774.183 1193.8 777.359 1198.14 777.359C1201.59 777.359 1203.61 775.536 1204.05 773.162H1201.67C1201.26 774.487 1200.1 775.316 1198.14 775.316C1195.27 775.316 1193.78 773.327 1193.69 770.013H1204.3V769.213ZM1198.03 764.766C1200.38 764.766 1201.73 766.285 1201.87 768.053H1193.83C1194.14 766.285 1195.52 764.766 1198.03 764.766Z" fill="#274867"/>
<path d="M1214.64 764.766C1217.42 764.766 1218.92 766.948 1218.92 770.041C1218.92 773.134 1217.42 775.316 1214.64 775.316C1211.54 775.316 1210.27 772.775 1210.27 770.041C1210.27 767.307 1211.54 764.766 1214.64 764.766ZM1207.95 763.082V782.523H1210.3V775.509H1210.91C1211.65 776.503 1212.95 777.359 1215.16 777.359C1219 777.359 1221.26 774.239 1221.26 770.041C1221.26 765.926 1219 762.723 1215.16 762.723C1212.95 762.723 1211.6 763.607 1210.82 764.573H1210.22V763.082H1207.95Z" fill="#274867"/>
<path d="M1228.17 763.082V758.884H1225.83V763.082H1223.42V765.125H1225.83V773.106C1225.83 776.061 1227.59 777 1230.6 777H1231.68V774.901H1230.66C1228.78 774.901 1228.17 774.183 1228.17 772.775V765.125H1231.68V763.082H1228.17Z" fill="#274867"/>
<path d="M1238.03 759.464V756.924H1235.54V759.464H1238.03ZM1237.94 763.082H1235.6V777H1237.94V763.082Z" fill="#274867"/>
<path d="M1248.55 762.723C1244.18 762.723 1241.7 765.926 1241.7 770.041C1241.7 774.156 1244.18 777.359 1248.55 777.359C1252.88 777.359 1255.39 774.156 1255.39 770.041C1255.39 765.926 1252.88 762.723 1248.55 762.723ZM1248.55 775.316C1245.45 775.316 1244.04 772.775 1244.04 770.041C1244.04 767.307 1245.45 764.766 1248.55 764.766C1251.61 764.766 1253.05 767.307 1253.05 770.041C1253.05 772.775 1251.61 775.316 1248.55 775.316Z" fill="#274867"/>
<path d="M1271.43 777V768.163C1271.43 764.822 1269.55 762.723 1266.13 762.723C1264.25 762.723 1262.7 763.496 1261.93 764.573H1261.32V763.082H1259.06V777H1261.41V769.461C1261.41 767.003 1263.06 764.822 1265.55 764.822C1267.89 764.822 1269.08 766.092 1269.08 768.66V777H1271.43Z" fill="#274867"/>
<path d="M1044.79 791.283V811H1047.28V791.283H1044.79Z" fill="#274867"/>
<path d="M1052.22 790.924V811H1054.57V790.924H1052.22Z" fill="#274867"/>
<path d="M1059.1 790.924V811H1061.45V790.924H1059.1Z" fill="#274867"/>
<path d="M1078.05 803.213C1077.96 799.788 1075.97 796.723 1071.83 796.723C1067.61 796.723 1065.12 799.622 1065.12 803.903C1065.12 808.183 1067.55 811.359 1071.89 811.359C1075.34 811.359 1077.36 809.536 1077.8 807.162H1075.42C1075.01 808.487 1073.85 809.316 1071.89 809.316C1069.02 809.316 1067.52 807.327 1067.44 804.013H1078.05V803.213ZM1071.78 798.766C1074.12 798.766 1075.48 800.285 1075.62 802.053H1067.58C1067.88 800.285 1069.26 798.766 1071.78 798.766Z" fill="#274867"/>
<path d="M1091.89 797.082V798.573H1091.28C1090.54 797.607 1089.21 796.723 1087.03 796.723C1083.19 796.723 1080.84 799.761 1080.84 803.848C1080.84 807.907 1083.19 810.945 1087.03 810.945C1089.13 810.945 1090.45 810.061 1091.2 809.095H1091.81V810.199C1091.81 812.988 1090.51 814.728 1087.64 814.728C1085.54 814.728 1084.1 814.121 1083.69 812.464H1081.37C1081.78 815.225 1084.1 816.717 1087.67 816.717C1091.72 816.717 1094.15 814.204 1094.15 810.31V797.082H1091.89ZM1087.47 808.901C1084.74 808.901 1083.19 806.858 1083.19 803.848C1083.19 800.782 1084.74 798.766 1087.47 798.766C1090.45 798.766 1091.86 801.169 1091.86 803.848C1091.86 806.499 1090.45 808.901 1087.47 808.901Z" fill="#274867"/>
<path d="M1107.55 811H1109.76V801.528C1109.76 798.407 1107.53 796.723 1104.02 796.723C1100.9 796.723 1098.69 798.214 1098.5 800.782H1100.84C1100.95 799.567 1102 798.766 1104.08 798.766C1106.51 798.766 1107.47 799.981 1107.47 801.666V802.218H1102.94C1099.08 802.218 1097.61 804.593 1097.61 806.83C1097.61 809.205 1099.41 811.359 1102.61 811.359C1104.6 811.359 1106.09 810.613 1106.95 809.536H1107.55V811ZM1103.19 809.316C1101.12 809.316 1099.96 808.321 1099.96 806.747C1099.96 805.09 1101.01 804.096 1103.3 804.096H1107.47V805.367C1107.47 807.576 1105.51 809.316 1103.19 809.316Z" fill="#274867"/>
<path d="M1114.06 790.924V811H1116.41V790.924H1114.06Z" fill="#274867"/>
<path d="M1134.5 811H1137.09L1130.25 791.283H1126.05L1119.23 811H1121.77L1123.81 804.952H1132.45L1134.5 811ZM1127.57 793.823H1128.67L1131.68 802.688H1124.56L1127.57 793.823Z" fill="#274867"/>
<path d="M1149.31 806.803C1148.96 808.349 1147.8 809.316 1145.81 809.316C1142.69 809.316 1141.39 806.775 1141.39 803.986C1141.39 801.224 1142.66 798.766 1145.81 798.766C1147.71 798.766 1148.79 799.705 1149.23 801.114H1151.58C1151.11 798.545 1149.12 796.723 1145.81 796.723C1141.47 796.723 1139.04 799.843 1139.04 804.041C1139.04 808.156 1141.47 811.359 1145.81 811.359C1149.04 811.359 1151.14 809.536 1151.66 806.803H1149.31Z" fill="#274867"/>
<path d="M1164.58 806.803C1164.22 808.349 1163.06 809.316 1161.07 809.316C1157.95 809.316 1156.65 806.775 1156.65 803.986C1156.65 801.224 1157.92 798.766 1161.07 798.766C1162.98 798.766 1164.05 799.705 1164.5 801.114H1166.84C1166.37 798.545 1164.39 796.723 1161.07 796.723C1156.74 796.723 1154.31 799.843 1154.31 804.041C1154.31 808.156 1156.74 811.359 1161.07 811.359C1164.3 811.359 1166.4 809.536 1166.93 806.803H1164.58Z" fill="#274867"/>
<path d="M1182.49 803.213C1182.41 799.788 1180.42 796.723 1176.28 796.723C1172.06 796.723 1169.57 799.622 1169.57 803.903C1169.57 808.183 1172 811.359 1176.34 811.359C1179.79 811.359 1181.8 809.536 1182.25 807.162H1179.87C1179.46 808.487 1178.3 809.316 1176.34 809.316C1173.46 809.316 1171.97 807.327 1171.89 804.013H1182.49V803.213ZM1176.23 798.766C1178.57 798.766 1179.93 800.285 1180.06 802.053H1172.03C1172.33 800.285 1173.71 798.766 1176.23 798.766Z" fill="#274867"/>
<path d="M1190.01 802.329C1188.61 802.108 1187.92 801.694 1187.92 800.617C1187.92 799.429 1189.13 798.766 1190.93 798.766C1192.67 798.766 1193.99 799.374 1194.18 800.699H1196.53C1196.23 798.269 1194.32 796.723 1191.04 796.723C1187.28 796.723 1185.54 798.518 1185.54 800.838C1185.54 802.936 1186.89 803.986 1188.88 804.345L1192 804.869C1193.77 805.173 1194.54 805.836 1194.54 807.051C1194.54 808.57 1193.16 809.316 1191.06 809.316C1188.97 809.316 1187.58 808.542 1187.36 806.968H1184.99C1185.29 809.619 1187.23 811.359 1191.17 811.359C1194.93 811.359 1196.89 809.288 1196.89 806.996C1196.89 804.455 1195.34 803.213 1192.91 802.798L1191.34 802.55L1190.01 802.329Z" fill="#274867"/>
<path d="M1204.2 802.329C1202.79 802.108 1202.1 801.694 1202.1 800.617C1202.1 799.429 1203.32 798.766 1205.11 798.766C1206.85 798.766 1208.18 799.374 1208.37 800.699H1210.72C1210.41 798.269 1208.51 796.723 1205.22 796.723C1201.47 796.723 1199.73 798.518 1199.73 800.838C1199.73 802.936 1201.08 803.986 1203.07 804.345L1206.19 804.869C1207.96 805.173 1208.73 805.836 1208.73 807.051C1208.73 808.57 1207.35 809.316 1205.25 809.316C1203.15 809.316 1201.77 808.542 1201.55 806.968H1199.17C1199.48 809.619 1201.41 811.359 1205.36 811.359C1209.12 811.359 1211.08 809.288 1211.08 806.996C1211.08 804.455 1209.53 803.213 1207.1 802.798L1205.53 802.55L1204.2 802.329Z" fill="#274867"/>
<path d="M1217.25 808.736V801.915H1226.31V799.65H1217.25V793.547H1228.49V791.283H1214.77V811H1228.93V808.736H1217.25Z" fill="#274867"/>
<path d="M1241.84 811H1244.49L1240.18 803.792L1244.13 797.082H1241.68L1238.42 802.605H1237.42L1234.22 797.082H1231.73L1235.63 803.875L1231.29 811H1233.86L1237.39 805.173H1238.39L1241.84 811Z" fill="#274867"/>
<path d="M1256.81 806.803C1256.45 808.349 1255.29 809.316 1253.3 809.316C1250.18 809.316 1248.89 806.775 1248.89 803.986C1248.89 801.224 1250.16 798.766 1253.3 798.766C1255.21 798.766 1256.29 799.705 1256.73 801.114H1259.08C1258.61 798.545 1256.62 796.723 1253.3 796.723C1248.97 796.723 1246.54 799.843 1246.54 804.041C1246.54 808.156 1248.97 811.359 1253.3 811.359C1256.53 811.359 1258.63 809.536 1259.16 806.803H1256.81Z" fill="#274867"/>
<path d="M1274.73 803.213C1274.64 799.788 1272.65 796.723 1268.51 796.723C1264.29 796.723 1261.8 799.622 1261.8 803.903C1261.8 808.183 1264.23 811.359 1268.57 811.359C1272.02 811.359 1274.04 809.536 1274.48 807.162H1272.1C1271.69 808.487 1270.53 809.316 1268.57 809.316C1265.7 809.316 1264.2 807.327 1264.12 804.013H1274.73V803.213ZM1268.46 798.766C1270.8 798.766 1272.16 800.285 1272.3 802.053H1264.26C1264.56 800.285 1265.94 798.766 1268.46 798.766Z" fill="#274867"/>
<path d="M1285.06 798.766C1287.85 798.766 1289.34 800.948 1289.34 804.041C1289.34 807.134 1287.85 809.316 1285.06 809.316C1281.97 809.316 1280.7 806.775 1280.7 804.041C1280.7 801.307 1281.97 798.766 1285.06 798.766ZM1278.38 797.082V816.523H1280.73V809.509H1281.34C1282.08 810.503 1283.38 811.359 1285.59 811.359C1289.43 811.359 1291.69 808.239 1291.69 804.041C1291.69 799.926 1289.43 796.723 1285.59 796.723C1283.38 796.723 1282.03 797.607 1281.25 798.573H1280.65V797.082H1278.38Z" fill="#274867"/>
<path d="M1298.6 797.082V792.884H1296.25V797.082H1293.85V799.125H1296.25V807.106C1296.25 810.061 1298.02 811 1301.03 811H1302.11V808.901H1301.09C1299.21 808.901 1298.6 808.183 1298.6 806.775V799.125H1302.11V797.082H1298.6Z" fill="#274867"/>
<path d="M1308.45 793.464V790.924H1305.97V793.464H1308.45ZM1308.37 797.082H1306.02V811H1308.37V797.082Z" fill="#274867"/>
<path d="M1318.97 796.723C1314.61 796.723 1312.12 799.926 1312.12 804.041C1312.12 808.156 1314.61 811.359 1318.97 811.359C1323.31 811.359 1325.82 808.156 1325.82 804.041C1325.82 799.926 1323.31 796.723 1318.97 796.723ZM1318.97 809.316C1315.88 809.316 1314.47 806.775 1314.47 804.041C1314.47 801.307 1315.88 798.766 1318.97 798.766C1322.04 798.766 1323.47 801.307 1323.47 804.041C1323.47 806.775 1322.04 809.316 1318.97 809.316Z" fill="#274867"/>
<path d="M1341.86 811V802.163C1341.86 798.822 1339.98 796.723 1336.56 796.723C1334.68 796.723 1333.13 797.496 1332.36 798.573H1331.75V797.082H1329.49V811H1331.83V803.461C1331.83 801.003 1333.49 798.822 1335.98 798.822C1338.32 798.822 1339.51 800.092 1339.51 802.66V811H1341.86Z" fill="#274867"/>
<path d="M1187.32 844V840.797H1184.45V844H1187.32Z" fill="#274867"/>
<path d="M1194.44 844V840.797H1191.57V844H1194.44Z" fill="#274867"/>
<path d="M1201.56 844V840.797H1198.69V844H1201.56Z" fill="#274867"/>
</svg>
