<svg width="1329" height="944" viewBox="0 0 1329 944" fill="none" xmlns="http://www.w3.org/2000/svg">
<path d="M103.1 0H0V103.1H103.1V0Z" transform="translate(1224.7 118.5)" stroke="#007BFF" stroke-width="2" stroke-miterlimit="10"/>
<path opacity="0.12" d="M550 0H0V189.1H550V0Z" transform="translate(0 73.8)" fill="#007BFF"/>
<path d="M18.5 0H84.7C94.9 0 103.2 8.3 103.2 18.5V84.7C103.2 94.9 94.9 103.2 84.7 103.2H18.5C8.3 103.2 0 94.9 0 84.7V18.5C0.1 8.3 8.3 0 18.5 0Z" transform="translate(68.7 116.7)" fill="#007BFF"/>
<path d="M18.6 0H84.6C94.8 0 103.2 8.3001 103.2 18.6001V84.6001C103.2 94.8001 94.9 103.2 84.6 103.2H18.6C8.39998 103.2 0 94.9001 0 84.6001V18.6001C0 8.3001 8.39998 0 18.6 0Z" transform="translate(223.4 116.7)" fill="#007BFF"/>
<path d="M18.6 0H84.6C94.8 0 103.2 8.3001 103.2 18.6001V84.6001C103.2 94.8001 94.9 103.2 84.6 103.2H18.6C8.40001 103.2 0 94.9001 0 84.6001V18.6001C0 8.3001 8.40001 0 18.6 0Z" transform="translate(378.1 116.7)" fill="#007BFF"/>
<path opacity="0.12" d="M550 0H0V189.1H550V0Z" transform="translate(0 627.2)" fill="#007BFF"/>
<path d="M18.5 0H84.7C94.9 0 103.2 8.3 103.2 18.5V84.7002C103.2 94.9002 94.9 103.2 84.7 103.2H18.5C8.3 103.2 0 94.9002 0 84.7002V18.5C0.1 8.2 8.3 0 18.5 0Z" transform="translate(68.7 668.5)" fill="#007BFF"/>
<path d="M18.6 0H84.6C94.8 0 103.2 8.3001 103.2 18.6001V84.6001C103.2 94.8001 94.9 103.2 84.6 103.2H18.6C8.39998 103.2 0 94.9001 0 84.6001V18.6001C0 8.3001 8.39998 0 18.6 0Z" transform="translate(223.4 668.5)" fill="#007BFF"/>
<path opacity="0.12" d="M550 0H0V189.1H550V0Z" transform="translate(0 355.7)" fill="#007BFF"/>
<path d="M18.5 0H84.7C94.9 0 103.2 8.3 103.2 18.5V84.7C103.2 94.9 94.9 103.2 84.7 103.2H18.5C8.3 103.2 0 94.9 0 84.7V18.5C0.1 8.2 8.3 0 18.5 0Z" transform="translate(68.7 397.8)" fill="#007BFF"/>
<path d="M18.6 0H84.6C94.8 0 103.2 8.29985 103.2 18.5999V84.5999C103.2 94.7999 94.9 103.2 84.6 103.2H18.6C8.39998 103.2 0 94.8999 0 84.5999V18.5999C0 8.29985 8.39998 0 18.6 0Z" transform="translate(223.4 397.8)" fill="#007BFF"/>
<path d="M18.6 0H84.6C94.8 0 103.2 8.29985 103.2 18.5999V84.5999C103.2 94.7999 94.9 103.2 84.6 103.2H18.6C8.40001 103.2 0 94.8999 0 84.5999V18.5999C0 8.29985 8.40001 0 18.6 0Z" transform="translate(378.1 397.8)" fill="#007BFF"/>
<path d="M103.1 0H0V103.1H103.1V0Z" transform="translate(1224.7 238.8)" stroke="#007BFF" stroke-width="2" stroke-miterlimit="10"/>
<path d="M103.1 0H0V103.1H103.1V0Z" transform="translate(1224.7 359.1)" stroke="#007BFF" stroke-width="2" stroke-miterlimit="10"/>
<path d="M103.1 0H0V103.1H103.1V0Z" transform="translate(1224.7 479.4)" stroke="#007BFF" stroke-width="2" stroke-miterlimit="10"/>
<path d="M103.1 0H0V103.1H103.1V0Z" transform="translate(1224.7 599.7)" stroke="#007BFF" stroke-width="2" stroke-miterlimit="10"/>
<path d="M103.1 0H0V103.1H103.1V0Z" transform="translate(1224.7 720.1)" stroke="#007BFF" stroke-width="2" stroke-miterlimit="10"/>
<path d="M103.1 0H0V103.1H103.1V0Z" transform="translate(1224.7 840.4)" stroke="#007BFF" stroke-width="2" stroke-miterlimit="10"/>
<path d="M103.1 0H0V103.1H103.1V0Z" transform="translate(1224.7 1.6001)" stroke="#007BFF" stroke-width="2" stroke-miterlimit="10"/>
<path d="M0 93H280.8V0L408 132.9L280.8 265.8V172.8L0 171.6V93V93Z" transform="translate(619.3 329.3)" fill="#082E51"/>
<path d="M5.59998 5.19995V14.3999H20.4V19.4001H5.59998V33.5999H0V0H24.1V5.09985L5.59998 5.19995Z" transform="translate(687.6 442.8)" fill="white"/>
<path d="M5.30005 0V34.2H0V0H5.30005Z" transform="translate(717.3 442.2)" fill="white"/>
<path d="M16.7 22.2002H15.6C14.1 24.0002 11.9 25 8.59998 25C3.09998 25 0 21.3002 0 17.2002C0 13.4002 2.6 9.2002 9.5 9.2002H16.5V8.5C16.5 5.9 15 4.1001 11.5 4.1001C8.4 4.1001 6.90001 5.3002 6.70001 7.2002H1.40002C1.60002 2.7002 5.59999 0 11.3 0C17.5 0 21.6 2.7001 21.6 8.6001V24.5H16.7V22.2002ZM16.5 14.7002V12.8999H10.4C7.00002 12.8999 5.29999 14.3998 5.29999 16.7998C5.29999 19.1998 7.09998 20.7002 10.1 20.7002C13.7 20.7002 16.5 18.1002 16.5 14.7002Z" transform="translate(728.2 452)" fill="white"/>
<path d="M14.7 7V11.5H9.09998V23.2002C9.09998 25.2002 10.1 26.3999 12.8 26.3999H14.8V31H12.7C7.40001 31 3.79999 29.3999 3.79999 23.8999V11.5H0V7H3.79999V0H9.09998V7H14.7Z" transform="translate(754.4 445.5)" fill="white"/>
<path d="M0 0H8.90002L15.9 14.6001H17L23.9 0H32.9V33.6001H27.5V6.80005H26.4L19.3 21.5H13.6L6.60004 6.80005H5.40002V33.6001H0V0V0Z" transform="translate(775.8 442.9)" fill="white"/>
<path d="M16.7 22.2002H15.6C14.1 24.0002 11.9 25 8.59998 25C3.09998 25 0 21.3002 0 17.2002C0 13.4002 2.6 9.2002 9.5 9.2002H16.5V8.5C16.5 5.9 15 4.1001 11.5 4.1001C8.4 4.1001 6.89995 5.3002 6.69995 7.2002H1.39996C1.59996 2.7002 5.59999 0 11.3 0C17.5 0 21.6 2.7001 21.6 8.6001V24.5H16.7V22.2002ZM16.5 14.7002V12.8999H10.4C6.99996 12.8999 5.29999 14.3998 5.29999 16.7998C5.29999 19.1998 7.09998 20.7002 10.1 20.7002C13.8 20.7002 16.5 18.1002 16.5 14.7002Z" transform="translate(814.6 452)" fill="white"/>
<path d="M5.20001 0.600098V2.90015H6.29999C7.59999 1.30015 9.79999 0 13.3 0C19.8 0 23.6 5.4 23.6 12.5C23.6 19.8 19.7 25.1001 13.3 25.1001C9.79999 25.1001 7.70002 23.9002 6.40002 22.2002H5.29999V33.8999H0V0.600098H5.20001ZM5.20001 12.5C5.20001 16.8 7.19999 20.6001 11.8 20.6001C16.2 20.6001 18.3 17.2 18.3 12.5C18.3 7.9 16.1 4.5 11.8 4.5C7.19999 4.5 5.20001 8.3 5.20001 12.5Z" transform="translate(843.2 451.9)" fill="white"/>
</svg>
