<svg width="1474" height="972" viewBox="0 0 1474 972" fill="none" xmlns="http://www.w3.org/2000/svg">
<g clip-path="url(#clip0)">
<path d="M1547 -25H-41V1012H1547V-25Z" fill="white"/>
<rect x="29" y="488" width="392" height="248" rx="18" fill="white" stroke="#274867" stroke-width="4"/>
<rect x="530" y="351" width="392" height="248" rx="18" fill="white" stroke="#274867" stroke-width="4"/>
<rect x="1096" y="55" width="345" height="205" rx="18" fill="white" stroke="#274867" stroke-width="4"/>
<rect x="1096" y="372" width="345" height="205" rx="18" fill="white" stroke="#274867" stroke-width="4"/>
<rect x="1096" y="689" width="345" height="205" rx="18" fill="white" stroke="#274867" stroke-width="4"/>
<rect x="530" y="669" width="392" height="248" rx="18" fill="white" stroke="#274867" stroke-width="4"/>
<line x1="1095.73" y1="163.999" x2="922.733" y2="463.999" stroke="#274867" stroke-width="4"/>
<line y1="-2" x2="346.308" y2="-2" transform="matrix(-0.499556 -0.866282 -0.866282 0.499556 1094 785)" stroke="#274867" stroke-width="4"/>
<line x1="530.311" y1="791.071" x2="421.311" y2="619.071" stroke="#274867" stroke-width="4"/>
<line x1="529.534" y1="476.284" x2="421.534" y2="605.284" stroke="#274867" stroke-width="4"/>
<line x1="922" y1="472" x2="1094" y2="472" stroke="#274867" stroke-width="4"/>
<path d="M607.388 773.785C604.688 773.2 601.943 772.21 601.943 769.105C601.943 765.73 605.183 763.975 609.053 763.975C613.733 763.975 615.938 765.73 616.703 768.97H620.798C620.078 763.795 615.803 760.285 609.143 760.285C601.898 760.285 597.848 764.2 597.848 769.195C597.848 773.875 600.953 776.395 605.633 777.34C607.208 777.7 610.358 778.285 611.978 778.645C615.128 779.365 617.423 780.67 617.423 784.135C617.423 787.825 614.003 789.895 609.548 789.895C605.138 789.895 601.268 788.41 600.548 784.045H596.453C596.948 789.625 601.853 793.585 609.368 793.585C617.513 793.585 621.518 789.085 621.518 784.045C621.518 778.555 618.278 776.08 613.463 775C611.798 774.64 608.783 774.01 607.388 773.785ZM633.131 770.32V763.48H629.306V770.32H625.391V773.65H629.306V786.655C629.306 791.47 632.186 793 637.091 793H638.846V789.58H637.181C634.121 789.58 633.131 788.41 633.131 786.115V773.65H638.846V770.32H633.131ZM659.581 793H663.181V777.565C663.181 772.48 659.536 769.735 653.821 769.735C648.736 769.735 645.136 772.165 644.821 776.35H648.646C648.826 774.37 650.536 773.065 653.911 773.065C657.871 773.065 659.446 775.045 659.446 777.79V778.69H652.066C645.766 778.69 643.381 782.56 643.381 786.205C643.381 790.075 646.306 793.585 651.526 793.585C654.766 793.585 657.196 792.37 658.591 790.615H659.581V793ZM652.471 790.255C649.096 790.255 647.206 788.635 647.206 786.07C647.206 783.37 648.916 781.75 652.651 781.75H659.446V783.82C659.446 787.42 656.251 790.255 652.471 790.255ZM675.45 770.32V763.48H671.625V770.32H667.71V773.65H671.625V786.655C671.625 791.47 674.505 793 679.41 793H681.165V789.58H679.5C676.44 789.58 675.45 788.41 675.45 786.115V773.65H681.165V770.32H675.45ZM691.506 764.425V760.285H687.456V764.425H691.506ZM691.371 770.32H687.546V793H691.371V770.32ZM714.226 786.16C713.641 788.68 711.751 790.255 708.511 790.255C703.426 790.255 701.311 786.115 701.311 781.57C701.311 777.07 703.381 773.065 708.511 773.065C711.616 773.065 713.371 774.595 714.091 776.89H717.916C717.151 772.705 713.911 769.735 708.511 769.735C701.446 769.735 697.486 774.82 697.486 781.66C697.486 788.365 701.446 793.585 708.511 793.585C713.776 793.585 717.196 790.615 718.051 786.16H714.226ZM756.439 793V778.6C756.439 773.155 753.379 769.735 747.799 769.735C744.739 769.735 742.219 770.995 740.959 772.75H739.969V770.32H736.279V793H740.104V780.715C740.104 776.71 742.804 773.155 746.854 773.155C750.679 773.155 752.614 775.225 752.614 779.41V793H756.439ZM783.102 780.31C782.967 774.73 779.727 769.735 772.977 769.735C766.092 769.735 762.042 774.46 762.042 781.435C762.042 788.41 766.002 793.585 773.067 793.585C778.692 793.585 781.977 790.615 782.697 786.745H778.827C778.152 788.905 776.262 790.255 773.067 790.255C768.387 790.255 765.957 787.015 765.822 781.615H783.102V780.31ZM772.887 773.065C776.712 773.065 778.917 775.54 779.142 778.42H766.047C766.542 775.54 768.792 773.065 772.887 773.065ZM795.357 778.87C793.062 778.51 791.937 777.835 791.937 776.08C791.937 774.145 793.917 773.065 796.842 773.065C799.677 773.065 801.837 774.055 802.152 776.215H805.977C805.482 772.255 802.377 769.735 797.022 769.735C790.902 769.735 788.067 772.66 788.067 776.44C788.067 779.86 790.272 781.57 793.512 782.155L798.597 783.01C801.477 783.505 802.737 784.585 802.737 786.565C802.737 789.04 800.487 790.255 797.067 790.255C793.647 790.255 791.397 788.995 791.037 786.43H787.167C787.662 790.75 790.812 793.585 797.247 793.585C803.367 793.585 806.562 790.21 806.562 786.475C806.562 782.335 804.042 780.31 800.082 779.635L797.517 779.23L795.357 778.87ZM817.437 770.32V763.48H813.612V770.32H809.697V773.65H813.612V786.655C813.612 791.47 816.492 793 821.397 793H823.152V789.58H821.487C818.427 789.58 817.437 788.41 817.437 786.115V773.65H823.152V770.32H817.437ZM848.756 780.31C848.621 774.73 845.381 769.735 838.631 769.735C831.746 769.735 827.696 774.46 827.696 781.435C827.696 788.41 831.656 793.585 838.721 793.585C844.346 793.585 847.631 790.615 848.351 786.745H844.481C843.806 788.905 841.916 790.255 838.721 790.255C834.041 790.255 831.611 787.015 831.476 781.615H848.756V780.31ZM838.541 773.065C842.366 773.065 844.571 775.54 844.796 778.42H831.701C832.196 775.54 834.446 773.065 838.541 773.065ZM871.181 760.285V772.75H870.191C868.931 771.13 866.861 769.735 863.261 769.735C857.006 769.735 853.316 774.82 853.316 781.66C853.316 788.365 857.006 793.585 863.261 793.585C866.861 793.585 869.066 792.145 870.326 790.57H871.316V793H875.006V760.285H871.181ZM864.116 790.255C859.571 790.255 857.141 786.7 857.141 781.66C857.141 776.62 859.571 773.065 864.116 773.065C869.156 773.065 871.226 777.205 871.226 781.66C871.226 786.115 869.156 790.255 864.116 790.255ZM701.856 824.16C701.271 826.68 699.381 828.255 696.141 828.255C691.056 828.255 688.941 824.115 688.941 819.57C688.941 815.07 691.011 811.065 696.141 811.065C699.246 811.065 701.001 812.595 701.721 814.89H705.546C704.781 810.705 701.541 807.735 696.141 807.735C689.076 807.735 685.116 812.82 685.116 819.66C685.116 826.365 689.076 831.585 696.141 831.585C701.406 831.585 704.826 828.615 705.681 824.16H701.856ZM711.384 798.285V831H715.209V798.285H711.384ZM737.035 831H740.635V815.565C740.635 810.48 736.99 807.735 731.275 807.735C726.19 807.735 722.59 810.165 722.275 814.35H726.1C726.28 812.37 727.99 811.065 731.365 811.065C735.325 811.065 736.9 813.045 736.9 815.79V816.69H729.52C723.22 816.69 720.835 820.56 720.835 824.205C720.835 828.075 723.76 831.585 728.98 831.585C732.22 831.585 734.65 830.37 736.045 828.615H737.035V831ZM729.925 828.255C726.55 828.255 724.66 826.635 724.66 824.07C724.66 821.37 726.37 819.75 730.105 819.75H736.9V821.82C736.9 825.42 733.705 828.255 729.925 828.255ZM753.939 816.87C751.644 816.51 750.519 815.835 750.519 814.08C750.519 812.145 752.499 811.065 755.424 811.065C758.259 811.065 760.419 812.055 760.734 814.215H764.559C764.064 810.255 760.959 807.735 755.604 807.735C749.484 807.735 746.649 810.66 746.649 814.44C746.649 817.86 748.854 819.57 752.094 820.155L757.179 821.01C760.059 821.505 761.319 822.585 761.319 824.565C761.319 827.04 759.069 828.255 755.649 828.255C752.229 828.255 749.979 826.995 749.619 824.43H745.749C746.244 828.75 749.394 831.585 755.829 831.585C761.949 831.585 765.144 828.21 765.144 824.475C765.144 820.335 762.624 818.31 758.664 817.635L756.099 817.23L753.939 816.87ZM777.054 816.87C774.759 816.51 773.634 815.835 773.634 814.08C773.634 812.145 775.614 811.065 778.539 811.065C781.374 811.065 783.534 812.055 783.849 814.215H787.674C787.179 810.255 784.074 807.735 778.719 807.735C772.599 807.735 769.764 810.66 769.764 814.44C769.764 817.86 771.969 819.57 775.209 820.155L780.294 821.01C783.174 821.505 784.434 822.585 784.434 824.565C784.434 827.04 782.184 828.255 778.764 828.255C775.344 828.255 773.094 826.995 772.734 824.43H768.864C769.359 828.75 772.509 831.585 778.944 831.585C785.064 831.585 788.259 828.21 788.259 824.475C788.259 820.335 785.739 818.31 781.779 817.635L779.214 817.23L777.054 816.87Z" fill="#007BFF"/>
<path d="M646.811 453.87V480.735H645.821L630.881 453.87H624.491V486H628.451V459.135H629.441L644.381 486H650.771V453.87H646.811ZM668.304 462.735C661.194 462.735 657.144 467.955 657.144 474.66C657.144 481.365 661.194 486.585 668.304 486.585C675.369 486.585 679.464 481.365 679.464 474.66C679.464 467.955 675.369 462.735 668.304 462.735ZM668.304 483.255C663.264 483.255 660.969 479.115 660.969 474.66C660.969 470.205 663.264 466.065 668.304 466.065C673.299 466.065 675.639 470.205 675.639 474.66C675.639 479.115 673.299 483.255 668.304 483.255ZM705.593 486V471.6C705.593 466.155 702.533 462.735 696.953 462.735C693.893 462.735 691.373 463.995 690.113 465.75H689.123V463.32H685.433V486H689.258V473.715C689.258 469.71 691.958 466.155 696.008 466.155C699.833 466.155 701.768 468.225 701.768 472.41V486H705.593ZM723.391 475.2V471.825H711.106V475.2H723.391ZM735.591 471.87C733.296 471.51 732.171 470.835 732.171 469.08C732.171 467.145 734.151 466.065 737.076 466.065C739.911 466.065 742.071 467.055 742.386 469.215H746.211C745.716 465.255 742.611 462.735 737.256 462.735C731.136 462.735 728.301 465.66 728.301 469.44C728.301 472.86 730.506 474.57 733.746 475.155L738.831 476.01C741.711 476.505 742.971 477.585 742.971 479.565C742.971 482.04 740.721 483.255 737.301 483.255C733.881 483.255 731.631 481.995 731.271 479.43H727.401C727.896 483.75 731.046 486.585 737.481 486.585C743.601 486.585 746.796 483.21 746.796 479.475C746.796 475.335 744.276 473.31 740.316 472.635L737.751 472.23L735.591 471.87ZM757.671 463.32V456.48H753.846V463.32H749.931V466.65H753.846V479.655C753.846 484.47 756.726 486 761.631 486H763.386V482.58H761.721C758.661 482.58 757.671 481.41 757.671 479.115V466.65H763.386V463.32H757.671ZM784.121 486H787.721V470.565C787.721 465.48 784.076 462.735 778.361 462.735C773.276 462.735 769.676 465.165 769.361 469.35H773.186C773.366 467.37 775.076 466.065 778.451 466.065C782.411 466.065 783.986 468.045 783.986 470.79V471.69H776.606C770.306 471.69 767.921 475.56 767.921 479.205C767.921 483.075 770.846 486.585 776.066 486.585C779.306 486.585 781.736 485.37 783.131 483.615H784.121V486ZM777.011 483.255C773.636 483.255 771.746 481.635 771.746 479.07C771.746 476.37 773.456 474.75 777.191 474.75H783.986V476.82C783.986 480.42 780.791 483.255 777.011 483.255ZM799.99 463.32V456.48H796.165V463.32H792.25V466.65H796.165V479.655C796.165 484.47 799.045 486 803.95 486H805.705V482.58H804.04C800.98 482.58 799.99 481.41 799.99 479.115V466.65H805.705V463.32H799.99ZM816.046 457.425V453.285H811.996V457.425H816.046ZM815.911 463.32H812.086V486H815.911V463.32ZM838.766 479.16C838.181 481.68 836.291 483.255 833.051 483.255C827.966 483.255 825.851 479.115 825.851 474.57C825.851 470.07 827.921 466.065 833.051 466.065C836.156 466.065 837.911 467.595 838.631 469.89H842.456C841.691 465.705 838.451 462.735 833.051 462.735C825.986 462.735 822.026 467.82 822.026 474.66C822.026 481.365 825.986 486.585 833.051 486.585C838.316 486.585 841.736 483.615 842.591 479.16H838.766Z" fill="#274867"/>
<path d="M1217.52 123.87V156H1221.57V123.87H1217.52ZM1249.79 156V141.6C1249.79 136.155 1246.73 132.735 1241.15 132.735C1238.09 132.735 1235.57 133.995 1234.31 135.75H1233.32V133.32H1229.63V156H1233.45V143.715C1233.45 139.71 1236.15 136.155 1240.2 136.155C1244.03 136.155 1245.96 138.225 1245.96 142.41V156H1249.79ZM1276.95 156V141.6C1276.95 136.155 1273.89 132.735 1268.31 132.735C1265.25 132.735 1262.73 133.995 1261.47 135.75H1260.48V133.32H1256.79V156H1260.61V143.715C1260.61 139.71 1263.31 136.155 1267.36 136.155C1271.19 136.155 1273.12 138.225 1273.12 142.41V156H1276.95ZM1303.61 143.31C1303.48 137.73 1300.24 132.735 1293.49 132.735C1286.6 132.735 1282.55 137.46 1282.55 144.435C1282.55 151.41 1286.51 156.585 1293.58 156.585C1299.2 156.585 1302.49 153.615 1303.21 149.745H1299.34C1298.66 151.905 1296.77 153.255 1293.58 153.255C1288.9 153.255 1286.47 150.015 1286.33 144.615H1303.61V143.31ZM1293.4 136.065C1297.22 136.065 1299.43 138.54 1299.65 141.42H1286.56C1287.05 138.54 1289.3 136.065 1293.4 136.065ZM1322.53 133.32H1320.82C1317.53 133.32 1315.37 134.625 1314.25 136.02H1313.26V133.32H1309.57V156H1313.39V144.66C1313.39 139.665 1316.14 136.92 1320.64 136.92H1322.53V133.32ZM1233.86 187.16C1233.27 189.68 1231.38 191.255 1228.14 191.255C1223.06 191.255 1220.94 187.115 1220.94 182.57C1220.94 178.07 1223.01 174.065 1228.14 174.065C1231.25 174.065 1233 175.595 1233.72 177.89H1237.55C1236.78 173.705 1233.54 170.735 1228.14 170.735C1221.08 170.735 1217.12 175.82 1217.12 182.66C1217.12 189.365 1221.08 194.585 1228.14 194.585C1233.41 194.585 1236.83 191.615 1237.68 187.16H1233.86ZM1243.38 161.285V194H1247.21V161.285H1243.38ZM1269.03 194H1272.63V178.565C1272.63 173.48 1268.99 170.735 1263.27 170.735C1258.19 170.735 1254.59 173.165 1254.27 177.35H1258.1C1258.28 175.37 1259.99 174.065 1263.36 174.065C1267.32 174.065 1268.9 176.045 1268.9 178.79V179.69H1261.52C1255.22 179.69 1252.83 183.56 1252.83 187.205C1252.83 191.075 1255.76 194.585 1260.98 194.585C1264.22 194.585 1266.65 193.37 1268.04 191.615H1269.03V194ZM1261.92 191.255C1258.55 191.255 1256.66 189.635 1256.66 187.07C1256.66 184.37 1258.37 182.75 1262.1 182.75H1268.9V184.82C1268.9 188.42 1265.7 191.255 1261.92 191.255ZM1285.94 179.87C1283.64 179.51 1282.52 178.835 1282.52 177.08C1282.52 175.145 1284.5 174.065 1287.42 174.065C1290.26 174.065 1292.42 175.055 1292.73 177.215H1296.56C1296.06 173.255 1292.96 170.735 1287.6 170.735C1281.48 170.735 1278.65 173.66 1278.65 177.44C1278.65 180.86 1280.85 182.57 1284.09 183.155L1289.18 184.01C1292.06 184.505 1293.32 185.585 1293.32 187.565C1293.32 190.04 1291.07 191.255 1287.65 191.255C1284.23 191.255 1281.98 189.995 1281.62 187.43H1277.75C1278.24 191.75 1281.39 194.585 1287.83 194.585C1293.95 194.585 1297.14 191.21 1297.14 187.475C1297.14 183.335 1294.62 181.31 1290.66 180.635L1288.1 180.23L1285.94 179.87ZM1309.05 179.87C1306.76 179.51 1305.63 178.835 1305.63 177.08C1305.63 175.145 1307.61 174.065 1310.54 174.065C1313.37 174.065 1315.53 175.055 1315.85 177.215H1319.67C1319.18 173.255 1316.07 170.735 1310.72 170.735C1304.6 170.735 1301.76 173.66 1301.76 177.44C1301.76 180.86 1303.97 182.57 1307.21 183.155L1312.29 184.01C1315.17 184.505 1316.43 185.585 1316.43 187.565C1316.43 190.04 1314.18 191.255 1310.76 191.255C1307.34 191.255 1305.09 189.995 1304.73 187.43H1300.86C1301.36 191.75 1304.51 194.585 1310.94 194.585C1317.06 194.585 1320.26 191.21 1320.26 187.475C1320.26 183.335 1317.74 181.31 1313.78 180.635L1311.21 180.23L1309.05 179.87Z" fill="#007BFF"/>
<path d="M1158.36 471.175V442.87H1154.31V475H1176.41V471.175H1158.36ZM1191.36 451.735C1184.25 451.735 1180.2 456.955 1180.2 463.66C1180.2 470.365 1184.25 475.585 1191.36 475.585C1198.42 475.585 1202.52 470.365 1202.52 463.66C1202.52 456.955 1198.42 451.735 1191.36 451.735ZM1191.36 472.255C1186.32 472.255 1184.02 468.115 1184.02 463.66C1184.02 459.205 1186.32 455.065 1191.36 455.065C1196.35 455.065 1198.69 459.205 1198.69 463.66C1198.69 468.115 1196.35 472.255 1191.36 472.255ZM1223.83 468.16C1223.25 470.68 1221.36 472.255 1218.12 472.255C1213.03 472.255 1210.92 468.115 1210.92 463.57C1210.92 459.07 1212.99 455.065 1218.12 455.065C1221.22 455.065 1222.98 456.595 1223.7 458.89H1227.52C1226.76 454.705 1223.52 451.735 1218.12 451.735C1211.05 451.735 1207.09 456.82 1207.09 463.66C1207.09 470.365 1211.05 475.585 1218.12 475.585C1223.38 475.585 1226.8 472.615 1227.66 468.16H1223.83ZM1247.8 475H1251.4V459.565C1251.4 454.48 1247.76 451.735 1242.04 451.735C1236.96 451.735 1233.36 454.165 1233.04 458.35H1236.87C1237.05 456.37 1238.76 455.065 1242.13 455.065C1246.09 455.065 1247.67 457.045 1247.67 459.79V460.69H1240.29C1233.99 460.69 1231.6 464.56 1231.6 468.205C1231.6 472.075 1234.53 475.585 1239.75 475.585C1242.99 475.585 1245.42 474.37 1246.81 472.615H1247.8V475ZM1240.69 472.255C1237.32 472.255 1235.43 470.635 1235.43 468.07C1235.43 465.37 1237.14 463.75 1240.87 463.75H1247.67V465.82C1247.67 469.42 1244.47 472.255 1240.69 472.255ZM1258.41 442.285V475H1262.23V442.285H1258.41ZM1286.19 446.425V442.285H1282.14V446.425H1286.19ZM1286.05 452.32H1282.23V475H1286.05V452.32ZM1313.72 475V460.6C1313.72 455.155 1310.66 451.735 1305.08 451.735C1302.02 451.735 1299.5 452.995 1298.24 454.75H1297.25V452.32H1293.56V475H1297.39V462.715C1297.39 458.71 1300.09 455.155 1304.14 455.155C1307.96 455.155 1309.9 457.225 1309.9 461.41V475H1313.72ZM1340.88 475V460.6C1340.88 455.155 1337.82 451.735 1332.24 451.735C1329.18 451.735 1326.66 452.995 1325.4 454.75H1324.41V452.32H1320.72V475H1324.55V462.715C1324.55 458.71 1327.25 455.155 1331.3 455.155C1335.12 455.155 1337.06 457.225 1337.06 461.41V475H1340.88ZM1367.55 462.31C1367.41 456.73 1364.17 451.735 1357.42 451.735C1350.54 451.735 1346.49 456.46 1346.49 463.435C1346.49 470.41 1350.45 475.585 1357.51 475.585C1363.14 475.585 1366.42 472.615 1367.14 468.745H1363.27C1362.6 470.905 1360.71 472.255 1357.51 472.255C1352.83 472.255 1350.4 469.015 1350.27 463.615H1367.55V462.31ZM1357.33 455.065C1361.16 455.065 1363.36 457.54 1363.59 460.42H1350.49C1350.99 457.54 1353.24 455.065 1357.33 455.065ZM1386.46 452.32H1384.75C1381.47 452.32 1379.31 453.625 1378.18 455.02H1377.19V452.32H1373.5V475H1377.33V463.66C1377.33 458.665 1380.07 455.92 1384.57 455.92H1386.46V452.32ZM1234.36 506.16C1233.77 508.68 1231.88 510.255 1228.64 510.255C1223.56 510.255 1221.44 506.115 1221.44 501.57C1221.44 497.07 1223.51 493.065 1228.64 493.065C1231.75 493.065 1233.5 494.595 1234.22 496.89H1238.05C1237.28 492.705 1234.04 489.735 1228.64 489.735C1221.58 489.735 1217.62 494.82 1217.62 501.66C1217.62 508.365 1221.58 513.585 1228.64 513.585C1233.91 513.585 1237.33 510.615 1238.18 506.16H1234.36ZM1243.88 480.285V513H1247.71V480.285H1243.88ZM1269.53 513H1273.13V497.565C1273.13 492.48 1269.49 489.735 1263.77 489.735C1258.69 489.735 1255.09 492.165 1254.77 496.35H1258.6C1258.78 494.37 1260.49 493.065 1263.86 493.065C1267.82 493.065 1269.4 495.045 1269.4 497.79V498.69H1262.02C1255.72 498.69 1253.33 502.56 1253.33 506.205C1253.33 510.075 1256.26 513.585 1261.48 513.585C1264.72 513.585 1267.15 512.37 1268.54 510.615H1269.53V513ZM1262.42 510.255C1259.05 510.255 1257.16 508.635 1257.16 506.07C1257.16 503.37 1258.87 501.75 1262.6 501.75H1269.4V503.82C1269.4 507.42 1266.2 510.255 1262.42 510.255ZM1286.44 498.87C1284.14 498.51 1283.02 497.835 1283.02 496.08C1283.02 494.145 1285 493.065 1287.92 493.065C1290.76 493.065 1292.92 494.055 1293.23 496.215H1297.06C1296.56 492.255 1293.46 489.735 1288.1 489.735C1281.98 489.735 1279.15 492.66 1279.15 496.44C1279.15 499.86 1281.35 501.57 1284.59 502.155L1289.68 503.01C1292.56 503.505 1293.82 504.585 1293.82 506.565C1293.82 509.04 1291.57 510.255 1288.15 510.255C1284.73 510.255 1282.48 508.995 1282.12 506.43H1278.25C1278.74 510.75 1281.89 513.585 1288.33 513.585C1294.45 513.585 1297.64 510.21 1297.64 506.475C1297.64 502.335 1295.12 500.31 1291.16 499.635L1288.6 499.23L1286.44 498.87ZM1309.55 498.87C1307.26 498.51 1306.13 497.835 1306.13 496.08C1306.13 494.145 1308.11 493.065 1311.04 493.065C1313.87 493.065 1316.03 494.055 1316.35 496.215H1320.17C1319.68 492.255 1316.57 489.735 1311.22 489.735C1305.1 489.735 1302.26 492.66 1302.26 496.44C1302.26 499.86 1304.47 501.57 1307.71 502.155L1312.79 503.01C1315.67 503.505 1316.93 504.585 1316.93 506.565C1316.93 509.04 1314.68 510.255 1311.26 510.255C1307.84 510.255 1305.59 508.995 1305.23 506.43H1301.36C1301.86 510.75 1305.01 513.585 1311.44 513.585C1317.56 513.585 1320.76 510.21 1320.76 506.475C1320.76 502.335 1318.24 500.31 1314.28 499.635L1311.71 499.23L1309.55 498.87Z" fill="#007BFF"/>
<path d="M1172.9 785H1177.13L1165.97 752.87H1159.13L1148.02 785H1152.16L1155.49 775.145H1169.57L1172.9 785ZM1161.61 757.01H1163.41L1168.31 771.455H1156.7L1161.61 757.01ZM1201.86 785V770.6C1201.86 765.155 1198.8 761.735 1193.22 761.735C1190.16 761.735 1187.64 762.995 1186.38 764.75H1185.39V762.32H1181.7V785H1185.53V772.715C1185.53 768.71 1188.23 765.155 1192.28 765.155C1196.1 765.155 1198.04 767.225 1198.04 771.41V785H1201.86ZM1218.63 761.735C1211.52 761.735 1207.47 766.955 1207.47 773.66C1207.47 780.365 1211.52 785.585 1218.63 785.585C1225.69 785.585 1229.79 780.365 1229.79 773.66C1229.79 766.955 1225.69 761.735 1218.63 761.735ZM1218.63 782.255C1213.59 782.255 1211.29 778.115 1211.29 773.66C1211.29 769.205 1213.59 765.065 1218.63 765.065C1223.62 765.065 1225.96 769.205 1225.96 773.66C1225.96 778.115 1223.62 782.255 1218.63 782.255ZM1255.91 785V770.6C1255.91 765.155 1252.85 761.735 1247.27 761.735C1244.21 761.735 1241.69 762.995 1240.43 764.75H1239.44V762.32H1235.75V785H1239.58V772.715C1239.58 768.71 1242.28 765.155 1246.33 765.155C1250.15 765.155 1252.09 767.225 1252.09 771.41V785H1255.91ZM1269.03 794L1282.62 762.32H1278.62L1272.32 777.26H1271.19L1264.26 762.32H1260.17L1269.84 782.885L1265.16 794H1269.03ZM1310.93 761.735C1308.1 761.735 1305.94 762.725 1304.54 764.75H1303.55C1302.34 762.725 1300.31 761.735 1297.57 761.735C1294.69 761.735 1292.93 762.77 1291.81 764.525H1290.82V762.32H1287.13V785H1290.95V772.445C1290.95 768.35 1292.75 765.155 1296.53 765.155C1299.37 765.155 1300.85 767.09 1300.85 770.825V785H1304.68V771.725C1304.68 767.9 1306.66 765.155 1310.21 765.155C1313.14 765.155 1314.58 767 1314.58 770.735V785H1318.4V770.33C1318.4 765.11 1316.15 761.735 1310.93 761.735ZM1335.17 761.735C1328.06 761.735 1324.01 766.955 1324.01 773.66C1324.01 780.365 1328.06 785.585 1335.17 785.585C1342.23 785.585 1346.33 780.365 1346.33 773.66C1346.33 766.955 1342.23 761.735 1335.17 761.735ZM1335.17 782.255C1330.13 782.255 1327.83 778.115 1327.83 773.66C1327.83 769.205 1330.13 765.065 1335.17 765.065C1340.16 765.065 1342.5 769.205 1342.5 773.66C1342.5 778.115 1340.16 782.255 1335.17 782.255ZM1351.94 762.32V776.72C1351.94 782.165 1355 785.585 1360.58 785.585C1363.64 785.585 1366.16 784.325 1367.42 782.57H1368.41V785H1372.1V762.32H1368.27V774.605C1368.27 778.7 1365.53 782.165 1361.52 782.165C1357.7 782.165 1355.76 780.095 1355.76 775.91V762.32H1351.94ZM1385.76 770.87C1383.46 770.51 1382.34 769.835 1382.34 768.08C1382.34 766.145 1384.32 765.065 1387.24 765.065C1390.08 765.065 1392.24 766.055 1392.55 768.215H1396.38C1395.88 764.255 1392.78 761.735 1387.42 761.735C1381.3 761.735 1378.47 764.66 1378.47 768.44C1378.47 771.86 1380.67 773.57 1383.91 774.155L1389 775.01C1391.88 775.505 1393.14 776.585 1393.14 778.565C1393.14 781.04 1390.89 782.255 1387.47 782.255C1384.05 782.255 1381.8 780.995 1381.44 778.43H1377.57C1378.06 782.75 1381.21 785.585 1387.65 785.585C1393.77 785.585 1396.96 782.21 1396.96 778.475C1396.96 774.335 1394.44 772.31 1390.48 771.635L1387.92 771.23L1385.76 770.87ZM1166.13 794.425V790.285H1162.08V794.425H1166.13ZM1166 800.32H1162.17V823H1166V800.32ZM1193.67 823V808.6C1193.67 803.155 1190.61 799.735 1185.03 799.735C1181.97 799.735 1179.45 800.995 1178.19 802.75H1177.2V800.32H1173.51V823H1177.33V810.715C1177.33 806.71 1180.03 803.155 1184.08 803.155C1187.91 803.155 1189.84 805.225 1189.84 809.41V823H1193.67ZM1220.82 823V808.6C1220.82 803.155 1217.76 799.735 1212.18 799.735C1209.12 799.735 1206.6 800.995 1205.34 802.75H1204.35V800.32H1200.66V823H1204.49V810.715C1204.49 806.71 1207.19 803.155 1211.24 803.155C1215.06 803.155 1217 805.225 1217 809.41V823H1220.82ZM1247.49 810.31C1247.35 804.73 1244.11 799.735 1237.36 799.735C1230.48 799.735 1226.43 804.46 1226.43 811.435C1226.43 818.41 1230.39 823.585 1237.45 823.585C1243.08 823.585 1246.36 820.615 1247.08 816.745H1243.21C1242.54 818.905 1240.65 820.255 1237.45 820.255C1232.77 820.255 1230.34 817.015 1230.21 811.615H1247.49V810.31ZM1237.27 803.065C1241.1 803.065 1243.3 805.54 1243.53 808.42H1230.43C1230.93 805.54 1233.18 803.065 1237.27 803.065ZM1266.4 800.32H1264.69C1261.41 800.32 1259.25 801.625 1258.12 803.02H1257.13V800.32H1253.44V823H1257.27V811.66C1257.27 806.665 1260.01 803.92 1264.51 803.92H1266.4V800.32ZM1299.29 816.16C1298.7 818.68 1296.81 820.255 1293.57 820.255C1288.49 820.255 1286.37 816.115 1286.37 811.57C1286.37 807.07 1288.44 803.065 1293.57 803.065C1296.68 803.065 1298.43 804.595 1299.15 806.89H1302.98C1302.21 802.705 1298.97 799.735 1293.57 799.735C1286.51 799.735 1282.55 804.82 1282.55 811.66C1282.55 818.365 1286.51 823.585 1293.57 823.585C1298.84 823.585 1302.26 820.615 1303.11 816.16H1299.29ZM1308.81 790.285V823H1312.64V790.285H1308.81ZM1334.47 823H1338.07V807.565C1338.07 802.48 1334.42 799.735 1328.71 799.735C1323.62 799.735 1320.02 802.165 1319.71 806.35H1323.53C1323.71 804.37 1325.42 803.065 1328.8 803.065C1332.76 803.065 1334.33 805.045 1334.33 807.79V808.69H1326.95C1320.65 808.69 1318.27 812.56 1318.27 816.205C1318.27 820.075 1321.19 823.585 1326.41 823.585C1329.65 823.585 1332.08 822.37 1333.48 820.615H1334.47V823ZM1327.36 820.255C1323.98 820.255 1322.09 818.635 1322.09 816.07C1322.09 813.37 1323.8 811.75 1327.54 811.75H1334.33V813.82C1334.33 817.42 1331.14 820.255 1327.36 820.255ZM1351.37 808.87C1349.07 808.51 1347.95 807.835 1347.95 806.08C1347.95 804.145 1349.93 803.065 1352.85 803.065C1355.69 803.065 1357.85 804.055 1358.16 806.215H1361.99C1361.49 802.255 1358.39 799.735 1353.03 799.735C1346.91 799.735 1344.08 802.66 1344.08 806.44C1344.08 809.86 1346.28 811.57 1349.52 812.155L1354.61 813.01C1357.49 813.505 1358.75 814.585 1358.75 816.565C1358.75 819.04 1356.5 820.255 1353.08 820.255C1349.66 820.255 1347.41 818.995 1347.05 816.43H1343.18C1343.67 820.75 1346.82 823.585 1353.26 823.585C1359.38 823.585 1362.57 820.21 1362.57 816.475C1362.57 812.335 1360.05 810.31 1356.09 809.635L1353.53 809.23L1351.37 808.87ZM1374.48 808.87C1372.19 808.51 1371.06 807.835 1371.06 806.08C1371.06 804.145 1373.04 803.065 1375.97 803.065C1378.8 803.065 1380.96 804.055 1381.28 806.215H1385.1C1384.61 802.255 1381.5 799.735 1376.15 799.735C1370.03 799.735 1367.19 802.66 1367.19 806.44C1367.19 809.86 1369.4 811.57 1372.64 812.155L1377.72 813.01C1380.6 813.505 1381.86 814.585 1381.86 816.565C1381.86 819.04 1379.61 820.255 1376.19 820.255C1372.77 820.255 1370.52 818.995 1370.16 816.43H1366.29C1366.79 820.75 1369.94 823.585 1376.37 823.585C1382.49 823.585 1385.69 820.21 1385.69 816.475C1385.69 812.335 1383.17 810.31 1379.21 809.635L1376.64 809.23L1374.48 808.87Z" fill="#007BFF"/>
<path d="M114.767 588.87V615.735H113.777L98.8371 588.87H92.4471V621H96.4071V594.135H97.3971L112.337 621H118.727V588.87H114.767ZM146.16 608.31C146.025 602.73 142.785 597.735 136.035 597.735C129.15 597.735 125.1 602.46 125.1 609.435C125.1 616.41 129.06 621.585 136.125 621.585C141.75 621.585 145.035 618.615 145.755 614.745H141.885C141.21 616.905 139.32 618.255 136.125 618.255C131.445 618.255 129.015 615.015 128.88 609.615H146.16V608.31ZM135.945 601.065C139.77 601.065 141.975 603.54 142.2 606.42H129.105C129.6 603.54 131.85 601.065 135.945 601.065ZM158.415 606.87C156.12 606.51 154.995 605.835 154.995 604.08C154.995 602.145 156.975 601.065 159.9 601.065C162.735 601.065 164.895 602.055 165.21 604.215H169.035C168.54 600.255 165.435 597.735 160.08 597.735C153.96 597.735 151.125 600.66 151.125 604.44C151.125 607.86 153.33 609.57 156.57 610.155L161.655 611.01C164.535 611.505 165.795 612.585 165.795 614.565C165.795 617.04 163.545 618.255 160.125 618.255C156.705 618.255 154.455 616.995 154.095 614.43H150.225C150.72 618.75 153.87 621.585 160.305 621.585C166.425 621.585 169.62 618.21 169.62 614.475C169.62 610.335 167.1 608.31 163.14 607.635L160.575 607.23L158.415 606.87ZM180.496 598.32V591.48H176.671V598.32H172.756V601.65H176.671V614.655C176.671 619.47 179.551 621 184.456 621H186.211V617.58H184.546C181.486 617.58 180.496 616.41 180.496 614.115V601.65H186.211V598.32H180.496ZM211.814 608.31C211.679 602.73 208.439 597.735 201.689 597.735C194.804 597.735 190.754 602.46 190.754 609.435C190.754 616.41 194.714 621.585 201.779 621.585C207.404 621.585 210.689 618.615 211.409 614.745H207.539C206.864 616.905 204.974 618.255 201.779 618.255C197.099 618.255 194.669 615.015 194.534 609.615H211.814V608.31ZM201.599 601.065C205.424 601.065 207.629 603.54 207.854 606.42H194.759C195.254 603.54 197.504 601.065 201.599 601.065ZM234.24 588.285V600.75H233.25C231.99 599.13 229.92 597.735 226.32 597.735C220.065 597.735 216.375 602.82 216.375 609.66C216.375 616.365 220.065 621.585 226.32 621.585C229.92 621.585 232.125 620.145 233.385 618.57H234.375V621H238.065V588.285H234.24ZM227.175 618.255C222.63 618.255 220.2 614.7 220.2 609.66C220.2 604.62 222.63 601.065 227.175 601.065C232.215 601.065 234.285 605.205 234.285 609.66C234.285 614.115 232.215 618.255 227.175 618.255ZM273.325 614.16C272.74 616.68 270.85 618.255 267.61 618.255C262.525 618.255 260.41 614.115 260.41 609.57C260.41 605.07 262.48 601.065 267.61 601.065C270.715 601.065 272.47 602.595 273.19 604.89H277.015C276.25 600.705 273.01 597.735 267.61 597.735C260.545 597.735 256.585 602.82 256.585 609.66C256.585 616.365 260.545 621.585 267.61 621.585C272.875 621.585 276.295 618.615 277.15 614.16H273.325ZM282.853 588.285V621H286.678V588.285H282.853ZM308.504 621H312.104V605.565C312.104 600.48 308.459 597.735 302.744 597.735C297.659 597.735 294.059 600.165 293.744 604.35H297.569C297.749 602.37 299.459 601.065 302.834 601.065C306.794 601.065 308.369 603.045 308.369 605.79V606.69H300.989C294.689 606.69 292.304 610.56 292.304 614.205C292.304 618.075 295.229 621.585 300.449 621.585C303.689 621.585 306.119 620.37 307.514 618.615H308.504V621ZM301.394 618.255C298.019 618.255 296.129 616.635 296.129 614.07C296.129 611.37 297.839 609.75 301.574 609.75H308.369V611.82C308.369 615.42 305.174 618.255 301.394 618.255ZM325.407 606.87C323.112 606.51 321.987 605.835 321.987 604.08C321.987 602.145 323.967 601.065 326.892 601.065C329.727 601.065 331.887 602.055 332.202 604.215H336.027C335.532 600.255 332.427 597.735 327.072 597.735C320.952 597.735 318.117 600.66 318.117 604.44C318.117 607.86 320.322 609.57 323.562 610.155L328.647 611.01C331.527 611.505 332.787 612.585 332.787 614.565C332.787 617.04 330.537 618.255 327.117 618.255C323.697 618.255 321.447 616.995 321.087 614.43H317.217C317.712 618.75 320.862 621.585 327.297 621.585C333.417 621.585 336.612 618.21 336.612 614.475C336.612 610.335 334.092 608.31 330.132 607.635L327.567 607.23L325.407 606.87ZM348.523 606.87C346.228 606.51 345.103 605.835 345.103 604.08C345.103 602.145 347.083 601.065 350.008 601.065C352.843 601.065 355.003 602.055 355.318 604.215H359.143C358.648 600.255 355.543 597.735 350.188 597.735C344.068 597.735 341.233 600.66 341.233 604.44C341.233 607.86 343.438 609.57 346.678 610.155L351.763 611.01C354.643 611.505 355.903 612.585 355.903 614.565C355.903 617.04 353.653 618.255 350.233 618.255C346.813 618.255 344.563 616.995 344.203 614.43H340.333C340.828 618.75 343.978 621.585 350.413 621.585C356.533 621.585 359.728 618.21 359.728 614.475C359.728 610.335 357.208 608.31 353.248 607.635L350.683 607.23L348.523 606.87Z" fill="#274867"/>
</g>
<defs>
<clipPath id="clip0">
<rect width="1474" height="972" fill="white"/>
</clipPath>
</defs>
</svg>
