<?xml version="1.0" encoding="utf-8"?>
<!-- Generator: Adobe Illustrator 20.1.0, SVG Export Plug-In . SVG Version: 6.00 Build 0)  -->
<svg version="1.1" id="Layer_1" xmlns="http://www.w3.org/2000/svg" xmlns:xlink="http://www.w3.org/1999/xlink" x="0px" y="0px"
	 viewBox="0 0 1600 699.9" style="enable-background:new 0 0 1600 699.9;" xml:space="preserve">
<style type="text/css">
	.st0{opacity:0.12;fill:#007BFF;enable-background:new    ;}
	.st1{fill:#082E51;}
	.st2{fill:none;stroke:#007BFF;stroke-width:2;stroke-miterlimit:10;}
	.st3{fill:#007BFF;}
</style>
<polygon class="st0" points="1204.6,110.8 959.3,188.8 715.4,110.8 959.3,32.8 "/>
<polygon class="st0" points="1569.6,298.8 1324.3,376.8 1080.4,298.8 1324.3,220.8 "/>
<polygon class="st0" points="750.6,264.7 505.3,342.7 261.4,264.7 505.3,186.8 "/>
<polygon class="st0" points="750.6,546.7 505.3,624.7 261.4,546.7 505.3,468.8 "/>
<path class="st0" d="M1398.9,539.1h-150.3c-4.5,0-8.1-3.6-8.1-8.1v-65.5c0-4.5,3.6-8.1,8.1-8.1h150.3c4.5,0,8.1,3.6,8.1,8.1V531
	C1407,535.5,1403.4,539.1,1398.9,539.1z"/>
<path class="st0" d="M1008.9,446.1H858.6c-4.5,0-8.1-3.6-8.1-8.1v-65.5c0-4.5,3.6-8.1,8.1-8.1h150.3c4.5,0,8.1,3.6,8.1,8.1v65.5
	C1017,442.5,1013.4,446.1,1008.9,446.1z"/>
<path class="st0" d="M925.7,668.5H775.4c-4.5,0-8.1-3.6-8.1-8.1V595c0-4.5,3.6-8.1,8.1-8.1h150.3c4.5,0,8.1,3.6,8.1,8.1v65.5
	C933.8,664.9,930.1,668.5,925.7,668.5z"/>
<path class="st0" d="M190.7,668.5H40.4c-4.5,0-8.1-3.6-8.1-8.1V595c0-4.5,3.6-8.1,8.1-8.1h150.3c4.5,0,8.1,3.6,8.1,8.1v65.5
	C198.8,664.9,195.2,668.5,190.7,668.5z"/>
<path class="st0" d="M190.7,386.5H40.4c-4.5,0-8.1-3.6-8.1-8.1V313c0-4.5,3.6-8.1,8.1-8.1h150.3c4.5,0,8.1,3.6,8.1,8.1v65.5
	C198.8,382.9,195.2,386.5,190.7,386.5z"/>
<g>
	<g>
		<path class="st1" d="M647.6,66.1l2.4-5.6L645.1,50h2.1l3.5,7.6h0.6l3.2-7.6h2l-6.9,16.1H647.6z"/>
		<path class="st1" d="M668.5,55.7h-8.8c0.1,2.7,1.3,4.4,3.7,4.4c1.6,0,2.6-0.7,2.9-1.8h2c-0.4,2-2,3.5-4.9,3.5
			c-3.6,0-5.6-2.6-5.6-6.2s2.1-5.9,5.6-5.9c3.4,0,5.1,2.5,5.1,5.4V55.7z M659.9,54.1h6.7c-0.1-1.5-1.2-2.7-3.2-2.7
			C661.3,51.4,660.1,52.6,659.9,54.1z"/>
		<path class="st1" d="M675.9,54.5l1.3,0.2c2,0.3,3.3,1.4,3.3,3.5c0,1.9-1.6,3.6-4.7,3.6c-3.3,0-4.9-1.4-5.1-3.6h2
			c0.2,1.3,1.3,1.9,3.1,1.9c1.7,0,2.9-0.6,2.9-1.9c0-1-0.6-1.6-2.1-1.8l-2.6-0.4c-1.6-0.3-2.8-1.2-2.8-2.9c0-1.9,1.4-3.4,4.6-3.4
			c2.7,0,4.3,1.3,4.6,3.3h-1.9c-0.2-1.1-1.3-1.6-2.7-1.6c-1.5,0-2.5,0.5-2.5,1.5c0,0.9,0.6,1.2,1.7,1.4L675.9,54.5z"/>
	</g>
</g>
<g>
	<g>
		<path class="st1" d="M199.6,217.1l2.4-5.6l-4.9-10.5h2.1l3.5,7.6h0.6l3.2-7.6h2l-6.9,16.1H199.6z"/>
		<path class="st1" d="M220.5,206.7h-8.8c0.1,2.7,1.3,4.4,3.7,4.4c1.6,0,2.6-0.7,2.9-1.8h2c-0.4,2-2,3.5-4.9,3.5
			c-3.6,0-5.6-2.6-5.6-6.2s2.1-5.9,5.6-5.9c3.4,0,5.1,2.5,5.1,5.4V206.7z M211.9,205.1h6.7c-0.1-1.5-1.2-2.7-3.2-2.7
			C213.3,202.4,212.1,203.6,211.9,205.1z"/>
		<path class="st1" d="M227.9,205.5l1.3,0.2c2,0.3,3.3,1.4,3.3,3.5c0,1.9-1.6,3.6-4.7,3.6c-3.3,0-4.9-1.4-5.1-3.6h2
			c0.2,1.3,1.3,1.9,3.1,1.9c1.7,0,2.9-0.6,2.9-1.9c0-1-0.6-1.6-2.1-1.8l-2.6-0.4c-1.6-0.3-2.8-1.2-2.8-2.9c0-1.9,1.4-3.4,4.6-3.4
			c2.7,0,4.3,1.3,4.6,3.3h-1.9c-0.2-1.1-1.3-1.6-2.7-1.6c-1.5,0-2.5,0.5-2.5,1.5c0,0.9,0.6,1.2,1.7,1.4L227.9,205.5z"/>
	</g>
</g>
<g>
	<g>
		<path class="st1" d="M199.6,500.1l2.4-5.6l-4.9-10.5h2.1l3.5,7.6h0.6l3.2-7.6h2l-6.9,16.1H199.6z"/>
		<path class="st1" d="M220.5,489.7h-8.8c0.1,2.7,1.3,4.4,3.7,4.4c1.6,0,2.6-0.7,2.9-1.8h2c-0.4,2-2,3.5-4.9,3.5
			c-3.6,0-5.6-2.6-5.6-6.2s2.1-5.9,5.6-5.9c3.4,0,5.1,2.5,5.1,5.4V489.7z M211.9,488.1h6.7c-0.1-1.5-1.2-2.7-3.2-2.7
			C213.3,485.4,212.1,486.6,211.9,488.1z"/>
		<path class="st1" d="M227.9,488.5l1.3,0.2c2,0.3,3.3,1.4,3.3,3.5c0,1.9-1.6,3.6-4.7,3.6c-3.3,0-4.9-1.4-5.1-3.6h2
			c0.2,1.3,1.3,1.9,3.1,1.9c1.7,0,2.9-0.6,2.9-1.9c0-1-0.6-1.6-2.1-1.8l-2.6-0.4c-1.6-0.3-2.8-1.2-2.8-2.9c0-1.9,1.4-3.4,4.6-3.4
			c2.7,0,4.3,1.3,4.6,3.3h-1.9c-0.2-1.1-1.3-1.6-2.7-1.6c-1.5,0-2.5,0.5-2.5,1.5c0,0.9,0.6,1.2,1.7,1.4L227.9,488.5z"/>
	</g>
</g>
<g>
	<g>
		<path class="st1" d="M1358.6,420.7l2.4-5.6l-4.9-10.5h2.1l3.5,7.6h0.6l3.2-7.6h2l-6.9,16.1H1358.6z"/>
		<path class="st1" d="M1379.5,410.3h-8.8c0.1,2.7,1.3,4.4,3.7,4.4c1.6,0,2.6-0.7,2.9-1.8h2c-0.4,2-2,3.5-4.9,3.5
			c-3.6,0-5.6-2.6-5.6-6.2s2.1-5.9,5.6-5.9c3.4,0,5.1,2.5,5.1,5.4V410.3z M1370.9,408.7h6.7c-0.1-1.5-1.2-2.7-3.2-2.7
			C1372.3,406,1371.1,407.3,1370.9,408.7z"/>
		<path class="st1" d="M1386.9,409.1l1.3,0.2c2,0.3,3.3,1.4,3.3,3.5c0,1.9-1.6,3.6-4.7,3.6c-3.3,0-4.9-1.4-5.1-3.6h2
			c0.2,1.3,1.3,1.9,3.1,1.9s2.9-0.6,2.9-1.9c0-1-0.6-1.6-2.1-1.8l-2.6-0.4c-1.6-0.3-2.8-1.2-2.8-2.9c0-1.9,1.4-3.4,4.6-3.4
			c2.7,0,4.3,1.3,4.6,3.3h-1.9c-0.2-1.1-1.3-1.6-2.7-1.6c-1.5,0-2.5,0.5-2.5,1.5c0,0.9,0.6,1.2,1.7,1.4L1386.9,409.1z"/>
	</g>
</g>
<g>
	<g>
		<path class="st1" d="M1042.4,251.5v-6.9c0-2.1-1-3.2-2.9-3.2c-2.1,0-3.4,1.8-3.4,3.8v6.2h-1.9V240h1.9v1.2h0.5
			c0.6-0.9,1.9-1.5,3.5-1.5c2.8,0,4.4,1.7,4.4,4.5v7.3H1042.4z"/>
		<path class="st1" d="M1058.6,245.7c0,3.4-2.1,6.1-5.7,6.1c-3.6,0-5.7-2.7-5.7-6.1c0-3.4,2.1-6.1,5.7-6.1
			C1056.5,239.7,1058.6,242.3,1058.6,245.7z M1056.6,245.7c0-2.3-1.2-4.4-3.7-4.4c-2.6,0-3.7,2.1-3.7,4.4c0,2.3,1.2,4.4,3.7,4.4
			C1055.5,250.1,1056.6,248,1056.6,245.7z"/>
	</g>
</g>
<g>
	<g>
		<path class="st1" d="M769.4,494.5v-6.9c0-2.1-1-3.2-2.9-3.2c-2.1,0-3.4,1.8-3.4,3.8v6.2h-1.9V483h1.9v1.2h0.5
			c0.6-0.9,1.9-1.5,3.5-1.5c2.8,0,4.4,1.7,4.4,4.5v7.3H769.4z"/>
		<path class="st1" d="M785.6,488.7c0,3.4-2.1,6.1-5.7,6.1c-3.6,0-5.7-2.7-5.7-6.1s2.1-6.1,5.7-6.1
			C783.5,482.7,785.6,485.3,785.6,488.7z M783.6,488.7c0-2.3-1.2-4.4-3.7-4.4c-2.6,0-3.7,2.1-3.7,4.4s1.2,4.4,3.7,4.4
			C782.5,493.1,783.6,491,783.6,488.7z"/>
	</g>
</g>
<g>
	<g>
		<path class="st1" d="M435.4,382.5v-6.9c0-2.1-1-3.2-2.9-3.2c-2.1,0-3.4,1.8-3.4,3.8v6.2h-1.9V371h1.9v1.2h0.5
			c0.6-0.9,1.9-1.5,3.5-1.5c2.8,0,4.4,1.7,4.4,4.5v7.3H435.4z"/>
		<path class="st1" d="M451.6,376.7c0,3.4-2.1,6.1-5.7,6.1c-3.6,0-5.7-2.7-5.7-6.1s2.1-6.1,5.7-6.1
			C449.5,370.7,451.6,373.3,451.6,376.7z M449.6,376.7c0-2.3-1.2-4.4-3.7-4.4c-2.6,0-3.7,2.1-3.7,4.4s1.2,4.4,3.7,4.4
			C448.5,381.1,449.6,379,449.6,376.7z"/>
	</g>
</g>
<g>
	<g>
		<path class="st1" d="M1220.4,60.5v-6.9c0-2.1-1-3.2-2.9-3.2c-2.1,0-3.4,1.8-3.4,3.8v6.2h-1.9V49h1.9v1.2h0.5
			c0.6-0.9,1.9-1.5,3.5-1.5c2.8,0,4.4,1.7,4.4,4.5v7.3H1220.4z"/>
		<path class="st1" d="M1236.6,54.7c0,3.4-2.1,6.1-5.7,6.1c-3.6,0-5.7-2.7-5.7-6.1c0-3.4,2.1-6.1,5.7-6.1
			C1234.5,48.7,1236.6,51.3,1236.6,54.7z M1234.6,54.7c0-2.3-1.2-4.4-3.7-4.4c-2.6,0-3.7,2.1-3.7,4.4c0,2.3,1.2,4.4,3.7,4.4
			C1233.5,59.1,1234.6,57,1234.6,54.7z"/>
	</g>
</g>
<g>
	<g>
		<path class="st1" d="M86.3,343v1.2h0.5c0.6-0.8,1.8-1.5,3.6-1.5c3.2,0,5.1,2.7,5.1,6.1c0,3.5-1.9,6.1-5.1,6.1
			c-1.8,0-2.9-0.7-3.5-1.5h-0.5v5.8h-1.9V343H86.3z M86.3,348.7c0,2.3,1.1,4.4,3.6,4.4c2.3,0,3.5-1.8,3.5-4.4c0-2.6-1.2-4.4-3.5-4.4
			C87.4,344.3,86.3,346.5,86.3,348.7z"/>
		<path class="st1" d="M100.2,343v6.9c0,2.1,1,3.2,2.9,3.2c2,0,3.4-1.8,3.4-3.8V343h1.9v11.5h-1.9v-1.2h-0.5
			c-0.6,0.9-1.9,1.5-3.5,1.5c-2.8,0-4.4-1.7-4.4-4.5V343H100.2z"/>
		<path class="st1" d="M123.3,348.7c0,3.4-1.9,6.1-5.1,6.1c-1.8,0-3-0.7-3.6-1.5h-0.5v1.2h-1.9v-16.6h1.9v6.3h0.5
			c0.6-0.8,1.7-1.5,3.5-1.5C121.4,342.7,123.3,345.2,123.3,348.7z M121.4,348.7c0-2.6-1.2-4.4-3.5-4.4c-2.6,0-3.6,2.1-3.6,4.4
			c0,2.3,1.1,4.4,3.6,4.4C120.1,353.1,121.4,351.3,121.4,348.7z"/>
		<path class="st1" d="M128.3,337.9v16.6h-1.9v-16.6H128.3z"/>
		<path class="st1" d="M132,340v-2.1h2.1v2.1H132z M134,354.5h-1.9V343h1.9V354.5z"/>
		<path class="st1" d="M147.6,351c-0.4,2.3-2.2,3.8-4.8,3.8c-3.6,0-5.6-2.7-5.6-6.1c0-3.5,2-6.1,5.6-6.1c2.7,0,4.4,1.5,4.8,3.6h-1.9
			c-0.4-1.2-1.3-1.9-2.8-1.9c-2.6,0-3.7,2-3.7,4.3c0,2.3,1.1,4.4,3.7,4.4c1.6,0,2.6-0.8,2.9-2.1H147.6z"/>
	</g>
</g>
<g>
	<g>
		<path class="st1" d="M884.1,399v1.2h0.5c0.6-0.8,1.8-1.5,3.6-1.5c3.2,0,5.1,2.7,5.1,6.1c0,3.5-1.9,6.1-5.1,6.1
			c-1.8,0-2.9-0.7-3.5-1.5h-0.5v5.8h-1.9V399H884.1z M884.1,404.7c0,2.3,1.1,4.4,3.6,4.4c2.3,0,3.5-1.8,3.5-4.4
			c0-2.6-1.2-4.4-3.5-4.4C885.2,400.4,884.1,402.5,884.1,404.7z"/>
		<path class="st1" d="M902.9,400.8h-1c-2.3,0-3.7,1.4-3.7,3.9v5.8h-1.9V399h1.9v1.4h0.5c0.6-0.7,1.7-1.4,3.3-1.4h0.9V400.8z"/>
		<path class="st1" d="M916.1,404.7c0,3.4-2.1,6.1-5.7,6.1c-3.6,0-5.7-2.7-5.7-6.1c0-3.4,2.1-6.1,5.7-6.1
			C914,398.7,916.1,401.3,916.1,404.7z M914.1,404.7c0-2.3-1.2-4.4-3.7-4.4c-2.6,0-3.7,2.1-3.7,4.4c0,2.3,1.2,4.4,3.7,4.4
			C912.9,409.1,914.1,407,914.1,404.7z"/>
		<path class="st1" d="M924.7,399v1.7h-2.9v6.3c0,1.2,0.5,1.8,2.1,1.8h0.8v1.7h-0.9c-2.5,0-4-0.8-4-3.2v-6.6h-2V399h2v-3.5h1.9v3.5
			H924.7z"/>
		<path class="st1" d="M937.7,404.7h-8.8c0.1,2.7,1.3,4.4,3.7,4.4c1.6,0,2.6-0.7,2.9-1.8h2c-0.4,2-2,3.5-4.9,3.5
			c-3.6,0-5.6-2.6-5.6-6.2s2.1-5.9,5.6-5.9c3.4,0,5.1,2.5,5.1,5.4V404.7z M929,403.1h6.7c-0.1-1.5-1.2-2.7-3.2-2.7
			C930.4,400.4,929.3,401.6,929,403.1z"/>
		<path class="st1" d="M950.5,407c-0.4,2.3-2.2,3.8-4.8,3.8c-3.6,0-5.6-2.7-5.6-6.1c0-3.5,2-6.1,5.6-6.1c2.7,0,4.4,1.5,4.8,3.6h-1.9
			c-0.4-1.2-1.3-1.9-2.8-1.9c-2.6,0-3.7,2-3.7,4.3c0,2.3,1.1,4.4,3.7,4.4c1.6,0,2.6-0.8,2.9-2.1H950.5z"/>
		<path class="st1" d="M959,399v1.7h-2.9v6.3c0,1.2,0.5,1.8,2.1,1.8h0.8v1.7h-0.9c-2.5,0-4-0.8-4-3.2v-6.6h-2V399h2v-3.5h1.9v3.5
			H959z"/>
		<path class="st1" d="M972,404.7h-8.8c0.1,2.7,1.3,4.4,3.7,4.4c1.6,0,2.6-0.7,2.9-1.8h2c-0.4,2-2,3.5-4.9,3.5
			c-3.6,0-5.6-2.6-5.6-6.2s2.1-5.9,5.6-5.9c3.4,0,5.1,2.5,5.1,5.4V404.7z M963.3,403.1h6.7c-0.1-1.5-1.2-2.7-3.2-2.7
			C964.7,400.4,963.6,401.6,963.3,403.1z"/>
		<path class="st1" d="M985.3,393.9v16.6h-1.9v-1.2h-0.5c-0.6,0.8-1.8,1.5-3.6,1.5c-3.2,0-5.1-2.7-5.1-6.1c0-3.5,1.9-6.1,5.1-6.1
			c1.8,0,2.9,0.7,3.5,1.5h0.5v-6.3H985.3z M983.4,404.7c0-2.3-1.1-4.4-3.6-4.4c-2.3,0-3.5,1.8-3.5,4.4c0,2.6,1.2,4.4,3.5,4.4
			C982.3,409.1,983.4,407,983.4,404.7z"/>
	</g>
</g>
<g>
	<g>
		<path class="st1" d="M796.1,626v1.2h0.5c0.6-0.8,1.8-1.5,3.6-1.5c3.2,0,5.1,2.7,5.1,6.1c0,3.5-1.9,6.1-5.1,6.1
			c-1.8,0-2.9-0.7-3.5-1.5h-0.5v5.8h-1.9V626H796.1z M796.1,631.7c0,2.3,1.1,4.4,3.6,4.4c2.3,0,3.5-1.8,3.5-4.4
			c0-2.6-1.2-4.4-3.5-4.4C797.2,627.4,796.1,629.5,796.1,631.7z"/>
		<path class="st1" d="M814.9,627.8h-1c-2.3,0-3.7,1.4-3.7,3.9v5.8h-1.9V626h1.9v1.4h0.5c0.6-0.7,1.7-1.4,3.3-1.4h0.9V627.8z"/>
		<path class="st1" d="M828.1,631.7c0,3.4-2.1,6.1-5.7,6.1c-3.6,0-5.7-2.7-5.7-6.1c0-3.4,2.1-6.1,5.7-6.1
			C826,625.7,828.1,628.3,828.1,631.7z M826.1,631.7c0-2.3-1.2-4.4-3.7-4.4c-2.6,0-3.7,2.1-3.7,4.4c0,2.3,1.2,4.4,3.7,4.4
			C824.9,636.1,826.1,634,826.1,631.7z"/>
		<path class="st1" d="M836.7,626v1.7h-2.9v6.3c0,1.2,0.5,1.8,2.1,1.8h0.8v1.7h-0.9c-2.5,0-4-0.8-4-3.2v-6.6h-2V626h2v-3.5h1.9v3.5
			H836.7z"/>
		<path class="st1" d="M849.7,631.7h-8.8c0.1,2.7,1.3,4.4,3.7,4.4c1.6,0,2.6-0.7,2.9-1.8h2c-0.4,2-2,3.5-4.9,3.5
			c-3.6,0-5.6-2.6-5.6-6.2c0-3.5,2.1-5.9,5.6-5.9c3.4,0,5.1,2.5,5.1,5.4V631.7z M841,630.1h6.7c-0.1-1.5-1.2-2.7-3.2-2.7
			C842.4,627.4,841.3,628.6,841,630.1z"/>
		<path class="st1" d="M862.5,634c-0.4,2.3-2.2,3.8-4.8,3.8c-3.6,0-5.6-2.7-5.6-6.1c0-3.5,2-6.1,5.6-6.1c2.7,0,4.4,1.5,4.8,3.6h-1.9
			c-0.4-1.2-1.3-1.9-2.8-1.9c-2.6,0-3.7,2-3.7,4.3c0,2.3,1.1,4.4,3.7,4.4c1.6,0,2.6-0.8,2.9-2.1H862.5z"/>
		<path class="st1" d="M871,626v1.7h-2.9v6.3c0,1.2,0.5,1.8,2.1,1.8h0.8v1.7h-0.9c-2.5,0-4-0.8-4-3.2v-6.6h-2V626h2v-3.5h1.9v3.5
			H871z"/>
		<path class="st1" d="M884,631.7h-8.8c0.1,2.7,1.3,4.4,3.7,4.4c1.6,0,2.6-0.7,2.9-1.8h2c-0.4,2-2,3.5-4.9,3.5
			c-3.6,0-5.6-2.6-5.6-6.2c0-3.5,2.1-5.9,5.6-5.9c3.4,0,5.1,2.5,5.1,5.4V631.7z M875.3,630.1h6.7c-0.1-1.5-1.2-2.7-3.2-2.7
			C876.7,627.4,875.6,628.6,875.3,630.1z"/>
		<path class="st1" d="M897.3,620.9v16.6h-1.9v-1.2h-0.5c-0.6,0.8-1.8,1.5-3.6,1.5c-3.2,0-5.1-2.7-5.1-6.1c0-3.5,1.9-6.1,5.1-6.1
			c1.8,0,2.9,0.7,3.5,1.5h0.5v-6.3H897.3z M895.4,631.7c0-2.3-1.1-4.4-3.6-4.4c-2.3,0-3.5,1.8-3.5,4.4c0,2.6,1.2,4.4,3.5,4.4
			C894.3,636.1,895.4,634,895.4,631.7z"/>
	</g>
</g>
<g>
	<g>
		<path class="st1" d="M68.9,609v1.2h0.5c0.6-0.8,1.8-1.5,3.6-1.5c3.2,0,5.1,2.7,5.1,6.1c0,3.5-1.9,6.1-5.1,6.1
			c-1.8,0-2.9-0.7-3.5-1.5H69v5.8h-1.9V609H68.9z M69,614.7c0,2.3,1.1,4.4,3.6,4.4c2.3,0,3.5-1.8,3.5-4.4c0-2.6-1.2-4.4-3.5-4.4
			C70,610.4,69,612.5,69,614.7z"/>
		<path class="st1" d="M88.5,619.3H88c-0.7,0.9-1.9,1.5-3.6,1.5c-2.7,0-4.1-1.8-4.1-3.8c0-1.9,1.2-3.8,4.4-3.8h3.8v-0.5
			c0-1.4-0.8-2.4-2.8-2.4c-1.7,0-2.6,0.7-2.7,1.7H81c0.2-2.1,2-3.4,4.6-3.4c2.9,0,4.8,1.4,4.8,4v7.8h-1.8V619.3z M88.4,615.8v-1.1
			h-3.5c-1.9,0-2.8,0.8-2.8,2.2c0,1.3,1,2.1,2.7,2.1C86.8,619.1,88.4,617.6,88.4,615.8z"/>
		<path class="st1" d="M103.6,617c-0.4,2.3-2.2,3.8-4.8,3.8c-3.6,0-5.6-2.7-5.6-6.1c0-3.5,2-6.1,5.6-6.1c2.7,0,4.4,1.5,4.8,3.6h-1.9
			c-0.4-1.2-1.3-1.9-2.8-1.9c-2.6,0-3.7,2-3.7,4.3c0,2.3,1.1,4.4,3.7,4.4c1.6,0,2.6-0.8,2.9-2.1H103.6z"/>
		<path class="st1" d="M114.9,620.5l-3.3-6.3h-0.5l-2.7,2.9v3.3h-1.9v-16.6h1.9v10.9l5.4-5.8h2.3l-3.3,3.5l4.1,8H114.9z"/>
		<path class="st1" d="M126.5,619.3H126c-0.7,0.9-1.9,1.5-3.6,1.5c-2.7,0-4.1-1.8-4.1-3.8c0-1.9,1.2-3.8,4.4-3.8h3.8v-0.5
			c0-1.4-0.8-2.4-2.8-2.4c-1.7,0-2.6,0.7-2.7,1.7H119c0.2-2.1,2-3.4,4.6-3.4c2.9,0,4.8,1.4,4.8,4v7.8h-1.8V619.3z M126.4,615.8v-1.1
			H123c-1.9,0-2.8,0.8-2.8,2.2c0,1.3,1,2.1,2.7,2.1C124.8,619.1,126.4,617.6,126.4,615.8z"/>
		<path class="st1" d="M142.2,609v11c0,3.2-2,5.3-5.4,5.3c-3,0-4.9-1.2-5.2-3.5h1.9c0.3,1.4,1.5,1.9,3.3,1.9c2.4,0,3.5-1.4,3.5-3.8
			v-0.9h-0.5c-0.6,0.8-1.7,1.5-3.5,1.5c-3.2,0-5.1-2.5-5.1-5.9c0-3.4,1.9-5.9,5.1-5.9c1.8,0,2.9,0.7,3.5,1.5h0.5V609H142.2z
			 M140.3,614.6c0-2.2-1.2-4.2-3.6-4.2c-2.3,0-3.5,1.7-3.5,4.2c0,2.5,1.3,4.2,3.5,4.2C139.2,618.7,140.3,616.8,140.3,614.6z"/>
		<path class="st1" d="M156,614.7h-8.8c0.1,2.7,1.3,4.4,3.7,4.4c1.6,0,2.6-0.7,2.9-1.8h2c-0.4,2-2,3.5-4.9,3.5
			c-3.6,0-5.6-2.6-5.6-6.2c0-3.5,2.1-5.9,5.6-5.9c3.4,0,5.1,2.5,5.1,5.4V614.7z M147.3,613.1h6.7c-0.1-1.5-1.2-2.7-3.2-2.7
			C148.7,610.4,147.6,611.6,147.3,613.1z"/>
		<path class="st1" d="M158.6,615v-1.7h6.2v1.7H158.6z"/>
		<path class="st1" d="M81.6,636.4v1.2h0.5c0.6-0.8,1.8-1.5,3.6-1.5c3.2,0,5.1,2.7,5.1,6.1c0,3.5-1.9,6.1-5.1,6.1
			c-1.8,0-2.9-0.7-3.5-1.5h-0.5v5.8h-1.9v-16.1H81.6z M81.6,642.2c0,2.3,1.1,4.4,3.6,4.4c2.3,0,3.5-1.8,3.5-4.4
			c0-2.6-1.2-4.4-3.5-4.4C82.7,637.8,81.6,639.9,81.6,642.2z"/>
		<path class="st1" d="M100.4,638.2h-1c-2.3,0-3.7,1.4-3.7,3.9v5.8h-1.9v-11.5h1.9v1.4h0.5c0.6-0.7,1.7-1.4,3.3-1.4h0.9V638.2z"/>
		<path class="st1" d="M102.9,633.4v-2.1h2.1v2.1H102.9z M104.9,647.9h-1.9v-11.5h1.9V647.9z"/>
		<path class="st1" d="M107.3,636.4h2l3.2,9.7h0.9l3.1-9.7h2l-3.9,11.5h-3.6L107.3,636.4z"/>
		<path class="st1" d="M128.2,646.7h-0.5c-0.7,0.9-1.9,1.5-3.6,1.5c-2.7,0-4.1-1.8-4.1-3.8c0-1.9,1.2-3.8,4.4-3.8h3.8v-0.5
			c0-1.4-0.8-2.4-2.8-2.4c-1.7,0-2.6,0.7-2.7,1.7h-1.9c0.2-2.1,2-3.4,4.6-3.4c2.9,0,4.8,1.4,4.8,4v7.8h-1.8V646.7z M128.1,643.3
			v-1.1h-3.5c-1.9,0-2.8,0.8-2.8,2.2c0,1.3,1,2.1,2.7,2.1C126.5,646.5,128.1,645.1,128.1,643.3z"/>
		<path class="st1" d="M139.1,636.4v1.7h-2.9v6.3c0,1.2,0.5,1.8,2.1,1.8h0.8v1.7h-0.9c-2.5,0-4-0.8-4-3.2v-6.6h-2v-1.7h2v-3.5h1.9
			v3.5H139.1z"/>
		<path class="st1" d="M152.2,642.2h-8.8c0.1,2.7,1.3,4.4,3.7,4.4c1.6,0,2.6-0.7,2.9-1.8h2c-0.4,2-2,3.5-4.9,3.5
			c-3.6,0-5.6-2.6-5.6-6.2c0-3.5,2.1-5.9,5.6-5.9c3.4,0,5.1,2.5,5.1,5.4V642.2z M143.5,640.5h6.7c-0.1-1.5-1.2-2.7-3.2-2.7
			C144.9,637.8,143.7,639.1,143.5,640.5z"/>
	</g>
</g>
<g>
	<g>
		<path class="st1" d="M1291,494v1.2h0.5c0.6-0.8,1.8-1.5,3.6-1.5c3.2,0,5.1,2.7,5.1,6.1c0,3.5-1.9,6.1-5.1,6.1
			c-1.8,0-2.9-0.7-3.5-1.5h-0.5v5.8h-1.9V494H1291z M1291.1,499.7c0,2.3,1.1,4.4,3.6,4.4c2.3,0,3.5-1.8,3.5-4.4
			c0-2.6-1.2-4.4-3.5-4.4C1292.1,495.4,1291.1,497.5,1291.1,499.7z"/>
		<path class="st1" d="M1309.8,495.8h-1c-2.3,0-3.7,1.4-3.7,3.9v5.8h-1.9V494h1.9v1.4h0.5c0.6-0.7,1.7-1.4,3.3-1.4h0.9V495.8z"/>
		<path class="st1" d="M1312.3,491v-2.1h2.1v2.1H1312.3z M1314.3,505.5h-1.9V494h1.9V505.5z"/>
		<path class="st1" d="M1316.8,494h2l3.2,9.7h0.9l3.1-9.7h2l-3.9,11.5h-3.6L1316.8,494z"/>
		<path class="st1" d="M1337.6,504.3h-0.5c-0.7,0.9-1.9,1.5-3.6,1.5c-2.7,0-4.1-1.8-4.1-3.8c0-1.9,1.2-3.8,4.4-3.8h3.8v-0.5
			c0-1.4-0.8-2.4-2.8-2.4c-1.7,0-2.6,0.7-2.7,1.7h-1.9c0.2-2.1,2-3.4,4.6-3.4c2.9,0,4.8,1.4,4.8,4v7.8h-1.8V504.3z M1337.5,500.8
			v-1.1h-3.5c-1.9,0-2.8,0.8-2.8,2.2c0,1.3,1,2.1,2.7,2.1C1335.9,504.1,1337.5,502.6,1337.5,500.8z"/>
		<path class="st1" d="M1348.6,494v1.7h-2.9v6.3c0,1.2,0.5,1.8,2.1,1.8h0.8v1.7h-0.9c-2.5,0-4-0.8-4-3.2v-6.6h-2V494h2v-3.5h1.9v3.5
			H1348.6z"/>
		<path class="st1" d="M1361.6,499.7h-8.8c0.1,2.7,1.3,4.4,3.7,4.4c1.6,0,2.6-0.7,2.9-1.8h2c-0.4,2-2,3.5-4.9,3.5
			c-3.6,0-5.6-2.6-5.6-6.2s2.1-5.9,5.6-5.9c3.4,0,5.1,2.5,5.1,5.4V499.7z M1352.9,498.1h6.7c-0.1-1.5-1.2-2.7-3.2-2.7
			C1354.3,495.4,1353.2,496.6,1352.9,498.1z"/>
	</g>
</g>
<g>
	<path class="st1" d="M368.7,524.4v16.3h-2.1v-16.3H368.7z"/>
	<path class="st1" d="M377.1,533.7l1.3,0.2c2,0.3,3.3,1.4,3.3,3.5c0,1.9-1.6,3.6-4.7,3.6c-3.3,0-4.9-1.4-5.1-3.6h2
		c0.2,1.3,1.3,1.9,3.1,1.9c1.7,0,2.9-0.6,2.9-1.9c0-1-0.6-1.6-2.1-1.8l-2.6-0.4c-1.6-0.3-2.8-1.2-2.8-2.9c0-1.9,1.4-3.4,4.6-3.4
		c2.7,0,4.3,1.3,4.6,3.3h-1.9c-0.2-1.1-1.3-1.6-2.7-1.6c-1.5,0-2.5,0.5-2.5,1.5c0,0.9,0.6,1.2,1.7,1.4L377.1,533.7z"/>
	<path class="st1" d="M390.9,526.2v-2.1h2.1v2.1H390.9z M392.9,540.7H391v-11.5h1.9V540.7z"/>
	<path class="st1" d="M402.3,529.2v1.7h-2.9v6.3c0,1.2,0.5,1.8,2.1,1.8h0.8v1.7h-0.9c-2.5,0-4-0.8-4-3.2v-6.6h-2v-1.7h2v-3.5h1.9
		v3.5H402.3z"/>
	<path class="st1" d="M427.8,533.2v7.5h-1.9v-7.3c0-1.9-0.7-2.8-2.2-2.8c-1.8,0-2.8,1.4-2.8,3.3v6.7h-1.9v-7.2
		c0-1.9-0.8-2.9-2.2-2.9c-1.9,0-2.8,1.6-2.8,3.7v6.4h-1.9v-11.5h1.9v1.1h0.5c0.6-0.9,1.5-1.4,2.9-1.4c1.4,0,2.4,0.5,3,1.5h0.5
		c0.7-1,1.8-1.5,3.2-1.5C426.6,528.9,427.8,530.6,427.8,533.2z"/>
	<path class="st1" d="M441.3,534.9h-8.8c0.1,2.7,1.3,4.4,3.7,4.4c1.6,0,2.6-0.7,2.9-1.8h2c-0.4,2-2,3.5-4.9,3.5
		c-3.6,0-5.6-2.6-5.6-6.2s2.1-5.9,5.6-5.9c3.4,0,5.1,2.5,5.1,5.4V534.9z M432.7,533.3h6.7c-0.1-1.5-1.2-2.7-3.2-2.7
		C434.1,530.5,432.9,531.8,432.7,533.3z"/>
	<path class="st1" d="M451.7,539.5h-0.5c-0.7,0.9-1.9,1.5-3.6,1.5c-2.7,0-4.1-1.8-4.1-3.8c0-1.9,1.2-3.8,4.4-3.8h3.8V533
		c0-1.4-0.8-2.4-2.8-2.4c-1.7,0-2.6,0.7-2.7,1.7h-1.9c0.2-2.1,2-3.4,4.6-3.4c2.9,0,4.8,1.4,4.8,4v7.8h-1.8V539.5z M451.6,536V535
		h-3.5c-1.9,0-2.8,0.8-2.8,2.2c0,1.3,1,2.1,2.7,2.1C450,539.3,451.6,537.8,451.6,536z"/>
	<path class="st1" d="M465.4,540.7v-6.9c0-2.1-1-3.2-2.9-3.2c-2.1,0-3.4,1.8-3.4,3.8v6.2h-1.9v-11.5h1.9v1.2h0.5
		c0.6-0.9,1.9-1.5,3.5-1.5c2.8,0,4.4,1.7,4.4,4.5v7.3H465.4z"/>
	<path class="st1" d="M476.5,529.2v1.7h-2.9v6.3c0,1.2,0.5,1.8,2.1,1.8h0.8v1.7h-0.9c-2.5,0-4-0.8-4-3.2v-6.6h-2v-1.7h2v-3.5h1.9
		v3.5H476.5z"/>
	<path class="st1" d="M491.7,529.2v1.7h-2.9v6.3c0,1.2,0.5,1.8,2.1,1.8h0.8v1.7h-0.9c-2.5,0-4-0.8-4-3.2v-6.6h-2v-1.7h2v-3.5h1.9
		v3.5H491.7z"/>
	<path class="st1" d="M505.3,534.9c0,3.4-2.1,6.1-5.7,6.1c-3.6,0-5.7-2.7-5.7-6.1c0-3.4,2.1-6.1,5.7-6.1
		C503.2,528.9,505.3,531.5,505.3,534.9z M503.4,534.9c0-2.3-1.2-4.4-3.7-4.4c-2.6,0-3.7,2.1-3.7,4.4c0,2.3,1.2,4.4,3.7,4.4
		C502.2,539.3,503.4,537.2,503.4,534.9z"/>
	<path class="st1" d="M525.7,534.9c0,3.4-1.9,6.1-5.1,6.1c-1.8,0-3-0.7-3.6-1.5h-0.5v1.2h-1.9v-16.6h1.9v6.3h0.5
		c0.6-0.8,1.7-1.5,3.5-1.5C523.9,528.9,525.7,531.4,525.7,534.9z M523.8,534.9c0-2.6-1.2-4.4-3.5-4.4c-2.6,0-3.6,2.1-3.6,4.4
		c0,2.3,1.1,4.4,3.6,4.4C522.6,539.3,523.8,537.5,523.8,534.9z"/>
	<path class="st1" d="M538.8,534.9H530c0.1,2.7,1.3,4.4,3.7,4.4c1.6,0,2.6-0.7,2.9-1.8h2c-0.4,2-2,3.5-4.9,3.5
		c-3.6,0-5.6-2.6-5.6-6.2s2.1-5.9,5.6-5.9c3.4,0,5.1,2.5,5.1,5.4V534.9z M530.1,533.3h6.7c-0.1-1.5-1.2-2.7-3.2-2.7
		C531.5,530.5,530.4,531.8,530.1,533.3z"/>
	<path class="st1" d="M549.9,529.2v6.9c0,2.1,1,3.2,2.9,3.2c2,0,3.4-1.8,3.4-3.8v-6.2h1.9v11.5h-1.9v-1.2h-0.5
		c-0.6,0.9-1.9,1.5-3.5,1.5c-2.8,0-4.4-1.7-4.4-4.5v-7.3H549.9z"/>
	<path class="st1" d="M566.3,533.7l1.3,0.2c2,0.3,3.3,1.4,3.3,3.5c0,1.9-1.6,3.6-4.7,3.6c-3.3,0-4.9-1.4-5.1-3.6h2
		c0.2,1.3,1.3,1.9,3.1,1.9s2.9-0.6,2.9-1.9c0-1-0.6-1.6-2.1-1.8l-2.6-0.4c-1.6-0.3-2.8-1.2-2.8-2.9c0-1.9,1.4-3.4,4.6-3.4
		c2.7,0,4.3,1.3,4.6,3.3h-1.9c-0.2-1.1-1.3-1.6-2.7-1.6c-1.5,0-2.5,0.5-2.5,1.5c0,0.9,0.6,1.2,1.7,1.4L566.3,533.7z"/>
	<path class="st1" d="M583.7,534.9H575c0.1,2.7,1.3,4.4,3.7,4.4c1.6,0,2.6-0.7,2.9-1.8h2c-0.4,2-2,3.5-4.9,3.5
		c-3.6,0-5.6-2.6-5.6-6.2s2.1-5.9,5.6-5.9c3.4,0,5.1,2.5,5.1,5.4V534.9z M575.1,533.3h6.7c-0.1-1.5-1.2-2.7-3.2-2.7
		C576.5,530.5,575.3,531.8,575.1,533.3z"/>
	<path class="st1" d="M597.1,524.1v16.6h-1.9v-1.2h-0.5c-0.6,0.8-1.8,1.5-3.6,1.5c-3.2,0-5.1-2.7-5.1-6.1c0-3.5,1.9-6.1,5.1-6.1
		c1.8,0,2.9,0.7,3.5,1.5h0.5v-6.3H597.1z M595.2,534.9c0-2.3-1.1-4.4-3.6-4.4c-2.3,0-3.5,1.8-3.5,4.4c0,2.6,1.2,4.4,3.5,4.4
		C594.1,539.3,595.2,537.2,595.2,534.9z"/>
	<path class="st1" d="M618.2,534.9c0,3.4-1.9,6.1-5.1,6.1c-1.8,0-3-0.7-3.6-1.5h-0.5v1.2h-1.9v-16.6h1.9v6.3h0.5
		c0.6-0.8,1.7-1.5,3.5-1.5C616.3,528.9,618.2,531.4,618.2,534.9z M616.3,534.9c0-2.6-1.2-4.4-3.5-4.4c-2.6,0-3.6,2.1-3.6,4.4
		c0,2.3,1.1,4.4,3.6,4.4C615,539.3,616.3,537.5,616.3,534.9z"/>
	<path class="st1" d="M622.4,545.3l2.4-5.6l-4.9-10.5h2.1l3.5,7.6h0.6l3.2-7.6h2l-6.9,16.1H622.4z"/>
	<path class="st1" d="M380.8,556.6v1.2h0.5c0.6-0.8,1.8-1.5,3.6-1.5c3.2,0,5.1,2.7,5.1,6.1c0,3.5-1.9,6.1-5.1,6.1
		c-1.8,0-2.9-0.7-3.5-1.5h-0.5v5.8h-1.9v-16.1H380.8z M380.8,562.4c0,2.3,1.1,4.4,3.6,4.4c2.3,0,3.5-1.8,3.5-4.4
		c0-2.6-1.2-4.4-3.5-4.4C381.9,558,380.8,560.1,380.8,562.4z"/>
	<path class="st1" d="M400.3,566.9h-0.5c-0.7,0.9-1.9,1.5-3.6,1.5c-2.7,0-4.1-1.8-4.1-3.8c0-1.9,1.2-3.8,4.4-3.8h3.8v-0.5
		c0-1.4-0.8-2.4-2.8-2.4c-1.7,0-2.6,0.7-2.7,1.7h-1.9c0.2-2.1,2-3.4,4.6-3.4c2.9,0,4.8,1.4,4.8,4v7.8h-1.8V566.9z M400.2,563.5v-1.1
		h-3.5c-1.9,0-2.8,0.8-2.8,2.2c0,1.3,1,2.1,2.7,2.1C398.6,566.7,400.2,565.3,400.2,563.5z"/>
	<path class="st1" d="M415.5,564.7c-0.4,2.3-2.2,3.8-4.8,3.8c-3.6,0-5.6-2.7-5.6-6.1c0-3.5,2-6.1,5.6-6.1c2.7,0,4.4,1.5,4.8,3.6
		h-1.9c-0.4-1.2-1.3-1.9-2.8-1.9c-2.6,0-3.7,2-3.7,4.3c0,2.3,1.1,4.4,3.7,4.4c1.6,0,2.6-0.8,2.9-2.1H415.5z"/>
	<path class="st1" d="M426.8,568.1l-3.3-6.3H423l-2.7,2.9v3.3h-1.9v-16.6h1.9v10.9l5.4-5.8h2.3l-3.3,3.5l4.1,8H426.8z"/>
	<path class="st1" d="M438.4,566.9h-0.5c-0.7,0.9-1.9,1.5-3.6,1.5c-2.7,0-4.1-1.8-4.1-3.8c0-1.9,1.2-3.8,4.4-3.8h3.8v-0.5
		c0-1.4-0.8-2.4-2.8-2.4c-1.7,0-2.6,0.7-2.7,1.7h-1.9c0.2-2.1,2-3.4,4.6-3.4c2.9,0,4.8,1.4,4.8,4v7.8h-1.8V566.9z M438.3,563.5v-1.1
		h-3.5c-1.9,0-2.8,0.8-2.8,2.2c0,1.3,1,2.1,2.7,2.1C436.7,566.7,438.3,565.3,438.3,563.5z"/>
	<path class="st1" d="M454.1,556.6v11c0,3.2-2,5.3-5.4,5.3c-3,0-4.9-1.2-5.2-3.5h1.9c0.3,1.4,1.5,1.9,3.3,1.9c2.4,0,3.5-1.4,3.5-3.8
		v-0.9h-0.5c-0.6,0.8-1.7,1.5-3.5,1.5c-3.2,0-5.1-2.5-5.1-5.9c0-3.4,1.9-5.9,5.1-5.9c1.8,0,2.9,0.7,3.5,1.5h0.5v-1.2H454.1z
		 M452.2,562.2c0-2.2-1.2-4.2-3.6-4.2c-2.3,0-3.5,1.7-3.5,4.2c0,2.5,1.3,4.2,3.5,4.2C451,566.4,452.2,564.4,452.2,562.2z"/>
	<path class="st1" d="M467.8,562.3H459c0.1,2.7,1.3,4.4,3.7,4.4c1.6,0,2.6-0.7,2.9-1.8h2c-0.4,2-2,3.5-4.9,3.5
		c-3.6,0-5.6-2.6-5.6-6.2s2.1-5.9,5.6-5.9c3.4,0,5.1,2.5,5.1,5.4V562.3z M459.2,560.7h6.7c-0.1-1.5-1.2-2.7-3.2-2.7
		C460.6,558,459.4,559.3,459.2,560.7z"/>
	<path class="st1" d="M487,564.7c-0.4,2.3-2.2,3.8-4.8,3.8c-3.6,0-5.6-2.7-5.6-6.1c0-3.5,2-6.1,5.6-6.1c2.7,0,4.4,1.5,4.8,3.6h-1.9
		c-0.4-1.2-1.3-1.9-2.8-1.9c-2.6,0-3.7,2-3.7,4.3c0,2.3,1.1,4.4,3.7,4.4c1.6,0,2.6-0.8,2.9-2.1H487z"/>
	<path class="st1" d="M491.8,551.5v16.6h-1.9v-16.6H491.8z"/>
	<path class="st1" d="M502.9,566.9h-0.5c-0.7,0.9-1.9,1.5-3.6,1.5c-2.7,0-4.1-1.8-4.1-3.8c0-1.9,1.2-3.8,4.4-3.8h3.8v-0.5
		c0-1.4-0.8-2.4-2.8-2.4c-1.7,0-2.6,0.7-2.7,1.7h-1.9c0.2-2.1,2-3.4,4.6-3.4c2.9,0,4.8,1.4,4.8,4v7.8h-1.8V566.9z M502.8,563.5v-1.1
		h-3.5c-1.9,0-2.8,0.8-2.8,2.2c0,1.3,1,2.1,2.7,2.1C501.2,566.7,502.8,565.3,502.8,563.5z"/>
	<path class="st1" d="M512.6,561.1l1.3,0.2c2,0.3,3.3,1.4,3.3,3.5c0,1.9-1.6,3.6-4.7,3.6c-3.3,0-4.9-1.4-5.1-3.6h2
		c0.2,1.3,1.3,1.9,3.1,1.9c1.7,0,2.9-0.6,2.9-1.9c0-1-0.6-1.6-2.1-1.8l-2.6-0.4c-1.6-0.3-2.8-1.2-2.8-2.9c0-1.9,1.4-3.4,4.6-3.4
		c2.7,0,4.3,1.3,4.6,3.3H515c-0.2-1.1-1.3-1.6-2.7-1.6c-1.5,0-2.5,0.5-2.5,1.5c0,0.9,0.6,1.2,1.7,1.4L512.6,561.1z"/>
	<path class="st1" d="M524.4,561.1l1.3,0.2c2,0.3,3.3,1.4,3.3,3.5c0,1.9-1.6,3.6-4.7,3.6c-3.3,0-4.9-1.4-5.1-3.6h2
		c0.2,1.3,1.3,1.9,3.1,1.9c1.7,0,2.9-0.6,2.9-1.9c0-1-0.6-1.6-2.1-1.8l-2.6-0.4c-1.6-0.3-2.8-1.2-2.8-2.9c0-1.9,1.4-3.4,4.6-3.4
		c2.7,0,4.3,1.3,4.6,3.3h-1.9c-0.2-1.1-1.3-1.6-2.7-1.6c-1.5,0-2.5,0.5-2.5,1.5c0,0.9,0.6,1.2,1.7,1.4L524.4,561.1z"/>
	<path class="st1" d="M541.8,562.3H533c0.1,2.7,1.3,4.4,3.7,4.4c1.6,0,2.6-0.7,2.9-1.8h2c-0.4,2-2,3.5-4.9,3.5
		c-3.6,0-5.6-2.6-5.6-6.2s2.1-5.9,5.6-5.9c3.4,0,5.1,2.5,5.1,5.4V562.3z M533.2,560.7h6.7c-0.1-1.5-1.2-2.7-3.2-2.7
		C534.5,558,533.4,559.3,533.2,560.7z"/>
	<path class="st1" d="M549.1,561.1l1.3,0.2c2,0.3,3.3,1.4,3.3,3.5c0,1.9-1.6,3.6-4.7,3.6c-3.3,0-4.9-1.4-5.1-3.6h2
		c0.2,1.3,1.3,1.9,3.1,1.9s2.9-0.6,2.9-1.9c0-1-0.6-1.6-2.1-1.8l-2.6-0.4c-1.6-0.3-2.8-1.2-2.8-2.9c0-1.9,1.4-3.4,4.6-3.4
		c2.7,0,4.3,1.3,4.6,3.3h-1.9c-0.2-1.1-1.3-1.6-2.7-1.6c-1.5,0-2.5,0.5-2.5,1.5c0,0.9,0.6,1.2,1.7,1.4L549.1,561.1z"/>
	<path class="st1" d="M573.6,562.4c0,3.4-2.1,6.1-5.7,6.1c-3.6,0-5.7-2.7-5.7-6.1c0-3.4,2.1-6.1,5.7-6.1
		C571.5,556.3,573.6,559,573.6,562.4z M571.7,562.4c0-2.3-1.2-4.4-3.7-4.4c-2.6,0-3.7,2.1-3.7,4.4c0,2.3,1.2,4.4,3.7,4.4
		C570.5,566.7,571.7,564.6,571.7,562.4z"/>
	<path class="st1" d="M584.9,568.1v-6.9c0-2.1-1-3.2-2.9-3.2c-2.1,0-3.4,1.8-3.4,3.8v6.2h-1.9v-11.5h1.9v1.2h0.5
		c0.6-0.9,1.9-1.5,3.5-1.5c2.8,0,4.4,1.7,4.4,4.5v7.3H584.9z"/>
	<path class="st1" d="M592.4,551.5v16.6h-1.9v-16.6H592.4z"/>
	<path class="st1" d="M597.3,572.7l2.4-5.6l-4.9-10.5h2.1l3.5,7.6h0.6l3.2-7.6h2l-6.9,16.1H597.3z"/>
	<path class="st1" d="M617.6,555.9c0,2.4-1.2,3.3-2.8,4.6c-1.1,0.8-1.5,1.2-1.5,2.7v0.6h-2v-0.6c0-2,0.7-2.7,2.2-3.9
		c1.2-1,2.1-1.7,2.1-3.4c0-1.4-1-2.7-2.9-2.7s-3,0.9-3.1,3h-2c0.1-3,2-4.7,5.1-4.7C615.7,551.5,617.6,553.2,617.6,555.9z
		 M611.2,568.1v-2.7h2.4v2.7H611.2z"/>
</g>
<g>
	<path class="st1" d="M368.7,240.4v16.3h-2.1v-16.3H368.7z"/>
	<path class="st1" d="M377.1,249.7l1.3,0.2c2,0.3,3.3,1.4,3.3,3.5c0,1.9-1.6,3.6-4.7,3.6c-3.3,0-4.9-1.4-5.1-3.6h2
		c0.2,1.3,1.3,1.9,3.1,1.9c1.7,0,2.9-0.6,2.9-1.9c0-1-0.6-1.6-2.1-1.8l-2.6-0.4c-1.6-0.3-2.8-1.2-2.8-2.9c0-1.9,1.4-3.4,4.6-3.4
		c2.7,0,4.3,1.3,4.6,3.3h-1.9c-0.2-1.1-1.3-1.6-2.7-1.6c-1.5,0-2.5,0.5-2.5,1.5c0,0.9,0.6,1.2,1.7,1.4L377.1,249.7z"/>
	<path class="st1" d="M390.9,242.2v-2.1h2.1v2.1H390.9z M392.9,256.7H391v-11.5h1.9V256.7z"/>
	<path class="st1" d="M402.3,245.2v1.7h-2.9v6.3c0,1.2,0.5,1.8,2.1,1.8h0.8v1.7h-0.9c-2.5,0-4-0.8-4-3.2v-6.6h-2v-1.7h2v-3.5h1.9
		v3.5H402.3z"/>
	<path class="st1" d="M427.8,249.2v7.5h-1.9v-7.3c0-1.9-0.7-2.8-2.2-2.8c-1.8,0-2.8,1.4-2.8,3.3v6.7h-1.9v-7.2
		c0-1.9-0.8-2.9-2.2-2.9c-1.9,0-2.8,1.6-2.8,3.7v6.4h-1.9v-11.5h1.9v1.1h0.5c0.6-0.9,1.5-1.4,2.9-1.4c1.4,0,2.4,0.5,3,1.5h0.5
		c0.7-1,1.8-1.5,3.2-1.5C426.6,244.9,427.8,246.6,427.8,249.2z"/>
	<path class="st1" d="M441.3,250.9h-8.8c0.1,2.7,1.3,4.4,3.7,4.4c1.6,0,2.6-0.7,2.9-1.8h2c-0.4,2-2,3.5-4.9,3.5
		c-3.6,0-5.6-2.6-5.6-6.2s2.1-5.9,5.6-5.9c3.4,0,5.1,2.5,5.1,5.4V250.9z M432.7,249.3h6.7c-0.1-1.5-1.2-2.7-3.2-2.7
		C434.1,246.5,432.9,247.8,432.7,249.3z"/>
	<path class="st1" d="M451.7,255.5h-0.5c-0.7,0.9-1.9,1.5-3.6,1.5c-2.7,0-4.1-1.8-4.1-3.8c0-1.9,1.2-3.8,4.4-3.8h3.8V249
		c0-1.4-0.8-2.4-2.8-2.4c-1.7,0-2.6,0.7-2.7,1.7h-1.9c0.2-2.1,2-3.4,4.6-3.4c2.9,0,4.8,1.4,4.8,4v7.8h-1.8V255.5z M451.6,252V251
		h-3.5c-1.9,0-2.8,0.8-2.8,2.2c0,1.3,1,2.1,2.7,2.1C450,255.3,451.6,253.8,451.6,252z"/>
	<path class="st1" d="M465.4,256.7v-6.9c0-2.1-1-3.2-2.9-3.2c-2.1,0-3.4,1.8-3.4,3.8v6.2h-1.9v-11.5h1.9v1.2h0.5
		c0.6-0.9,1.9-1.5,3.5-1.5c2.8,0,4.4,1.7,4.4,4.5v7.3H465.4z"/>
	<path class="st1" d="M476.5,245.2v1.7h-2.9v6.3c0,1.2,0.5,1.8,2.1,1.8h0.8v1.7h-0.9c-2.5,0-4-0.8-4-3.2v-6.6h-2v-1.7h2v-3.5h1.9
		v3.5H476.5z"/>
	<path class="st1" d="M491.7,245.2v1.7h-2.9v6.3c0,1.2,0.5,1.8,2.1,1.8h0.8v1.7h-0.9c-2.5,0-4-0.8-4-3.2v-6.6h-2v-1.7h2v-3.5h1.9
		v3.5H491.7z"/>
	<path class="st1" d="M505.3,250.9c0,3.4-2.1,6.1-5.7,6.1c-3.6,0-5.7-2.7-5.7-6.1c0-3.4,2.1-6.1,5.7-6.1
		C503.2,244.9,505.3,247.5,505.3,250.9z M503.4,250.9c0-2.3-1.2-4.4-3.7-4.4c-2.6,0-3.7,2.1-3.7,4.4c0,2.3,1.2,4.4,3.7,4.4
		C502.2,255.3,503.4,253.2,503.4,250.9z"/>
	<path class="st1" d="M525.7,250.9c0,3.4-1.9,6.1-5.1,6.1c-1.8,0-3-0.7-3.6-1.5h-0.5v1.2h-1.9v-16.6h1.9v6.3h0.5
		c0.6-0.8,1.7-1.5,3.5-1.5C523.9,244.9,525.7,247.4,525.7,250.9z M523.8,250.9c0-2.6-1.2-4.4-3.5-4.4c-2.6,0-3.6,2.1-3.6,4.4
		c0,2.3,1.1,4.4,3.6,4.4C522.6,255.3,523.8,253.5,523.8,250.9z"/>
	<path class="st1" d="M538.8,250.9H530c0.1,2.7,1.3,4.4,3.7,4.4c1.6,0,2.6-0.7,2.9-1.8h2c-0.4,2-2,3.5-4.9,3.5
		c-3.6,0-5.6-2.6-5.6-6.2s2.1-5.9,5.6-5.9c3.4,0,5.1,2.5,5.1,5.4V250.9z M530.1,249.3h6.7c-0.1-1.5-1.2-2.7-3.2-2.7
		C531.5,246.5,530.4,247.8,530.1,249.3z"/>
	<path class="st1" d="M549.9,245.2v6.9c0,2.1,1,3.2,2.9,3.2c2,0,3.4-1.8,3.4-3.8v-6.2h1.9v11.5h-1.9v-1.2h-0.5
		c-0.6,0.9-1.9,1.5-3.5,1.5c-2.8,0-4.4-1.7-4.4-4.5v-7.3H549.9z"/>
	<path class="st1" d="M566.3,249.7l1.3,0.2c2,0.3,3.3,1.4,3.3,3.5c0,1.9-1.6,3.6-4.7,3.6c-3.3,0-4.9-1.4-5.1-3.6h2
		c0.2,1.3,1.3,1.9,3.1,1.9s2.9-0.6,2.9-1.9c0-1-0.6-1.6-2.1-1.8l-2.6-0.4c-1.6-0.3-2.8-1.2-2.8-2.9c0-1.9,1.4-3.4,4.6-3.4
		c2.7,0,4.3,1.3,4.6,3.3h-1.9c-0.2-1.1-1.3-1.6-2.7-1.6c-1.5,0-2.5,0.5-2.5,1.5c0,0.9,0.6,1.2,1.7,1.4L566.3,249.7z"/>
	<path class="st1" d="M583.7,250.9H575c0.1,2.7,1.3,4.4,3.7,4.4c1.6,0,2.6-0.7,2.9-1.8h2c-0.4,2-2,3.5-4.9,3.5
		c-3.6,0-5.6-2.6-5.6-6.2s2.1-5.9,5.6-5.9c3.4,0,5.1,2.5,5.1,5.4V250.9z M575.1,249.3h6.7c-0.1-1.5-1.2-2.7-3.2-2.7
		C576.5,246.5,575.3,247.8,575.1,249.3z"/>
	<path class="st1" d="M597.1,240.1v16.6h-1.9v-1.2h-0.5c-0.6,0.8-1.8,1.5-3.6,1.5c-3.2,0-5.1-2.7-5.1-6.1c0-3.5,1.9-6.1,5.1-6.1
		c1.8,0,2.9,0.7,3.5,1.5h0.5v-6.3H597.1z M595.2,250.9c0-2.3-1.1-4.4-3.6-4.4c-2.3,0-3.5,1.8-3.5,4.4c0,2.6,1.2,4.4,3.5,4.4
		C594.1,255.3,595.2,253.2,595.2,250.9z"/>
	<path class="st1" d="M618.2,250.9c0,3.4-1.9,6.1-5.1,6.1c-1.8,0-3-0.7-3.6-1.5h-0.5v1.2h-1.9v-16.6h1.9v6.3h0.5
		c0.6-0.8,1.7-1.5,3.5-1.5C616.3,244.9,618.2,247.4,618.2,250.9z M616.3,250.9c0-2.6-1.2-4.4-3.5-4.4c-2.6,0-3.6,2.1-3.6,4.4
		c0,2.3,1.1,4.4,3.6,4.4C615,255.3,616.3,253.5,616.3,250.9z"/>
	<path class="st1" d="M622.4,261.3l2.4-5.6l-4.9-10.5h2.1l3.5,7.6h0.6l3.2-7.6h2l-6.9,16.1H622.4z"/>
	<path class="st1" d="M413.6,280.7c-0.4,2.3-2.2,3.8-4.8,3.8c-3.6,0-5.6-2.7-5.6-6.1c0-3.5,2-6.1,5.6-6.1c2.7,0,4.4,1.5,4.8,3.6
		h-1.9c-0.4-1.2-1.3-1.9-2.8-1.9c-2.6,0-3.7,2-3.7,4.3c0,2.3,1.1,4.4,3.7,4.4c1.6,0,2.6-0.8,2.9-2.1H413.6z"/>
	<path class="st1" d="M418.4,267.5v16.6h-1.9v-16.6H418.4z"/>
	<path class="st1" d="M429.5,282.9H429c-0.7,0.9-1.9,1.5-3.6,1.5c-2.7,0-4.1-1.8-4.1-3.8c0-1.9,1.2-3.8,4.4-3.8h3.8v-0.5
		c0-1.4-0.8-2.4-2.8-2.4c-1.7,0-2.6,0.7-2.7,1.7H422c0.2-2.1,2-3.4,4.6-3.4c2.9,0,4.8,1.4,4.8,4v7.8h-1.8V282.9z M429.5,279.5v-1.1
		H426c-1.9,0-2.8,0.8-2.8,2.2c0,1.3,1,2.1,2.7,2.1C427.8,282.7,429.5,281.3,429.5,279.5z"/>
	<path class="st1" d="M439.2,277.1l1.3,0.2c2,0.3,3.3,1.4,3.3,3.5c0,1.9-1.6,3.6-4.7,3.6c-3.3,0-4.9-1.4-5.1-3.6h2
		c0.2,1.3,1.3,1.9,3.1,1.9c1.7,0,2.9-0.6,2.9-1.9c0-1-0.6-1.6-2.1-1.8l-2.6-0.4c-1.6-0.3-2.8-1.2-2.8-2.9c0-1.9,1.4-3.4,4.6-3.4
		c2.7,0,4.3,1.3,4.6,3.3h-1.9c-0.2-1.1-1.3-1.6-2.7-1.6c-1.5,0-2.5,0.5-2.5,1.5c0,0.9,0.6,1.2,1.7,1.4L439.2,277.1z"/>
	<path class="st1" d="M451,277.1l1.3,0.2c2,0.3,3.3,1.4,3.3,3.5c0,1.9-1.6,3.6-4.7,3.6c-3.3,0-4.9-1.4-5.1-3.6h2
		c0.2,1.3,1.3,1.9,3.1,1.9c1.7,0,2.9-0.6,2.9-1.9c0-1-0.6-1.6-2.1-1.8l-2.6-0.4c-1.6-0.3-2.8-1.2-2.8-2.9c0-1.9,1.4-3.4,4.6-3.4
		c2.7,0,4.3,1.3,4.6,3.3h-1.9c-0.2-1.1-1.3-1.6-2.7-1.6c-1.5,0-2.5,0.5-2.5,1.5c0,0.9,0.6,1.2,1.7,1.4L451,277.1z"/>
	<path class="st1" d="M474.6,280.7c-0.4,2.3-2.2,3.8-4.8,3.8c-3.6,0-5.6-2.7-5.6-6.1c0-3.5,2-6.1,5.6-6.1c2.7,0,4.4,1.5,4.8,3.6
		h-1.9c-0.4-1.2-1.3-1.9-2.8-1.9c-2.6,0-3.7,2-3.7,4.3c0,2.3,1.1,4.4,3.7,4.4c1.6,0,2.6-0.8,2.9-2.1H474.6z"/>
	<path class="st1" d="M488.1,278.4c0,3.4-2.1,6.1-5.7,6.1c-3.6,0-5.7-2.7-5.7-6.1c0-3.4,2.1-6.1,5.7-6.1
		C486,272.3,488.1,275,488.1,278.4z M486.2,278.4c0-2.3-1.2-4.4-3.7-4.4c-2.6,0-3.7,2.1-3.7,4.4c0,2.3,1.2,4.4,3.7,4.4
		C485,282.7,486.2,280.6,486.2,278.4z"/>
	<path class="st1" d="M499.4,284.1v-6.9c0-2.1-1-3.2-2.9-3.2c-2.1,0-3.4,1.8-3.4,3.8v6.2h-1.9v-11.5h1.9v1.2h0.5
		c0.6-0.9,1.9-1.5,3.5-1.5c2.8,0,4.4,1.7,4.4,4.5v7.3H499.4z"/>
	<path class="st1" d="M509.3,277.1l1.3,0.2c2,0.3,3.3,1.4,3.3,3.5c0,1.9-1.6,3.6-4.7,3.6c-3.3,0-4.9-1.4-5.1-3.6h2
		c0.2,1.3,1.3,1.9,3.1,1.9s2.9-0.6,2.9-1.9c0-1-0.6-1.6-2.1-1.8l-2.6-0.4c-1.6-0.3-2.8-1.2-2.8-2.9c0-1.9,1.4-3.4,4.6-3.4
		c2.7,0,4.3,1.3,4.6,3.3h-1.9c-0.2-1.1-1.3-1.6-2.7-1.6c-1.5,0-2.5,0.5-2.5,1.5c0,0.9,0.6,1.2,1.7,1.4L509.3,277.1z"/>
	<path class="st1" d="M518.5,272.6v6.9c0,2.1,1,3.2,2.9,3.2c2,0,3.4-1.8,3.4-3.8v-6.2h1.9v11.5h-1.9v-1.2h-0.5
		c-0.6,0.9-1.9,1.5-3.5,1.5c-2.8,0-4.4-1.7-4.4-4.5v-7.3H518.5z"/>
	<path class="st1" d="M546.4,276.7v7.5h-1.9v-7.3c0-1.9-0.7-2.8-2.2-2.8c-1.8,0-2.8,1.4-2.8,3.3v6.7h-1.9v-7.2
		c0-1.9-0.8-2.9-2.2-2.9c-1.9,0-2.8,1.6-2.8,3.7v6.4h-1.9v-11.5h1.9v1.1h0.5c0.6-0.9,1.5-1.4,2.9-1.4c1.4,0,2.4,0.5,3,1.5h0.5
		c0.7-1,1.8-1.5,3.2-1.5C545.3,272.3,546.4,274,546.4,276.7z"/>
	<path class="st1" d="M560,278.4h-8.8c0.1,2.7,1.3,4.4,3.7,4.4c1.6,0,2.6-0.7,2.9-1.8h2c-0.4,2-2,3.5-4.9,3.5
		c-3.6,0-5.6-2.6-5.6-6.2s2.1-5.9,5.6-5.9c3.4,0,5.1,2.5,5.1,5.4V278.4z M551.3,276.7h6.7c-0.1-1.5-1.2-2.7-3.2-2.7
		C552.7,274,551.6,275.3,551.3,276.7z"/>
	<path class="st1" d="M569.6,274.4h-1c-2.3,0-3.7,1.4-3.7,3.9v5.8H563v-11.5h1.9v1.4h0.5c0.6-0.7,1.7-1.4,3.3-1.4h0.9V274.4z"/>
	<path class="st1" d="M576.5,277.1l1.3,0.2c2,0.3,3.3,1.4,3.3,3.5c0,1.9-1.6,3.6-4.7,3.6c-3.3,0-4.9-1.4-5.1-3.6h2
		c0.2,1.3,1.3,1.9,3.1,1.9s2.9-0.6,2.9-1.9c0-1-0.6-1.6-2.1-1.8l-2.6-0.4c-1.6-0.3-2.8-1.2-2.8-2.9c0-1.9,1.4-3.4,4.6-3.4
		c2.7,0,4.3,1.3,4.6,3.3h-1.9c-0.2-1.1-1.3-1.6-2.7-1.6c-1.5,0-2.5,0.5-2.5,1.5c0,0.9,0.6,1.2,1.7,1.4L576.5,277.1z"/>
	<path class="st1" d="M592.7,271.9c0,2.4-1.2,3.3-2.8,4.6c-1.1,0.8-1.5,1.2-1.5,2.7v0.6h-2v-0.6c0-2,0.7-2.7,2.2-3.9
		c1.2-1,2.1-1.7,2.1-3.4c0-1.4-1-2.7-2.9-2.7s-3,0.9-3.1,3h-2c0.1-3,2-4.7,5.1-4.7C590.7,267.5,592.7,269.2,592.7,271.9z
		 M586.2,284.1v-2.7h2.4v2.7H586.2z"/>
</g>
<g>
	<path class="st1" d="M892.1,67.7V84h-2.1V67.7H892.1z"/>
	<path class="st1" d="M900.5,77l1.3,0.2c2,0.3,3.3,1.4,3.3,3.5c0,1.9-1.6,3.6-4.7,3.6c-3.3,0-4.9-1.4-5.1-3.6h2
		c0.2,1.3,1.3,1.9,3.1,1.9s2.9-0.6,2.9-1.9c0-1-0.6-1.6-2.1-1.8l-2.6-0.4c-1.6-0.3-2.8-1.2-2.8-2.9c0-1.9,1.4-3.4,4.6-3.4
		c2.7,0,4.3,1.3,4.6,3.3h-1.9c-0.2-1.1-1.3-1.6-2.7-1.6c-1.5,0-2.5,0.5-2.5,1.5c0,0.9,0.6,1.2,1.7,1.4L900.5,77z"/>
	<path class="st1" d="M914.3,69.5v-2.1h2.1v2.1H914.3z M916.3,84h-1.9V72.5h1.9V84z"/>
	<path class="st1" d="M925.7,72.5v1.7h-2.9v6.3c0,1.2,0.5,1.8,2.1,1.8h0.8V84h-0.9c-2.5,0-4-0.8-4-3.2v-6.6h-2v-1.7h2V69h1.9v3.5
		H925.7z"/>
	<path class="st1" d="M951.2,76.5V84h-1.9v-7.3c0-1.9-0.7-2.8-2.2-2.8c-1.8,0-2.8,1.4-2.8,3.3V84h-1.9v-7.2c0-1.9-0.8-2.9-2.2-2.9
		c-1.9,0-2.8,1.6-2.8,3.7V84h-1.9V72.5h1.9v1.1h0.5c0.6-0.9,1.5-1.4,2.9-1.4c1.4,0,2.4,0.5,3,1.5h0.5c0.7-1,1.8-1.5,3.2-1.5
		C950.1,72.2,951.2,73.9,951.2,76.5z"/>
	<path class="st1" d="M964.8,78.2H956c0.1,2.7,1.3,4.4,3.7,4.4c1.6,0,2.6-0.7,2.9-1.8h2c-0.4,2-2,3.5-4.9,3.5
		c-3.6,0-5.6-2.6-5.6-6.2s2.1-5.9,5.6-5.9c3.4,0,5.1,2.5,5.1,5.4V78.2z M956.1,76.6h6.7c-0.1-1.5-1.2-2.7-3.2-2.7
		C957.5,73.9,956.4,75.1,956.1,76.6z"/>
	<path class="st1" d="M973.4,72.5v1.7h-2.9v6.3c0,1.2,0.5,1.8,2.1,1.8h0.8V84h-0.9c-2.5,0-4-0.8-4-3.2v-6.6h-2v-1.7h2V69h1.9v3.5
		H973.4z"/>
	<path class="st1" d="M984.9,84v-6.9c0-2.1-1-3.2-2.9-3.2c-2.1,0-3.4,1.8-3.4,3.8V84h-1.9V67.4h1.9v6.3h0.5c0.6-0.9,1.9-1.5,3.4-1.5
		c2.8,0,4.4,1.7,4.4,4.5V84H984.9z"/>
	<path class="st1" d="M1001,78.2c0,3.4-2.1,6.1-5.7,6.1c-3.6,0-5.7-2.7-5.7-6.1c0-3.4,2.1-6.1,5.7-6.1C999,72.2,1001,74.8,1001,78.2
		z M999.1,78.2c0-2.3-1.2-4.4-3.7-4.4c-2.6,0-3.7,2.1-3.7,4.4c0,2.3,1.2,4.4,3.7,4.4C997.9,82.6,999.1,80.5,999.1,78.2z"/>
	<path class="st1" d="M1014.4,67.4V84h-1.9v-1.2h-0.5c-0.6,0.8-1.8,1.5-3.6,1.5c-3.2,0-5.1-2.7-5.1-6.1c0-3.5,1.9-6.1,5.1-6.1
		c1.8,0,2.9,0.7,3.5,1.5h0.5v-6.3H1014.4z M1012.5,78.2c0-2.3-1.1-4.4-3.6-4.4c-2.3,0-3.5,1.8-3.5,4.4c0,2.6,1.2,4.4,3.5,4.4
		C1011.4,82.6,1012.5,80.5,1012.5,78.2z"/>
	<path class="st1" d="M844.5,107.2l1.9,5.7h0.5l1.3-9.5h1.9l-1.7,11.5h-3l-2-5.8H843l-2,5.8h-3l-1.6-11.5h1.9l1.4,9.5h0.5l2-5.7
		H844.5z"/>
	<path class="st1" d="M853,100.5v-2.1h2.1v2.1H853z M855,115H853v-11.5h1.9V115z"/>
	<path class="st1" d="M864.4,103.5v1.7h-2.9v6.3c0,1.2,0.5,1.8,2.1,1.8h0.8v1.7h-0.9c-2.5,0-4-0.8-4-3.2v-6.6h-2v-1.7h2V100h1.9v3.5
		H864.4z"/>
	<path class="st1" d="M875.9,115v-6.9c0-2.1-1-3.2-2.9-3.2c-2.1,0-3.4,1.8-3.4,3.8v6.2h-1.9V98.4h1.9v6.3h0.5
		c0.6-0.9,1.9-1.5,3.4-1.5c2.8,0,4.4,1.7,4.4,4.5v7.3H875.9z"/>
	<path class="st1" d="M895.1,113.8h-0.5c-0.7,0.9-1.9,1.5-3.6,1.5c-2.7,0-4.1-1.8-4.1-3.8c0-1.9,1.2-3.8,4.4-3.8h3.8v-0.5
		c0-1.4-0.8-2.4-2.8-2.4c-1.7,0-2.6,0.7-2.7,1.7h-1.9c0.2-2.1,2-3.4,4.6-3.4c2.9,0,4.8,1.4,4.8,4v7.8h-1.8V113.8z M895,110.3v-1.1
		h-3.5c-1.9,0-2.8,0.8-2.8,2.2c0,1.3,1,2.1,2.7,2.1C893.4,113.6,895,112.2,895,110.3z"/>
	<path class="st1" d="M915.2,115v-6.9c0-2.1-1-3.2-2.9-3.2c-2.1,0-3.4,1.8-3.4,3.8v6.2h-1.9V98.4h1.9v6.3h0.5
		c0.6-0.9,1.9-1.5,3.4-1.5c2.8,0,4.4,1.7,4.4,4.5v7.3H915.2z"/>
	<path class="st1" d="M920.7,100.5v-2.1h2.1v2.1H920.7z M922.7,115h-1.9v-11.5h1.9V115z"/>
	<path class="st1" d="M936.8,103.5v11c0,3.2-2,5.3-5.4,5.3c-2.9,0-4.9-1.2-5.2-3.5h1.9c0.3,1.4,1.5,1.9,3.3,1.9
		c2.4,0,3.5-1.4,3.5-3.8v-0.9h-0.5c-0.6,0.8-1.7,1.5-3.5,1.5c-3.2,0-5.1-2.5-5.1-5.9c0-3.4,1.9-5.9,5.1-5.9c1.8,0,2.9,0.7,3.5,1.5
		h0.5v-1.2H936.8z M934.9,109.1c0-2.2-1.2-4.2-3.6-4.2c-2.3,0-3.5,1.7-3.5,4.2c0,2.5,1.3,4.2,3.5,4.2
		C933.7,113.2,934.9,111.3,934.9,109.1z"/>
	<path class="st1" d="M948.9,115v-6.9c0-2.1-1-3.2-2.9-3.2c-2.1,0-3.4,1.8-3.4,3.8v6.2h-1.9V98.4h1.9v6.3h0.5
		c0.6-0.9,1.9-1.5,3.4-1.5c2.8,0,4.4,1.7,4.4,4.5v7.3H948.9z"/>
	<path class="st1" d="M953.6,109.5v-1.7h6.2v1.7H953.6z"/>
	<path class="st1" d="M964.8,98.4V115h-1.9V98.4H964.8z"/>
	<path class="st1" d="M978.6,109.2h-8.8c0.1,2.7,1.3,4.4,3.7,4.4c1.6,0,2.6-0.7,2.9-1.8h2c-0.4,2-2,3.5-4.9,3.5
		c-3.6,0-5.6-2.6-5.6-6.2s2.1-5.9,5.6-5.9c3.4,0,5.1,2.5,5.1,5.4V109.2z M969.9,107.6h6.7c-0.1-1.5-1.2-2.7-3.2-2.7
		C971.3,104.9,970.1,106.1,969.9,107.6z"/>
	<path class="st1" d="M980.2,103.5h2l3.2,9.7h0.9l3.1-9.7h2l-3.9,11.5H984L980.2,103.5z"/>
	<path class="st1" d="M1003.7,109.2h-8.8c0.1,2.7,1.3,4.4,3.7,4.4c1.6,0,2.6-0.7,2.9-1.8h2c-0.4,2-2,3.5-4.9,3.5
		c-3.6,0-5.6-2.6-5.6-6.2s2.1-5.9,5.6-5.9c3.4,0,5.1,2.5,5.1,5.4V109.2z M995.1,107.6h6.7c-0.1-1.5-1.2-2.7-3.2-2.7
		C996.5,104.9,995.3,106.1,995.1,107.6z"/>
	<path class="st1" d="M1008.7,98.4V115h-1.9V98.4H1008.7z"/>
	<path class="st1" d="M1020.7,98.4V115h-1.9V98.4H1020.7z"/>
	<path class="st1" d="M1035.1,109.2c0,3.4-2.1,6.1-5.7,6.1c-3.6,0-5.7-2.7-5.7-6.1c0-3.4,2.1-6.1,5.7-6.1
		C1033.1,103.2,1035.1,105.8,1035.1,109.2z M1033.2,109.2c0-2.3-1.2-4.4-3.7-4.4c-2.6,0-3.7,2.1-3.7,4.4c0,2.3,1.2,4.4,3.7,4.4
		C1032,113.6,1033.2,111.5,1033.2,109.2z"/>
	<path class="st1" d="M1048.5,103.5v11c0,3.2-2,5.3-5.4,5.3c-3,0-4.9-1.2-5.2-3.5h1.9c0.3,1.4,1.5,1.9,3.3,1.9
		c2.4,0,3.5-1.4,3.5-3.8v-0.9h-0.5c-0.6,0.8-1.7,1.5-3.5,1.5c-3.2,0-5.1-2.5-5.1-5.9c0-3.4,1.9-5.9,5.1-5.9c1.8,0,2.9,0.7,3.5,1.5
		h0.5v-1.2H1048.5z M1046.6,109.1c0-2.2-1.2-4.2-3.6-4.2c-2.3,0-3.5,1.7-3.5,4.2c0,2.5,1.3,4.2,3.5,4.2
		C1045.4,113.2,1046.6,111.3,1046.6,109.1z"/>
	<path class="st1" d="M1052.3,100.5v-2.1h2.1v2.1H1052.3z M1054.2,115h-1.9v-11.5h1.9V115z"/>
	<path class="st1" d="M1067.8,111.5c-0.4,2.3-2.2,3.8-4.8,3.8c-3.6,0-5.6-2.7-5.6-6.1c0-3.5,2-6.1,5.6-6.1c2.7,0,4.4,1.5,4.8,3.6
		h-1.9c-0.4-1.2-1.3-1.9-2.8-1.9c-2.6,0-3.7,2-3.7,4.3c0,2.3,1.1,4.4,3.7,4.4c1.6,0,2.6-0.8,2.9-2.1H1067.8z"/>
	<path class="st1" d="M848.1,149.2h-1.9c-2-2.4-3.6-5.8-3.6-10.4c0-4.5,1.6-7.8,3.5-10.2h1.9c-1.8,2.5-3.5,5.7-3.5,10.2
		C844.5,143.4,846.3,146.7,848.1,149.2z"/>
	<path class="st1" d="M857.5,144.8H857c-0.7,0.9-1.9,1.5-3.6,1.5c-2.7,0-4.1-1.8-4.1-3.8c0-1.9,1.2-3.8,4.4-3.8h3.8v-0.5
		c0-1.4-0.8-2.4-2.8-2.4c-1.7,0-2.6,0.7-2.7,1.7H850c0.2-2.1,2-3.4,4.6-3.4c2.9,0,4.8,1.4,4.8,4v7.8h-1.8V144.8z M857.4,141.3v-1.1
		H854c-1.9,0-2.8,0.8-2.8,2.2c0,1.3,1,2.1,2.7,2.1C855.8,144.6,857.4,143.2,857.4,141.3z"/>
	<path class="st1" d="M871.5,132.3v2.7h-2.4v-3.1l1.3-2.2h1.2l-1.3,2.2v0.4H871.5z M875.5,132.3v2.7h-2.4v-3.1l1.3-2.2h1.2l-1.3,2.2
		v0.4H875.5z"/>
	<path class="st1" d="M888.5,142.5c-0.4,2.3-2.2,3.8-4.8,3.8c-3.6,0-5.6-2.7-5.6-6.1c0-3.5,2-6.1,5.6-6.1c2.7,0,4.4,1.5,4.8,3.6
		h-1.9c-0.4-1.2-1.3-1.9-2.8-1.9c-2.6,0-3.7,2-3.7,4.3c0,2.3,1.1,4.4,3.7,4.4c1.6,0,2.6-0.8,2.9-2.1H888.5z"/>
	<path class="st1" d="M902,140.2c0,3.4-2.1,6.1-5.7,6.1c-3.6,0-5.7-2.7-5.7-6.1s2.1-6.1,5.7-6.1C899.9,134.2,902,136.8,902,140.2z
		 M900.1,140.2c0-2.3-1.2-4.4-3.7-4.4c-2.6,0-3.7,2.1-3.7,4.4c0,2.3,1.2,4.4,3.7,4.4C898.9,144.6,900.1,142.5,900.1,140.2z"/>
	<path class="st1" d="M913.4,146v-6.9c0-2.1-1-3.2-2.9-3.2c-2.1,0-3.4,1.8-3.4,3.8v6.2h-1.9v-11.5h1.9v1.2h0.5
		c0.6-0.9,1.9-1.5,3.5-1.5c2.8,0,4.4,1.7,4.4,4.5v7.3H913.4z"/>
	<path class="st1" d="M924.5,134.5v1.7h-2.9v6.3c0,1.2,0.5,1.8,2.1,1.8h0.8v1.7h-0.9c-2.5,0-4-0.8-4-3.2v-6.6h-2v-1.7h2V131h1.9v3.5
		H924.5z"/>
	<path class="st1" d="M934.3,136.3h-1c-2.3,0-3.7,1.4-3.7,3.9v5.8h-1.9v-11.5h1.9v1.4h0.5c0.6-0.7,1.7-1.4,3.3-1.4h0.9V136.3z"/>
	<path class="st1" d="M947.4,140.2c0,3.4-2.1,6.1-5.7,6.1c-3.6,0-5.7-2.7-5.7-6.1s2.1-6.1,5.7-6.1
		C945.4,134.2,947.4,136.8,947.4,140.2z M945.5,140.2c0-2.3-1.2-4.4-3.7-4.4c-2.6,0-3.7,2.1-3.7,4.4c0,2.3,1.2,4.4,3.7,4.4
		C944.3,144.6,945.5,142.5,945.5,140.2z"/>
	<path class="st1" d="M952.4,129.4V146h-1.9v-16.6H952.4z"/>
	<path class="st1" d="M973.6,140.2c0,3.4-1.9,6.1-5.1,6.1c-1.8,0-2.9-0.7-3.6-1.5h-0.5v1.2h-1.9v-16.6h1.9v6.3h0.5
		c0.6-0.8,1.7-1.5,3.5-1.5C971.7,134.2,973.6,136.7,973.6,140.2z M971.6,140.2c0-2.6-1.2-4.4-3.5-4.4c-2.6,0-3.6,2.1-3.6,4.4
		c0,2.3,1.1,4.4,3.6,4.4C970.4,144.6,971.6,142.8,971.6,140.2z"/>
	<path class="st1" d="M978.4,134.5v6.9c0,2.1,1,3.2,2.9,3.2c2,0,3.4-1.8,3.4-3.8v-6.2h1.9V146h-1.9v-1.2h-0.5
		c-0.6,0.9-1.9,1.5-3.5,1.5c-2.8,0-4.4-1.7-4.4-4.5v-7.3H978.4z"/>
	<path class="st1" d="M996,134.5v1.7h-2.9v6.3c0,1.2,0.5,1.8,2.1,1.8h0.8v1.7h-0.9c-2.5,0-4-0.8-4-3.2v-6.6h-2v-1.7h2V131h1.9v3.5
		H996z"/>
	<path class="st1" d="M1004.8,134.5v1.7h-2.9v6.3c0,1.2,0.5,1.8,2.1,1.8h0.8v1.7h-0.9c-2.5,0-4-0.8-4-3.2v-6.6h-2v-1.7h2V131h1.9
		v3.5H1004.8z"/>
	<path class="st1" d="M1018.5,140.2c0,3.4-2.1,6.1-5.7,6.1c-3.6,0-5.7-2.7-5.7-6.1s2.1-6.1,5.7-6.1
		C1016.4,134.2,1018.5,136.8,1018.5,140.2z M1016.5,140.2c0-2.3-1.2-4.4-3.7-4.4c-2.6,0-3.7,2.1-3.7,4.4c0,2.3,1.2,4.4,3.7,4.4
		C1015.3,144.6,1016.5,142.5,1016.5,140.2z"/>
	<path class="st1" d="M1029.8,146v-6.9c0-2.1-1-3.2-2.9-3.2c-2.1,0-3.4,1.8-3.4,3.8v6.2h-1.9v-11.5h1.9v1.2h0.5
		c0.6-0.9,1.9-1.5,3.5-1.5c2.8,0,4.4,1.7,4.4,4.5v7.3H1029.8z"/>
	<path class="st1" d="M1035.2,132.3v-2.7h2.4v3.1l-1.3,2.2h-1.2l1.3-2.2v-0.4H1035.2z M1039.2,132.3v-2.7h2.4v3.1l-1.3,2.2h-1.2
		l1.3-2.2v-0.4H1039.2z"/>
	<path class="st1" d="M1054.4,133.8c0,2.4-1.2,3.3-2.8,4.6c-1.1,0.8-1.5,1.2-1.5,2.7v0.6h-2V141c0-2,0.7-2.7,2.2-3.9
		c1.2-1,2.1-1.7,2.1-3.4c0-1.4-1-2.7-2.9-2.7s-3,0.9-3.1,3h-2c0.1-3,2-4.7,5.1-4.7C1052.4,129.4,1054.4,131.1,1054.4,133.8z
		 M1047.9,146v-2.7h2.4v2.7H1047.9z"/>
	<path class="st1" d="M1056.1,128.6h1.9c1.9,2.4,3.5,5.7,3.5,10.2c0,4.6-1.6,8-3.6,10.4h-1.9c1.9-2.5,3.7-5.8,3.7-10.4
		C1059.7,134.3,1058,131.1,1056.1,128.6z"/>
</g>
<g>
	<path class="st1" d="M1208,288.8h-7.2l-1.7,5h-2.1l5.6-16.3h3.5l5.7,16.3h-2.2L1208,288.8z M1201.5,286.9h5.9l-2.5-7.3h-0.9
		L1201.5,286.9z"/>
	<path class="st1" d="M1220.8,284.1h-1c-2.3,0-3.7,1.4-3.7,3.9v5.8h-1.9v-11.5h1.9v1.4h0.5c0.6-0.7,1.7-1.4,3.3-1.4h0.9V284.1z"/>
	<path class="st1" d="M1233.3,288h-8.8c0.1,2.7,1.3,4.4,3.7,4.4c1.6,0,2.6-0.7,2.9-1.8h2c-0.4,2-2,3.5-4.9,3.5
		c-3.6,0-5.6-2.6-5.6-6.2s2.1-5.9,5.6-5.9c3.4,0,5.1,2.5,5.1,5.4V288z M1224.7,286.4h6.7c-0.1-1.5-1.2-2.7-3.2-2.7
		C1226,283.6,1224.9,284.9,1224.7,286.4z"/>
	<path class="st1" d="M1243.8,298.3l2.4-5.6l-4.9-10.5h2.1l3.5,7.6h0.6l3.2-7.6h2l-6.9,16.1H1243.8z"/>
	<path class="st1" d="M1265.4,288c0,3.4-2.1,6.1-5.7,6.1c-3.6,0-5.7-2.7-5.7-6.1c0-3.4,2.1-6.1,5.7-6.1
		C1263.3,281.9,1265.4,284.6,1265.4,288z M1263.5,288c0-2.3-1.2-4.4-3.7-4.4c-2.6,0-3.7,2.1-3.7,4.4c0,2.3,1.2,4.4,3.7,4.4
		C1262.3,292.4,1263.5,290.3,1263.5,288z"/>
	<path class="st1" d="M1270.2,282.2v6.9c0,2.1,1,3.2,2.9,3.2c2,0,3.4-1.8,3.4-3.8v-6.2h1.9v11.5h-1.9v-1.2h-0.5
		c-0.6,0.9-1.9,1.5-3.5,1.5c-2.8,0-4.4-1.7-4.4-4.5v-7.3H1270.2z"/>
	<path class="st1" d="M1292.9,286.8l1.3,0.2c2,0.3,3.3,1.4,3.3,3.5c0,1.9-1.6,3.6-4.7,3.6c-3.3,0-4.9-1.4-5.1-3.6h2
		c0.2,1.3,1.3,1.9,3.1,1.9c1.7,0,2.9-0.6,2.9-1.9c0-1-0.6-1.6-2.1-1.8l-2.6-0.4c-1.6-0.3-2.8-1.2-2.8-2.9c0-1.9,1.4-3.4,4.6-3.4
		c2.7,0,4.3,1.3,4.6,3.3h-1.9c-0.2-1.1-1.3-1.6-2.7-1.6c-1.5,0-2.5,0.5-2.5,1.5c0,0.9,0.6,1.2,1.7,1.4L1292.9,286.8z"/>
	<path class="st1" d="M1302.2,282.2v6.9c0,2.1,1,3.2,2.9,3.2c2,0,3.4-1.8,3.4-3.8v-6.2h1.9v11.5h-1.9v-1.2h-0.5
		c-0.6,0.9-1.9,1.5-3.5,1.5c-2.8,0-4.4-1.7-4.4-4.5v-7.3H1302.2z"/>
	<path class="st1" d="M1320.8,284.1h-1c-2.3,0-3.7,1.4-3.7,3.9v5.8h-1.9v-11.5h1.9v1.4h0.5c0.6-0.7,1.7-1.4,3.3-1.4h0.9V284.1z"/>
	<path class="st1" d="M1333.3,288h-8.8c0.1,2.7,1.3,4.4,3.7,4.4c1.6,0,2.6-0.7,2.9-1.8h2c-0.4,2-2,3.5-4.9,3.5
		c-3.6,0-5.6-2.6-5.6-6.2s2.1-5.9,5.6-5.9c3.4,0,5.1,2.5,5.1,5.4V288z M1324.7,286.4h6.7c-0.1-1.5-1.2-2.7-3.2-2.7
		C1326.1,283.6,1324.9,284.9,1324.7,286.4z"/>
	<path class="st1" d="M1342.7,279.2v-2.1h2.1v2.1H1342.7z M1344.7,293.8h-1.9v-11.5h1.9V293.8z"/>
	<path class="st1" d="M1354.1,282.2v1.7h-2.9v6.3c0,1.2,0.5,1.8,2.1,1.8h0.8v1.7h-0.9c-2.5,0-4-0.8-4-3.2v-6.6h-2v-1.7h2v-3.5h1.9
		v3.5H1354.1z"/>
	<path class="st1" d="M1371,286l1.9,5.7h0.5l1.3-9.5h1.9l-1.7,11.5h-3l-2-5.8h-0.5l-2,5.8h-3l-1.6-11.5h1.9l1.4,9.5h0.5l2-5.7H1371z
		"/>
	<path class="st1" d="M1390.1,288c0,3.4-2.1,6.1-5.7,6.1c-3.6,0-5.7-2.7-5.7-6.1c0-3.4,2.1-6.1,5.7-6.1
		C1388.1,281.9,1390.1,284.6,1390.1,288z M1388.2,288c0-2.3-1.2-4.4-3.7-4.4c-2.6,0-3.7,2.1-3.7,4.4c0,2.3,1.2,4.4,3.7,4.4
		C1387,292.4,1388.2,290.3,1388.2,288z"/>
	<path class="st1" d="M1394.9,282.2v6.9c0,2.1,1,3.2,2.9,3.2c2,0,3.4-1.8,3.4-3.8v-6.2h1.9v11.5h-1.9v-1.2h-0.5
		c-0.6,0.9-1.9,1.5-3.5,1.5c-2.8,0-4.4-1.7-4.4-4.5v-7.3H1394.9z"/>
	<path class="st1" d="M1408.9,277.1v16.6h-1.9v-16.6H1408.9z"/>
	<path class="st1" d="M1423,277.1v16.6h-1.9v-1.2h-0.5c-0.6,0.8-1.8,1.5-3.6,1.5c-3.2,0-5.1-2.7-5.1-6.1c0-3.5,1.9-6.1,5.1-6.1
		c1.8,0,2.9,0.7,3.5,1.5h0.5v-6.3H1423z M1421.1,288c0-2.3-1.1-4.4-3.6-4.4c-2.3,0-3.5,1.8-3.5,4.4c0,2.6,1.2,4.4,3.5,4.4
		C1420,292.4,1421.1,290.3,1421.1,288z"/>
	<path class="st1" d="M1435.1,293.8v-6.9c0-2.1-1-3.2-2.9-3.2c-2.1,0-3.4,1.8-3.4,3.8v6.2h-1.9v-11.5h1.9v1.2h0.5
		c0.6-0.9,1.9-1.5,3.5-1.5c2.8,0,4.4,1.7,4.4,4.5v7.3H1435.1z"/>
	<path class="st1" d="M1440.5,280.1v-2.7h2.4v3.1l-1.3,2.2h-1.2l1.3-2.2v-0.4H1440.5z"/>
	<path class="st1" d="M1452.1,282.2v1.7h-2.9v6.3c0,1.2,0.5,1.8,2.1,1.8h0.8v1.7h-0.9c-2.5,0-4-0.8-4-3.2v-6.6h-2v-1.7h2v-3.5h1.9
		v3.5H1452.1z"/>
	<path class="st1" d="M1200.5,315.5c0,3.4-1.9,6.1-5.1,6.1c-1.8,0-3-0.7-3.6-1.5h-0.5v1.2h-1.9v-16.6h1.9v6.3h0.5
		c0.6-0.8,1.7-1.5,3.5-1.5C1198.6,309.4,1200.5,312,1200.5,315.5z M1198.6,315.5c0-2.6-1.2-4.4-3.5-4.4c-2.6,0-3.6,2.1-3.6,4.4
		c0,2.3,1.1,4.4,3.6,4.4C1197.3,319.8,1198.6,318,1198.6,315.5z"/>
	<path class="st1" d="M1213.6,315.4h-8.8c0.1,2.7,1.3,4.4,3.7,4.4c1.6,0,2.6-0.7,2.9-1.8h2c-0.4,2-2,3.5-4.9,3.5
		c-3.6,0-5.6-2.6-5.6-6.2s2.1-5.9,5.6-5.9c3.4,0,5.1,2.5,5.1,5.4V315.4z M1204.9,313.8h6.7c-0.1-1.5-1.2-2.7-3.2-2.7
		C1206.3,311.1,1205.1,312.3,1204.9,313.8z"/>
	<path class="st1" d="M1224.7,309.7v6.9c0,2.1,1,3.2,2.9,3.2c2,0,3.4-1.8,3.4-3.8v-6.2h1.9v11.5h-1.9V320h-0.5
		c-0.6,0.9-1.9,1.5-3.5,1.5c-2.8,0-4.4-1.7-4.4-4.5v-7.3H1224.7z"/>
	<path class="st1" d="M1241.1,314.2l1.3,0.2c2,0.3,3.3,1.4,3.3,3.5c0,1.9-1.6,3.6-4.7,3.6c-3.3,0-4.9-1.4-5.1-3.6h2
		c0.2,1.3,1.3,1.9,3.1,1.9c1.7,0,2.9-0.6,2.9-1.9c0-1-0.6-1.6-2.1-1.8l-2.6-0.4c-1.6-0.3-2.8-1.2-2.8-2.9c0-1.9,1.4-3.4,4.6-3.4
		c2.7,0,4.3,1.3,4.6,3.3h-1.9c-0.2-1.1-1.3-1.6-2.7-1.6c-1.5,0-2.5,0.5-2.5,1.5c0,0.9,0.6,1.2,1.7,1.4L1241.1,314.2z"/>
	<path class="st1" d="M1258.5,315.4h-8.8c0.1,2.7,1.3,4.4,3.7,4.4c1.6,0,2.6-0.7,2.9-1.8h2c-0.4,2-2,3.5-4.9,3.5
		c-3.6,0-5.6-2.6-5.6-6.2s2.1-5.9,5.6-5.9c3.4,0,5.1,2.5,5.1,5.4V315.4z M1249.8,313.8h6.7c-0.1-1.5-1.2-2.7-3.2-2.7
		C1251.2,311.1,1250.1,312.3,1249.8,313.8z"/>
	<path class="st1" d="M1271.9,304.6v16.6h-1.9V320h-0.5c-0.6,0.8-1.8,1.5-3.6,1.5c-3.2,0-5.1-2.7-5.1-6.1c0-3.5,1.9-6.1,5.1-6.1
		c1.8,0,2.9,0.7,3.5,1.5h0.5v-6.3H1271.9z M1269.9,315.5c0-2.3-1.1-4.4-3.6-4.4c-2.3,0-3.5,1.8-3.5,4.4c0,2.6,1.2,4.4,3.5,4.4
		C1268.9,319.8,1269.9,317.7,1269.9,315.5z"/>
	<path class="st1" d="M1282,306.7v-2.1h2.1v2.1H1282z M1284,321.2h-1.9v-11.5h1.9V321.2z"/>
	<path class="st1" d="M1296.1,321.2v-6.9c0-2.1-1-3.2-2.9-3.2c-2.1,0-3.4,1.8-3.4,3.8v6.2h-1.9v-11.5h1.9v1.2h0.5
		c0.6-0.9,1.9-1.5,3.5-1.5c2.8,0,4.4,1.7,4.4,4.5v7.3H1296.1z"/>
	<path class="st1" d="M1318.6,315.5c0,3.4-2.1,6.1-5.7,6.1c-3.6,0-5.7-2.7-5.7-6.1c0-3.4,2.1-6.1,5.7-6.1
		C1316.5,309.4,1318.6,312,1318.6,315.5z M1316.6,315.5c0-2.3-1.2-4.4-3.7-4.4c-2.6,0-3.7,2.1-3.7,4.4c0,2.3,1.2,4.4,3.7,4.4
		C1315.5,319.8,1316.6,317.7,1316.6,315.5z"/>
	<path class="st1" d="M1327.2,309.7v1.7h-2.9v6.3c0,1.2,0.5,1.8,2.1,1.8h0.8v1.7h-0.9c-2.5,0-4-0.8-4-3.2v-6.6h-2v-1.7h2v-3.5h1.9
		v3.5H1327.2z"/>
	<path class="st1" d="M1338.7,321.2v-6.9c0-2.1-1-3.2-2.9-3.2c-2.1,0-3.4,1.8-3.4,3.8v6.2h-1.9v-16.6h1.9v6.3h0.5
		c0.6-0.9,1.9-1.5,3.4-1.5c2.8,0,4.4,1.7,4.4,4.5v7.3H1338.7z"/>
	<path class="st1" d="M1354.2,315.4h-8.8c0.1,2.7,1.3,4.4,3.7,4.4c1.6,0,2.6-0.7,2.9-1.8h2c-0.4,2-2,3.5-4.9,3.5
		c-3.6,0-5.6-2.6-5.6-6.2s2.1-5.9,5.6-5.9c3.4,0,5.1,2.5,5.1,5.4V315.4z M1345.6,313.8h6.7c-0.1-1.5-1.2-2.7-3.2-2.7
		C1347,311.1,1345.8,312.3,1345.6,313.8z"/>
	<path class="st1" d="M1363.8,311.5h-1c-2.3,0-3.7,1.4-3.7,3.9v5.8h-1.9v-11.5h1.9v1.4h0.5c0.6-0.7,1.7-1.4,3.3-1.4h0.9V311.5z"/>
	<path class="st1" d="M1382.5,317.7c-0.4,2.3-2.2,3.8-4.8,3.8c-3.6,0-5.6-2.7-5.6-6.1c0-3.5,2-6.1,5.6-6.1c2.7,0,4.4,1.5,4.8,3.6
		h-1.9c-0.4-1.2-1.3-1.9-2.8-1.9c-2.6,0-3.7,2-3.7,4.3c0,2.3,1.1,4.4,3.7,4.4c1.6,0,2.6-0.8,2.9-2.1H1382.5z"/>
	<path class="st1" d="M1387.3,304.6v16.6h-1.9v-16.6H1387.3z"/>
	<path class="st1" d="M1398.4,320h-0.5c-0.7,0.9-1.9,1.5-3.6,1.5c-2.7,0-4.1-1.8-4.1-3.8c0-1.9,1.2-3.8,4.4-3.8h3.8v-0.5
		c0-1.4-0.8-2.4-2.8-2.4c-1.7,0-2.6,0.7-2.7,1.7h-1.9c0.2-2.1,2-3.4,4.6-3.4c2.9,0,4.8,1.4,4.8,4v7.8h-1.8V320z M1398.4,316.6v-1.1
		h-3.5c-1.9,0-2.8,0.8-2.8,2.2c0,1.3,1,2.1,2.7,2.1C1396.7,319.8,1398.4,318.4,1398.4,316.6z"/>
	<path class="st1" d="M1408.1,314.2l1.3,0.2c2,0.3,3.3,1.4,3.3,3.5c0,1.9-1.6,3.6-4.7,3.6c-3.3,0-4.9-1.4-5.1-3.6h2
		c0.2,1.3,1.3,1.9,3.1,1.9c1.7,0,2.9-0.6,2.9-1.9c0-1-0.6-1.6-2.1-1.8l-2.6-0.4c-1.6-0.3-2.8-1.2-2.8-2.9c0-1.9,1.4-3.4,4.6-3.4
		c2.7,0,4.3,1.3,4.6,3.3h-1.9c-0.2-1.1-1.3-1.6-2.7-1.6c-1.5,0-2.5,0.5-2.5,1.5c0,0.9,0.6,1.2,1.7,1.4L1408.1,314.2z"/>
	<path class="st1" d="M1419.9,314.2l1.3,0.2c2,0.3,3.3,1.4,3.3,3.5c0,1.9-1.6,3.6-4.7,3.6c-3.3,0-4.9-1.4-5.1-3.6h2
		c0.2,1.3,1.3,1.9,3.1,1.9c1.7,0,2.9-0.6,2.9-1.9c0-1-0.6-1.6-2.1-1.8l-2.6-0.4c-1.6-0.3-2.8-1.2-2.8-2.9c0-1.9,1.4-3.4,4.6-3.4
		c2.7,0,4.3,1.3,4.6,3.3h-1.9c-0.2-1.1-1.3-1.6-2.7-1.6c-1.5,0-2.5,0.5-2.5,1.5c0,0.9,0.6,1.2,1.7,1.4L1419.9,314.2z"/>
	<path class="st1" d="M1437.4,315.4h-8.8c0.1,2.7,1.3,4.4,3.7,4.4c1.6,0,2.6-0.7,2.9-1.8h2c-0.4,2-2,3.5-4.9,3.5
		c-3.6,0-5.6-2.6-5.6-6.2s2.1-5.9,5.6-5.9c3.4,0,5.1,2.5,5.1,5.4V315.4z M1428.7,313.8h6.7c-0.1-1.5-1.2-2.7-3.2-2.7
		C1430.1,311.1,1428.9,312.3,1428.7,313.8z"/>
	<path class="st1" d="M1444.7,314.2l1.3,0.2c2,0.3,3.3,1.4,3.3,3.5c0,1.9-1.6,3.6-4.7,3.6c-3.3,0-4.9-1.4-5.1-3.6h2
		c0.2,1.3,1.3,1.9,3.1,1.9s2.9-0.6,2.9-1.9c0-1-0.6-1.6-2.1-1.8l-2.6-0.4c-1.6-0.3-2.8-1.2-2.8-2.9c0-1.9,1.4-3.4,4.6-3.4
		c2.7,0,4.3,1.3,4.6,3.3h-1.9c-0.2-1.1-1.3-1.6-2.7-1.6c-1.5,0-2.5,0.5-2.5,1.5c0,0.9,0.6,1.2,1.7,1.4L1444.7,314.2z"/>
	<path class="st1" d="M1460.9,309c0,2.4-1.2,3.3-2.8,4.6c-1.1,0.8-1.5,1.2-1.5,2.7v0.6h-2v-0.6c0-2,0.7-2.7,2.2-3.9
		c1.2-1,2.1-1.7,2.1-3.4c0-1.4-1-2.7-2.9-2.7s-3,0.9-3.1,3h-2c0.1-3,2-4.7,5.1-4.7C1459,304.6,1460.9,306.3,1460.9,309z
		 M1454.4,321.2v-2.7h2.4v2.7H1454.4z"/>
</g>
<g>
	<path pointer-events="none" class="st2" d="M717.4,110.8H505l0.8,57.9"/>
	<path pointer-events="none" class="st3" d="M505.9,188.8L492.3,162l13.3,6.7l13.4-6.7L505.9,188.8z"/>
</g>
<g>
	<path pointer-events="none" class="st2" d="M505.3,345.7l0.2,104.3"/>
	<path pointer-events="none" class="st3" d="M505.5,470.1L492,443.3l13.3,6.7l13.4-6.7L505.5,470.1z"/>
</g>
<g>
	<path pointer-events="none" class="st2" d="M1324.3,376.8l0.8,57.2"/>
	<path pointer-events="none" class="st3" d="M1325.2,454.1l-13.5-26.8l13.3,6.7l13.4-6.7L1325.2,454.1z"/>
</g>
<g>
	<path pointer-events="none" class="st2" d="M261.4,264.4l-146.8,0.5l0.3,19.7"/>
	<path pointer-events="none" class="st3" d="M114.9,304.7l-13.5-26.8l13.3,6.7l13.4-6.7L114.9,304.7z"/>
</g>
<g>
	<path pointer-events="none" class="st2" d="M1080.4,298.8H933.8l-0.2,42.8"/>
	<path pointer-events="none" class="st3" d="M933.6,361.7l-13.5-26.8l13.3,6.7l13.4-6.7L933.6,361.7z"/>
</g>
<g>
	<path pointer-events="none" class="st2" d="M261.4,546.6l-146.8,0.5l0.3,19.7"/>
	<path pointer-events="none" class="st3" d="M114.9,586.9l-13.5-26.8l13.3,6.7l13.4-6.7L114.9,586.9z"/>
</g>
<g>
	<path pointer-events="none" class="st2" d="M847.9,566.8l0.3-19.7l-97.6-0.3"/>
	<path pointer-events="none" class="st3" d="M834.6,560.1l13.4,6.7l13.3-6.7l-13.5,26.8L834.6,560.1z"/>
</g>
<g>
	<path pointer-events="none" class="st2" d="M1324.6,199.3l1.2-88.5h-121.1"/>
	<path pointer-events="none" class="st3" d="M1311.3,192.6l13.4,6.7l13.3-6.7l-13.5,26.8L1311.3,192.6z"/>
</g>
</svg>
