<?xml version="1.0" encoding="utf-8"?>
<!-- Generator: Adobe Illustrator 20.1.0, SVG Export Plug-In . SVG Version: 6.00 Build 0)  -->
<svg version="1.1" id="Layer_1" xmlns="http://www.w3.org/2000/svg" xmlns:xlink="http://www.w3.org/1999/xlink" x="0px" y="0px"
	 viewBox="0 0 1474 574.3" style="enable-background:new 0 0 1474 574.3;" xml:space="preserve">
<style type="text/css">
	.st0{fill:none;stroke:#007BFF;stroke-width:2;stroke-miterlimit:10;}
	.st1{fill:#007BFF;}
	.st2{opacity:0.12;fill:#007BFF;enable-background:new    ;}
	.st3{fill:none;stroke:#FFFFFF;stroke-width:2;stroke-miterlimit:10;}
	.st4{fill:#FFFFFF;}
	.st5{fill:#082E51;}
</style>
<rect x="15" y="17.3" class="st0" width="1443.3" height="532.1"/>
<line class="st0" x1="374" y1="549.4" x2="374" y2="122.3"/>
<line class="st0" x1="649" y1="549.4" x2="649" y2="122.3"/>
<line class="st0" x1="922" y1="549.4" x2="922" y2="122.3"/>
<line class="st0" x1="1199" y1="549.4" x2="1199" y2="122.3"/>
<line class="st0" x1="15" y1="230.9" x2="1458.3" y2="230.9"/>
<line class="st0" x1="15.9" y1="336.8" x2="1459.1" y2="336.8"/>
<line class="st0" x1="15.9" y1="442.8" x2="1459.1" y2="442.8"/>
<rect x="15" y="17.3" class="st1" width="1444.1" height="105"/>
<rect x="15.9" y="122.3" class="st2" width="1443.5" height="108.6"/>
<rect x="15.9" y="335.8" class="st2" width="1443.5" height="107"/>
<line class="st3" x1="374" y1="17.3" x2="374" y2="122.3"/>
<line class="st3" x1="649" y1="17.3" x2="649" y2="122.3"/>
<line class="st3" x1="922" y1="17.3" x2="922" y2="122.3"/>
<line class="st3" x1="1199" y1="17.3" x2="1199" y2="122.3"/>
<g>
	<path class="st4" d="M1290.9,66.3v3.4c0,7.6-3.9,14.9-14,14.9c-10,0-15.4-7.5-15.4-17.2c0-9.8,5.4-17.2,15.5-17.2
		c6.9,0,11.5,3.5,12.8,9.3h-4.4c-1.1-3.3-3.6-5.4-8.5-5.4c-7.8,0-11.3,6.2-11.3,13.4c0,7.1,3.3,13.4,11.2,13.4
		c6.9,0,9.6-4.7,9.6-10.1V70h-10.3v-3.7H1290.9z"/>
	<path class="st4" d="M1301.4,50.1v33.8h-4V50.1H1301.4z"/>
	<path class="st4" d="M1330.6,72.2c0,6.9-4.2,12.3-11.5,12.3c-7.4,0-11.5-5.4-11.5-12.3s4.2-12.3,11.5-12.3
		C1326.4,59.9,1330.6,65.3,1330.6,72.2z M1326.7,72.2c0-4.6-2.4-8.9-7.6-8.9c-5.2,0-7.6,4.3-7.6,8.9s2.4,8.9,7.6,8.9
		C1324.3,81.1,1326.7,76.8,1326.7,72.2z"/>
	<path class="st4" d="M1359.3,72.2c0,6.9-3.8,12.3-10.3,12.3c-3.7,0-6-1.5-7.3-3.1h-1v2.5h-3.8V50.1h4V63h1c1.3-1.7,3.4-3.1,7.2-3.1
		C1355.5,59.9,1359.3,65.1,1359.3,72.2z M1355.3,72.2c0-5.2-2.5-8.9-7.2-8.9c-5.2,0-7.4,4.3-7.4,8.9s2.1,8.9,7.4,8.9
		C1352.8,81.1,1355.3,77.4,1355.3,72.2z"/>
	<path class="st4" d="M1380.4,81.5h-1c-1.4,1.8-4,3.1-7.3,3.1c-5.4,0-8.4-3.6-8.4-7.6c0-3.8,2.5-7.8,9-7.8h7.6v-0.9
		c0-2.8-1.6-4.9-5.7-4.9c-3.5,0-5.3,1.3-5.4,3.4h-4c0.3-4.3,4-6.8,9.3-6.8c5.9,0,9.7,2.8,9.7,8.1v16h-3.7V81.5z M1380.2,74.4v-2.1
		h-7c-3.9,0-5.6,1.7-5.6,4.5c0,2.7,2,4.3,5.4,4.3C1376.9,81.1,1380.2,78.1,1380.2,74.4z"/>
	<path class="st4" d="M1395.3,50.1v33.8h-4V50.1H1395.3z"/>
</g>
<g>
	<path class="st4" d="M481.3,74.5c-1.3,5.9-5.9,10-13.2,10c-9.9,0-15.4-7.4-15.4-17.2c0-9.9,5.5-17.2,15.4-17.2
		c6.7,0,11.4,3.6,12.7,9.3h-4.4c-1.3-3.5-3.7-5.5-8.3-5.5c-7.7,0-11.2,6.4-11.2,13.4c0,7.1,3.4,13.4,11.1,13.4
		c4.7,0,7.7-2.4,8.7-6.2H481.3z"/>
	<path class="st4" d="M491.4,50.1v33.8h-4V50.1H491.4z"/>
	<path class="st4" d="M513.9,81.5h-1c-1.4,1.8-4,3.1-7.3,3.1c-5.4,0-8.4-3.6-8.4-7.6c0-3.8,2.5-7.8,9-7.8h7.6v-0.9
		c0-2.8-1.6-4.9-5.7-4.9c-3.5,0-5.3,1.3-5.4,3.4h-4c0.3-4.3,4-6.8,9.3-6.8c5.9,0,9.7,2.8,9.7,8.1v16h-3.7V81.5z M513.8,74.4v-2.1h-7
		c-3.9,0-5.6,1.7-5.6,4.5c0,2.7,2,4.3,5.4,4.3C510.5,81.1,513.8,78.1,513.8,74.4z"/>
	<path class="st4" d="M533.7,69.7l2.7,0.4c4.1,0.7,6.7,2.8,6.7,7.1c0,3.9-3.3,7.4-9.6,7.4c-6.7,0-9.9-2.9-10.4-7.4h4
		c0.4,2.7,2.7,4,6.2,4c3.5,0,5.9-1.3,5.9-3.8c0-2-1.3-3.2-4.3-3.7l-5.3-0.9c-3.3-0.6-5.6-2.4-5.6-5.9c0-3.9,2.9-6.9,9.3-6.9
		c5.5,0,8.7,2.6,9.3,6.7h-4c-0.3-2.2-2.6-3.3-5.5-3.3c-3,0-5.1,1.1-5.1,3.1c0,1.8,1.2,2.5,3.5,2.9L533.7,69.7z"/>
	<path class="st4" d="M557.6,69.7l2.7,0.4c4.1,0.7,6.7,2.8,6.7,7.1c0,3.9-3.3,7.4-9.6,7.4c-6.7,0-9.9-2.9-10.4-7.4h4
		c0.4,2.7,2.7,4,6.2,4c3.5,0,5.9-1.3,5.9-3.8c0-2-1.3-3.2-4.3-3.7l-5.3-0.9c-3.3-0.6-5.6-2.4-5.6-5.9c0-3.9,2.9-6.9,9.3-6.9
		c5.5,0,8.7,2.6,9.3,6.7h-4c-0.3-2.2-2.6-3.3-5.5-3.3c-3,0-5.1,1.1-5.1,3.1c0,1.8,1.2,2.5,3.5,2.9L557.6,69.7z"/>
</g>
<g>
	<path class="st4" d="M709.3,50.7c7.3,0,11.3,3.7,11.3,9.9c0,6.3-4,10-11.3,10h-9.9v13.3h-4.2V50.7H709.3z M708.6,66.9
		c5.7,0,7.7-2.4,7.7-6.2c0-3.9-2-6.2-7.7-6.2h-9.2v12.5H708.6z"/>
	<path class="st4" d="M740.8,81.5h-1c-1.4,1.8-4,3.1-7.3,3.1c-5.4,0-8.4-3.6-8.4-7.6c0-3.8,2.5-7.8,9-7.8h7.6v-0.9
		c0-2.8-1.6-4.9-5.7-4.9c-3.5,0-5.3,1.3-5.4,3.4h-4c0.3-4.3,4-6.8,9.3-6.8c5.9,0,9.7,2.8,9.7,8.1v16h-3.7V81.5z M740.6,74.4v-2.1h-7
		c-3.9,0-5.6,1.7-5.6,4.5c0,2.7,2,4.3,5.4,4.3C737.3,81.1,740.6,78.1,740.6,74.4z"/>
	<path class="st4" d="M771.6,76.8c-0.9,4.6-4.4,7.7-9.9,7.7c-7.3,0-11.4-5.4-11.4-12.3c0-7.1,4.1-12.3,11.4-12.3
		c5.6,0,8.9,3.1,9.7,7.4h-4c-0.7-2.4-2.6-4-5.8-4c-5.3,0-7.4,4.1-7.4,8.8c0,4.7,2.2,9,7.4,9c3.3,0,5.3-1.6,5.9-4.2H771.6z"/>
	<path class="st4" d="M794.6,83.9l-6.7-12.7h-1l-5.4,6v6.8h-4V50.1h4v22.1l11.1-11.8h4.7l-6.7,7.2l8.3,16.2H794.6z"/>
	<path class="st4" d="M818.2,81.5h-1c-1.4,1.8-4,3.1-7.3,3.1c-5.4,0-8.4-3.6-8.4-7.6c0-3.8,2.5-7.8,9-7.8h7.6v-0.9
		c0-2.8-1.6-4.9-5.7-4.9c-3.5,0-5.3,1.3-5.4,3.4h-4c0.3-4.3,4-6.8,9.3-6.8c5.9,0,9.7,2.8,9.7,8.1v16h-3.7V81.5z M818,74.4v-2.1h-7
		c-3.9,0-5.6,1.7-5.6,4.5c0,2.7,2,4.3,5.4,4.3C814.7,81.1,818,78.1,818,74.4z"/>
	<path class="st4" d="M850.1,60.5v22.3c0,6.6-4.1,10.8-10.9,10.8c-6,0-9.9-2.5-10.6-7.2h3.9c0.7,2.8,3.1,3.8,6.7,3.8
		c4.8,0,7-2.9,7-7.6v-1.9h-1c-1.3,1.6-3.5,3.1-7,3.1c-6.5,0-10.4-5.1-10.4-12c0-6.9,4-12,10.4-12c3.7,0,5.9,1.5,7.2,3.1h1v-2.5
		H850.1z M846.3,71.9c0-4.5-2.4-8.6-7.4-8.6c-4.6,0-7.2,3.4-7.2,8.6c0,5.1,2.6,8.5,7.2,8.5C843.9,80.4,846.3,76.3,846.3,71.9z"/>
	<path class="st4" d="M878.1,72.1h-17.9c0.1,5.6,2.7,8.9,7.5,8.9c3.3,0,5.3-1.4,6-3.6h4c-0.7,4-4.1,7.1-10,7.1
		c-7.3,0-11.4-5.4-11.4-12.6c0-7.2,4.2-12.1,11.3-12.1c7,0,10.3,5.2,10.5,10.9V72.1z M860.5,68.8H874c-0.2-3-2.5-5.5-6.5-5.5
		C863.3,63.3,861,65.9,860.5,68.8z"/>
</g>
<g>
	<path class="st4" d="M982.1,65.3c5,1.1,8.3,3.7,8.3,9.4c0,5.2-4.1,9.9-12.6,9.9c-7.8,0-12.8-4.1-13.4-9.9h4.2c0.7,4.5,4.7,6,9.3,6
		c4.6,0,8.1-2.1,8.1-6c0-3.6-2.4-4.9-5.6-5.7c-1.7-0.4-4.9-1-6.6-1.3c-4.8-1-8-3.6-8-8.4c0-5.2,4.2-9.2,11.7-9.2
		c6.9,0,11.3,3.6,12,9h-4.2c-0.8-3.3-3.1-5.2-7.9-5.2c-4,0-7.4,1.8-7.4,5.3c0,3.2,2.8,4.2,5.6,4.8C977.3,64.3,980.4,64.9,982.1,65.3
		z"/>
	<path class="st4" d="M1000.6,60.5v14.1c0,4.3,2,6.5,6,6.5c4.1,0,7-3.6,7-7.8V60.5h4v23.4h-3.8v-2.5h-1c-1.3,1.8-3.9,3.1-7.1,3.1
		c-5.8,0-8.9-3.5-8.9-9.2V60.5H1000.6z"/>
	<path class="st4" d="M1047.5,72.2c0,6.9-3.8,12.3-10.3,12.3c-3.7,0-6-1.5-7.3-3.1h-1v2.5h-3.8V50.1h4V63h1c1.3-1.7,3.4-3.1,7.2-3.1
		C1043.7,59.9,1047.5,65.1,1047.5,72.2z M1043.6,72.2c0-5.2-2.5-8.9-7.2-8.9c-5.2,0-7.4,4.3-7.4,8.9s2.1,8.9,7.4,8.9
		C1041.1,81.1,1043.6,77.4,1043.6,72.2z"/>
	<path class="st4" d="M1073.6,76.8c-0.9,4.6-4.4,7.7-9.9,7.7c-7.3,0-11.4-5.4-11.4-12.3c0-7.1,4.1-12.3,11.4-12.3
		c5.6,0,8.9,3.1,9.7,7.4h-4c-0.7-2.4-2.6-4-5.8-4c-5.3,0-7.4,4.1-7.4,8.8c0,4.7,2.2,9,7.4,9c3.3,0,5.3-1.6,5.9-4.2H1073.6z"/>
	<path class="st4" d="M1083.4,50.1v33.8h-4V50.1H1083.4z"/>
	<path class="st4" d="M1106,81.5h-1c-1.4,1.8-4,3.1-7.3,3.1c-5.4,0-8.4-3.6-8.4-7.6c0-3.8,2.5-7.8,9-7.8h7.6v-0.9
		c0-2.8-1.6-4.9-5.7-4.9c-3.5,0-5.3,1.3-5.4,3.4h-4c0.3-4.3,4-6.8,9.3-6.8c5.9,0,9.7,2.8,9.7,8.1v16h-3.7V81.5z M1105.8,74.4v-2.1
		h-7c-3.9,0-5.6,1.7-5.6,4.5c0,2.7,2,4.3,5.4,4.3C1102.5,81.1,1105.8,78.1,1105.8,74.4z"/>
	<path class="st4" d="M1125.7,69.7l2.7,0.4c4.1,0.7,6.7,2.8,6.7,7.1c0,3.9-3.3,7.4-9.6,7.4c-6.7,0-9.9-2.9-10.4-7.4h4
		c0.4,2.7,2.7,4,6.2,4c3.5,0,5.9-1.3,5.9-3.8c0-2-1.3-3.2-4.3-3.7l-5.3-0.9c-3.3-0.6-5.6-2.4-5.6-5.9c0-3.9,2.9-6.9,9.3-6.9
		c5.5,0,8.7,2.6,9.3,6.7h-4c-0.3-2.2-2.6-3.3-5.5-3.3c-3,0-5.1,1.1-5.1,3.1c0,1.8,1.2,2.5,3.5,2.9L1125.7,69.7z"/>
	<path class="st4" d="M1149.6,69.7l2.7,0.4c4.1,0.7,6.7,2.8,6.7,7.1c0,3.9-3.3,7.4-9.6,7.4c-6.7,0-9.9-2.9-10.4-7.4h4
		c0.4,2.7,2.7,4,6.2,4c3.5,0,5.9-1.3,5.9-3.8c0-2-1.3-3.2-4.3-3.7l-5.3-0.9c-3.3-0.6-5.6-2.4-5.6-5.9c0-3.9,2.9-6.9,9.3-6.9
		c5.5,0,8.7,2.6,9.3,6.7h-4c-0.3-2.2-2.6-3.3-5.5-3.3c-3,0-5.1,1.1-5.1,3.1c0,1.8,1.2,2.5,3.5,2.9L1149.6,69.7z"/>
</g>
<g>
	<path class="st4" d="M105.9,50.7h7l8.4,15.6h1l8.2-15.6h7v33.2h-4.1V55.4h-1l-8.5,15.8h-4.4L111,55.4h-1v28.5h-4.1V50.7z"/>
	<path class="st4" d="M167.2,72.2c0,6.9-4.2,12.3-11.5,12.3c-7.4,0-11.5-5.4-11.5-12.3s4.2-12.3,11.5-12.3
		C163,59.9,167.2,65.3,167.2,72.2z M163.3,72.2c0-4.6-2.4-8.9-7.6-8.9c-5.2,0-7.6,4.3-7.6,8.9s2.4,8.9,7.6,8.9
		C160.8,81.1,163.3,76.8,163.3,72.2z"/>
	<path class="st4" d="M194.4,50.1v33.8h-3.8v-2.5h-1c-1.3,1.6-3.6,3.1-7.3,3.1c-6.5,0-10.3-5.4-10.3-12.3c0-7.1,3.8-12.3,10.3-12.3
		c3.7,0,5.9,1.4,7.2,3.1h1V50.1H194.4z M190.5,72.2c0-4.6-2.1-8.9-7.4-8.9c-4.7,0-7.2,3.7-7.2,8.9c0,5.2,2.5,8.9,7.2,8.9
		C188.3,81.1,190.5,76.8,190.5,72.2z"/>
	<path class="st4" d="M202,54.4v-4.3h4.2v4.3H202z M206.1,83.9h-4V60.5h4V83.9z"/>
	<path class="st4" d="M219.3,63.9v20h-4v-20h-4v-3.4h4v-2.7c0-5.4,3-7.7,8-7.7h2.3v3.4h-2.2c-3.1,0-4.1,2-4.1,4.4v2.6h6.4v3.4H219.3
		z M230.4,54.4v-4.3h4.2v4.3H230.4z M234.5,83.9h-4V60.5h4V83.9z"/>
	<path class="st4" d="M262.6,72.1h-17.9c0.1,5.6,2.7,8.9,7.5,8.9c3.3,0,5.3-1.4,6-3.6h4c-0.7,4-4.1,7.1-10,7.1
		c-7.3,0-11.4-5.4-11.4-12.6c0-7.2,4.2-12.1,11.3-12.1c7,0,10.3,5.2,10.5,10.9V72.1z M244.9,68.8h13.5c-0.2-3-2.5-5.5-6.5-5.5
		C247.8,63.3,245.4,65.9,244.9,68.8z"/>
	<path class="st4" d="M282.1,64.2h-2c-4.7,0-7.5,2.8-7.5,8v11.7h-4V60.5h3.8v2.8h1c1.2-1.4,3.4-2.8,6.8-2.8h1.8V64.2z"/>
</g>
<g>
	<path class="st5" d="M142.6,155.4c7.3,0,11.3,3.7,11.3,9.9c0,6.3-4,10-11.3,10h-9.9v13.3h-4.2v-33.2H142.6z M141.9,171.6
		c5.7,0,7.7-2.4,7.7-6.2c0-3.9-2-6.2-7.7-6.2h-9.2v12.5H141.9z"/>
	<path class="st5" d="M163.7,165.1v14.1c0,4.3,2,6.5,6,6.5c4.1,0,7-3.6,7-7.8v-12.7h4v23.4h-3.8v-2.5h-1c-1.3,1.8-3.9,3.1-7.1,3.1
		c-5.8,0-8.9-3.5-8.9-9.2v-14.9H163.7z"/>
	<path class="st5" d="M210.6,176.9c0,6.9-3.8,12.3-10.3,12.3c-3.7,0-6-1.5-7.3-3.1h-1v2.5h-3.8v-33.8h4v12.9h1
		c1.3-1.7,3.4-3.1,7.2-3.1C206.8,164.5,210.6,169.8,210.6,176.9z M206.7,176.9c0-5.2-2.5-8.9-7.2-8.9c-5.2,0-7.4,4.3-7.4,8.9
		s2.1,8.9,7.4,8.9C204.2,185.7,206.7,182.1,206.7,176.9z"/>
	<path class="st5" d="M220.8,154.8v33.8h-4v-33.8H220.8z"/>
	<path class="st5" d="M228.4,159v-4.3h4.2v4.3H228.4z M232.5,188.6h-4v-23.4h4V188.6z"/>
	<path class="st5" d="M260.1,181.5c-0.9,4.6-4.4,7.7-9.9,7.7c-7.3,0-11.4-5.4-11.4-12.3c0-7.1,4.1-12.3,11.4-12.3
		c5.6,0,8.9,3.1,9.7,7.4h-4c-0.7-2.4-2.6-4-5.8-4c-5.3,0-7.4,4.1-7.4,8.8c0,4.7,2.2,9,7.4,9c3.3,0,5.3-1.6,5.9-4.2H260.1z"/>
</g>
<g>
	<path class="st5" d="M101.9,268c7.3,0,11.3,3.7,11.3,9.9c0,6.3-4,10-11.3,10h-9.9v13.3h-4.2V268H101.9z M101.3,284.2
		c5.7,0,7.7-2.4,7.7-6.2c0-3.9-2-6.2-7.7-6.2h-9.2v12.5H101.3z"/>
	<path class="st5" d="M132.5,281.5h-2c-4.7,0-7.5,2.8-7.5,8v11.7h-4v-23.4h3.8v2.8h1c1.2-1.4,3.4-2.8,6.8-2.8h1.8V281.5z"/>
	<path class="st5" d="M159.3,289.5c0,6.9-4.2,12.3-11.5,12.3c-7.4,0-11.5-5.4-11.5-12.3s4.2-12.3,11.5-12.3
		C155,277.2,159.3,282.6,159.3,289.5z M155.3,289.5c0-4.6-2.4-8.9-7.6-8.9c-5.2,0-7.6,4.3-7.6,8.9s2.4,8.9,7.6,8.9
		C152.9,298.4,155.3,294.1,155.3,289.5z"/>
	<path class="st5" d="M176.8,277.8v3.4h-5.9v12.9c0,2.4,1,3.6,4.2,3.6h1.7v3.5H175c-5.1,0-8-1.6-8-6.6v-13.4h-4v-3.4h4v-7.1h4v7.1
		H176.8z"/>
	<path class="st5" d="M203.3,289.5h-17.9c0.1,5.6,2.7,8.9,7.5,8.9c3.3,0,5.3-1.4,6-3.6h4c-0.7,4-4.1,7.1-10,7.1
		c-7.3,0-11.4-5.4-11.4-12.6c0-7.2,4.2-12.1,11.3-12.1c7,0,10.3,5.2,10.5,10.9V289.5z M185.7,286.2h13.5c-0.2-3-2.5-5.5-6.5-5.5
		C188.5,280.6,186.2,283.2,185.7,286.2z"/>
	<path class="st5" d="M229.2,294.2c-0.9,4.6-4.4,7.7-9.9,7.7c-7.3,0-11.4-5.4-11.4-12.3c0-7.1,4.1-12.3,11.4-12.3
		c5.6,0,8.9,3.1,9.7,7.4h-4c-0.7-2.4-2.6-4-5.8-4c-5.3,0-7.4,4.1-7.4,8.8c0,4.7,2.2,9,7.4,9c3.3,0,5.3-1.6,5.9-4.2H229.2z"/>
	<path class="st5" d="M246.5,277.8v3.4h-5.9v12.9c0,2.4,1,3.6,4.2,3.6h1.7v3.5h-1.8c-5.1,0-8-1.6-8-6.6v-13.4h-4v-3.4h4v-7.1h4v7.1
		H246.5z"/>
	<path class="st5" d="M273,289.5h-17.9c0.1,5.6,2.7,8.9,7.5,8.9c3.3,0,5.3-1.4,6-3.6h4c-0.7,4-4.1,7.1-10,7.1
		c-7.3,0-11.4-5.4-11.4-12.6c0-7.2,4.2-12.1,11.3-12.1c7,0,10.3,5.2,10.5,10.9V289.5z M255.4,286.2h13.5c-0.2-3-2.5-5.5-6.5-5.5
		C258.2,280.6,255.9,283.2,255.4,286.2z"/>
	<path class="st5" d="M300.1,267.4v33.8h-3.8v-2.5h-1c-1.3,1.6-3.6,3.1-7.3,3.1c-6.5,0-10.3-5.4-10.3-12.3c0-7.1,3.8-12.3,10.3-12.3
		c3.7,0,5.9,1.4,7.2,3.1h1v-12.9H300.1z M296.2,289.5c0-4.6-2.1-8.9-7.4-8.9c-4.7,0-7.2,3.7-7.2,8.9c0,5.2,2.5,8.9,7.2,8.9
		C294.1,298.4,296.2,294.1,296.2,289.5z"/>
</g>
<g>
	<path class="st5" d="M127,372.7c10.2,0,15.4,6.6,15.4,16.6c0,10-5.2,16.6-15.4,16.6h-12.4v-33.2H127z M127,402.1
		c8,0,11.1-5.9,11.1-12.8c0-6.9-3.1-12.8-11.1-12.8h-8.2v25.6H127z"/>
	<path class="st5" d="M169,394.1h-17.9c0.1,5.6,2.7,8.9,7.5,8.9c3.3,0,5.3-1.4,6-3.6h4c-0.7,4-4.1,7.1-10,7.1
		c-7.3,0-11.4-5.4-11.4-12.6c0-7.2,4.2-12.1,11.3-12.1c7,0,10.3,5.2,10.5,10.9V394.1z M151.4,390.8H165c-0.2-3-2.5-5.5-6.5-5.5
		C154.3,385.3,151.9,387.9,151.4,390.8z"/>
	<path class="st5" d="M180.6,385.9v20h-4v-20h-4v-3.4h4v-2.7c0-5.4,3-7.7,8-7.7h2.3v3.4h-2.2c-3.1,0-4.1,2-4.1,4.4v2.6h6.4v3.4
		H180.6z"/>
	<path class="st5" d="M207.2,403.5h-1c-1.4,1.8-4,3.1-7.3,3.1c-5.4,0-8.4-3.6-8.4-7.6c0-3.8,2.5-7.8,9-7.8h7.6v-0.9
		c0-2.8-1.6-4.9-5.7-4.9c-3.5,0-5.3,1.3-5.4,3.4h-4c0.3-4.3,4-6.8,9.3-6.8c5.9,0,9.7,2.8,9.7,8.1v16h-3.7V403.5z M207.1,396.4v-2.1
		h-7c-3.9,0-5.6,1.7-5.6,4.5c0,2.7,2,4.3,5.4,4.3C203.8,403.1,207.1,400.1,207.1,396.4z"/>
	<path class="st5" d="M221.8,382.5v14.1c0,4.3,2,6.5,6,6.5c4.1,0,7-3.6,7-7.8v-12.7h4v23.4h-3.8v-2.5h-1c-1.3,1.8-3.9,3.1-7.1,3.1
		c-5.8,0-8.9-3.5-8.9-9.2v-14.9H221.8z"/>
	<path class="st5" d="M250.3,372.1v33.8h-4v-33.8H250.3z"/>
	<path class="st5" d="M269.3,382.5v3.4h-5.9v12.9c0,2.4,1,3.6,4.2,3.6h1.7v3.5h-1.8c-5.1,0-8-1.6-8-6.6v-13.4h-4v-3.4h4v-7.1h4v7.1
		H269.3z"/>
</g>
<g>
	<path class="st5" d="M132.6,480c7.3,0,11.3,3.7,11.3,9.9c0,6.3-4,10-11.3,10h-9.9v13.3h-4.2V480H132.6z M131.9,496.2
		c5.7,0,7.7-2.4,7.7-6.2c0-3.9-2-6.2-7.7-6.2h-9.2v12.5H131.9z"/>
	<path class="st5" d="M163.1,493.5h-2c-4.7,0-7.5,2.8-7.5,8v11.7h-4v-23.4h3.8v2.8h1c1.2-1.4,3.4-2.8,6.8-2.8h1.8V493.5z"/>
	<path class="st5" d="M168.3,483.7v-4.3h4.2v4.3H168.3z M172.4,513.3h-4v-23.4h4V513.3z"/>
	<path class="st5" d="M177.3,489.8h4.1l6.6,19.7h1.9l6.3-19.7h4.1l-7.9,23.4h-7.4L177.3,489.8z"/>
	<path class="st5" d="M219.7,510.8h-1c-1.4,1.8-4,3.1-7.3,3.1c-5.4,0-8.4-3.6-8.4-7.6c0-3.8,2.5-7.8,9-7.8h7.6v-0.9
		c0-2.8-1.6-4.9-5.7-4.9c-3.5,0-5.3,1.3-5.4,3.4h-4c0.3-4.3,4-6.8,9.3-6.8c5.9,0,9.7,2.8,9.7,8.1v16h-3.7V510.8z M219.5,503.8v-2.1
		h-7c-3.9,0-5.6,1.7-5.6,4.5c0,2.7,2,4.3,5.4,4.3C216.2,510.4,219.5,507.5,219.5,503.8z"/>
	<path class="st5" d="M242,489.8v3.4h-5.9v12.9c0,2.4,1,3.6,4.2,3.6h1.7v3.5h-1.8c-5.1,0-8-1.6-8-6.6v-13.4h-4v-3.4h4v-7.1h4v7.1
		H242z"/>
	<path class="st5" d="M268.5,501.5h-17.9c0.1,5.6,2.7,8.9,7.5,8.9c3.3,0,5.3-1.4,6-3.6h4c-0.7,4-4.1,7.1-10,7.1
		c-7.3,0-11.4-5.4-11.4-12.6c0-7.2,4.2-12.1,11.3-12.1c7,0,10.3,5.2,10.5,10.9V501.5z M250.8,498.2h13.5c-0.2-3-2.5-5.5-6.5-5.5
		C253.7,492.6,251.4,495.2,250.8,498.2z"/>
</g>
<g>
	<path class="st1" d="M488.6,495.2l8.9-15.1h4.5l-12,20.5v12.7h-4.2v-12.7l-12-20.5h4.5l8.9,15.1H488.6z"/>
	<path class="st1" d="M521.9,501.5h-17.9c0.1,5.6,2.7,8.9,7.5,8.9c3.3,0,5.3-1.4,6-3.6h4c-0.7,4-4.1,7.1-10,7.1
		c-7.3,0-11.4-5.4-11.4-12.6c0-7.2,4.2-12.1,11.3-12.1c7,0,10.3,5.2,10.5,10.9V501.5z M504.3,498.2h13.5c-0.2-3-2.5-5.5-6.5-5.5
		C507.2,492.6,504.8,495.2,504.3,498.2z"/>
	<path class="st1" d="M536.8,499l2.7,0.4c4.1,0.7,6.7,2.8,6.7,7.1c0,3.9-3.3,7.4-9.6,7.4c-6.7,0-9.9-2.9-10.4-7.4h4
		c0.4,2.7,2.7,4,6.2,4c3.5,0,5.9-1.3,5.9-3.8c0-2-1.3-3.2-4.3-3.7l-5.3-0.9c-3.3-0.6-5.6-2.4-5.6-5.9c0-3.9,2.9-6.9,9.3-6.9
		c5.5,0,8.7,2.6,9.3,6.7h-4c-0.3-2.2-2.6-3.3-5.5-3.3c-3,0-5.1,1.1-5.1,3.1c0,1.8,1.2,2.5,3.5,2.9L536.8,499z"/>
</g>
<g>
	<path class="st1" d="M488.6,387.8l8.9-15.1h4.5l-12,20.5v12.7h-4.2v-12.7l-12-20.5h4.5l8.9,15.1H488.6z"/>
	<path class="st1" d="M521.9,394.1h-17.9c0.1,5.6,2.7,8.9,7.5,8.9c3.3,0,5.3-1.4,6-3.6h4c-0.7,4-4.1,7.1-10,7.1
		c-7.3,0-11.4-5.4-11.4-12.6c0-7.2,4.2-12.1,11.3-12.1c7,0,10.3,5.2,10.5,10.9V394.1z M504.3,390.8h13.5c-0.2-3-2.5-5.5-6.5-5.5
		C507.2,385.3,504.8,387.9,504.3,390.8z"/>
	<path class="st1" d="M536.8,391.7l2.7,0.4c4.1,0.7,6.7,2.8,6.7,7.1c0,3.9-3.3,7.4-9.6,7.4c-6.7,0-9.9-2.9-10.4-7.4h4
		c0.4,2.7,2.7,4,6.2,4c3.5,0,5.9-1.3,5.9-3.8c0-2-1.3-3.2-4.3-3.7l-5.3-0.9c-3.3-0.6-5.6-2.4-5.6-5.9c0-3.9,2.9-6.9,9.3-6.9
		c5.5,0,8.7,2.6,9.3,6.7h-4c-0.3-2.2-2.6-3.3-5.5-3.3c-3,0-5.1,1.1-5.1,3.1c0,1.8,1.2,2.5,3.5,2.9L536.8,391.7z"/>
</g>
<g>
	<path class="st1" d="M488.6,283.2l8.9-15.1h4.5l-12,20.5v12.7h-4.2v-12.7l-12-20.5h4.5l8.9,15.1H488.6z"/>
	<path class="st1" d="M521.9,289.5h-17.9c0.1,5.6,2.7,8.9,7.5,8.9c3.3,0,5.3-1.4,6-3.6h4c-0.7,4-4.1,7.1-10,7.1
		c-7.3,0-11.4-5.4-11.4-12.6c0-7.2,4.2-12.1,11.3-12.1c7,0,10.3,5.2,10.5,10.9V289.5z M504.3,286.2h13.5c-0.2-3-2.5-5.5-6.5-5.5
		C507.2,280.6,504.8,283.2,504.3,286.2z"/>
	<path class="st1" d="M536.8,287l2.7,0.4c4.1,0.7,6.7,2.8,6.7,7.1c0,3.9-3.3,7.4-9.6,7.4c-6.7,0-9.9-2.9-10.4-7.4h4
		c0.4,2.7,2.7,4,6.2,4c3.5,0,5.9-1.3,5.9-3.8c0-2-1.3-3.2-4.3-3.7l-5.3-0.9c-3.3-0.6-5.6-2.4-5.6-5.9c0-3.9,2.9-6.9,9.3-6.9
		c5.5,0,8.7,2.6,9.3,6.7h-4c-0.3-2.2-2.6-3.3-5.5-3.3c-3,0-5.1,1.1-5.1,3.1c0,1.8,1.2,2.5,3.5,2.9L536.8,287z"/>
</g>
<g>
	<path class="st1" d="M488.6,170.5l8.9-15.1h4.5l-12,20.5v12.7h-4.2v-12.7l-12-20.5h4.5l8.9,15.1H488.6z"/>
	<path class="st1" d="M521.9,176.8h-17.9c0.1,5.6,2.7,8.9,7.5,8.9c3.3,0,5.3-1.4,6-3.6h4c-0.7,4-4.1,7.1-10,7.1
		c-7.3,0-11.4-5.4-11.4-12.6c0-7.2,4.2-12.1,11.3-12.1c7,0,10.3,5.2,10.5,10.9V176.8z M504.3,173.5h13.5c-0.2-3-2.5-5.5-6.5-5.5
		C507.2,168,504.8,170.5,504.3,173.5z"/>
	<path class="st1" d="M536.8,174.3l2.7,0.4c4.1,0.7,6.7,2.8,6.7,7.1c0,3.9-3.3,7.4-9.6,7.4c-6.7,0-9.9-2.9-10.4-7.4h4
		c0.4,2.7,2.7,4,6.2,4c3.5,0,5.9-1.3,5.9-3.8c0-2-1.3-3.2-4.3-3.7l-5.3-0.9c-3.3-0.6-5.6-2.4-5.6-5.9c0-3.9,2.9-6.9,9.3-6.9
		c5.5,0,8.7,2.6,9.3,6.7h-4c-0.3-2.2-2.6-3.3-5.5-3.3c-3,0-5.1,1.1-5.1,3.1c0,1.8,1.2,2.5,3.5,2.9L536.8,174.3z"/>
</g>
<g>
	<path class="st5" d="M782.7,480v33.2h-6.6l-15.4-27.8h-1v27.8h-4.1V480h6.6l15.4,27.8h1V480H782.7z"/>
	<path class="st5" d="M812.4,501.5c0,6.9-4.2,12.3-11.5,12.3c-7.4,0-11.5-5.4-11.5-12.3s4.2-12.3,11.5-12.3
		C808.2,489.2,812.4,494.6,812.4,501.5z M808.5,501.5c0-4.6-2.4-8.9-7.6-8.9c-5.2,0-7.6,4.3-7.6,8.9s2.4,8.9,7.6,8.9
		C806.1,510.4,808.5,506.1,808.5,501.5z"/>
</g>
<g>
	<path class="st5" d="M1061.7,372.7v33.2h-6.6l-15.4-27.8h-1v27.8h-4.1v-33.2h6.6l15.4,27.8h1v-27.8H1061.7z"/>
	<path class="st5" d="M1091.4,394.2c0,6.9-4.2,12.3-11.5,12.3c-7.4,0-11.5-5.4-11.5-12.3s4.2-12.3,11.5-12.3
		C1087.2,381.9,1091.4,387.3,1091.4,394.2z M1087.5,394.2c0-4.6-2.4-8.9-7.6-8.9c-5.2,0-7.6,4.3-7.6,8.9s2.4,8.9,7.6,8.9
		C1085.1,403.1,1087.5,398.8,1087.5,394.2z"/>
</g>
<g>
	<path class="st5" d="M1061.7,480v33.2h-6.6l-15.4-27.8h-1v27.8h-4.1V480h6.6l15.4,27.8h1V480H1061.7z"/>
	<path class="st5" d="M1091.4,501.5c0,6.9-4.2,12.3-11.5,12.3c-7.4,0-11.5-5.4-11.5-12.3s4.2-12.3,11.5-12.3
		C1087.2,489.2,1091.4,494.6,1091.4,501.5z M1087.5,501.5c0-4.6-2.4-8.9-7.6-8.9c-5.2,0-7.6,4.3-7.6,8.9s2.4,8.9,7.6,8.9
		C1085.1,510.4,1087.5,506.1,1087.5,501.5z"/>
</g>
<g>
	<path class="st5" d="M1332.7,268v33.2h-6.6l-15.4-27.8h-1v27.8h-4.1V268h6.6l15.4,27.8h1V268H1332.7z"/>
	<path class="st5" d="M1362.4,289.5c0,6.9-4.2,12.3-11.5,12.3c-7.4,0-11.5-5.4-11.5-12.3s4.2-12.3,11.5-12.3
		C1358.2,277.2,1362.4,282.6,1362.4,289.5z M1358.5,289.5c0-4.6-2.4-8.9-7.6-8.9c-5.2,0-7.6,4.3-7.6,8.9s2.4,8.9,7.6,8.9
		C1356.1,298.4,1358.5,294.1,1358.5,289.5z"/>
</g>
<g>
	<path class="st5" d="M1332.7,372.7v33.2h-6.6l-15.4-27.8h-1v27.8h-4.1v-33.2h6.6l15.4,27.8h1v-27.8H1332.7z"/>
	<path class="st5" d="M1362.4,394.2c0,6.9-4.2,12.3-11.5,12.3c-7.4,0-11.5-5.4-11.5-12.3s4.2-12.3,11.5-12.3
		C1358.2,381.9,1362.4,387.3,1362.4,394.2z M1358.5,394.2c0-4.6-2.4-8.9-7.6-8.9c-5.2,0-7.6,4.3-7.6,8.9s2.4,8.9,7.6,8.9
		C1356.1,403.1,1358.5,398.8,1358.5,394.2z"/>
</g>
<g>
	<path class="st5" d="M1332.7,480v33.2h-6.6l-15.4-27.8h-1v27.8h-4.1V480h6.6l15.4,27.8h1V480H1332.7z"/>
	<path class="st5" d="M1362.4,501.5c0,6.9-4.2,12.3-11.5,12.3c-7.4,0-11.5-5.4-11.5-12.3s4.2-12.3,11.5-12.3
		C1358.2,489.2,1362.4,494.6,1362.4,501.5z M1358.5,501.5c0-4.6-2.4-8.9-7.6-8.9c-5.2,0-7.6,4.3-7.6,8.9s2.4,8.9,7.6,8.9
		C1356.1,510.4,1358.5,506.1,1358.5,501.5z"/>
</g>
<g>
	<path class="st1" d="M761.9,387.8l8.9-15.1h4.5l-12,20.5v12.7h-4.2v-12.7l-12-20.5h4.5l8.9,15.1H761.9z"/>
	<path class="st1" d="M795.3,394.1h-17.9c0.1,5.6,2.7,8.9,7.5,8.9c3.3,0,5.3-1.4,6-3.6h4c-0.7,4-4.1,7.1-10,7.1
		c-7.3,0-11.4-5.4-11.4-12.6c0-7.2,4.2-12.1,11.3-12.1c7,0,10.3,5.2,10.5,10.9V394.1z M777.6,390.8h13.5c-0.2-3-2.5-5.5-6.5-5.5
		C780.5,385.3,778.2,387.9,777.6,390.8z"/>
	<path class="st1" d="M810.2,391.7l2.7,0.4c4.1,0.7,6.7,2.8,6.7,7.1c0,3.9-3.3,7.4-9.6,7.4c-6.7,0-9.9-2.9-10.4-7.4h4
		c0.4,2.7,2.7,4,6.2,4c3.5,0,5.9-1.3,5.9-3.8c0-2-1.3-3.2-4.3-3.7l-5.3-0.9c-3.3-0.6-5.6-2.4-5.6-5.9c0-3.9,2.9-6.9,9.3-6.9
		c5.5,0,8.7,2.6,9.3,6.7h-4c-0.3-2.2-2.6-3.3-5.5-3.3c-3,0-5.1,1.1-5.1,3.1c0,1.8,1.2,2.5,3.5,2.9L810.2,391.7z"/>
</g>
<g>
	<path class="st1" d="M761.9,283.2l8.9-15.1h4.5l-12,20.5v12.7h-4.2v-12.7l-12-20.5h4.5l8.9,15.1H761.9z"/>
	<path class="st1" d="M795.3,289.5h-17.9c0.1,5.6,2.7,8.9,7.5,8.9c3.3,0,5.3-1.4,6-3.6h4c-0.7,4-4.1,7.1-10,7.1
		c-7.3,0-11.4-5.4-11.4-12.6c0-7.2,4.2-12.1,11.3-12.1c7,0,10.3,5.2,10.5,10.9V289.5z M777.6,286.2h13.5c-0.2-3-2.5-5.5-6.5-5.5
		C780.5,280.6,778.2,283.2,777.6,286.2z"/>
	<path class="st1" d="M810.2,287l2.7,0.4c4.1,0.7,6.7,2.8,6.7,7.1c0,3.9-3.3,7.4-9.6,7.4c-6.7,0-9.9-2.9-10.4-7.4h4
		c0.4,2.7,2.7,4,6.2,4s5.9-1.3,5.9-3.8c0-2-1.3-3.2-4.3-3.7L806,290c-3.3-0.6-5.6-2.4-5.6-5.9c0-3.9,2.9-6.9,9.3-6.9
		c5.5,0,8.7,2.6,9.3,6.7h-4c-0.3-2.2-2.6-3.3-5.5-3.3c-3,0-5.1,1.1-5.1,3.1c0,1.8,1.2,2.5,3.5,2.9L810.2,287z"/>
</g>
<g>
	<path class="st1" d="M761.9,170.5l8.9-15.1h4.5l-12,20.5v12.7h-4.2v-12.7l-12-20.5h4.5l8.9,15.1H761.9z"/>
	<path class="st1" d="M795.3,176.8h-17.9c0.1,5.6,2.7,8.9,7.5,8.9c3.3,0,5.3-1.4,6-3.6h4c-0.7,4-4.1,7.1-10,7.1
		c-7.3,0-11.4-5.4-11.4-12.6c0-7.2,4.2-12.1,11.3-12.1c7,0,10.3,5.2,10.5,10.9V176.8z M777.6,173.5h13.5c-0.2-3-2.5-5.5-6.5-5.5
		C780.5,168,778.2,170.5,777.6,173.5z"/>
	<path class="st1" d="M810.2,174.3l2.7,0.4c4.1,0.7,6.7,2.8,6.7,7.1c0,3.9-3.3,7.4-9.6,7.4c-6.7,0-9.9-2.9-10.4-7.4h4
		c0.4,2.7,2.7,4,6.2,4c3.5,0,5.9-1.3,5.9-3.8c0-2-1.3-3.2-4.3-3.7l-5.3-0.9c-3.3-0.6-5.6-2.4-5.6-5.9c0-3.9,2.9-6.9,9.3-6.9
		c5.5,0,8.7,2.6,9.3,6.7h-4c-0.3-2.2-2.6-3.3-5.5-3.3c-3,0-5.1,1.1-5.1,3.1c0,1.8,1.2,2.5,3.5,2.9L810.2,174.3z"/>
</g>
<g>
	<path class="st1" d="M1038.9,283.2l8.9-15.1h4.5l-12,20.5v12.7h-4.2v-12.7l-12-20.5h4.5l8.9,15.1H1038.9z"/>
	<path class="st1" d="M1072.3,289.5h-17.9c0.1,5.6,2.7,8.9,7.5,8.9c3.3,0,5.3-1.4,6-3.6h4c-0.7,4-4.1,7.1-10,7.1
		c-7.3,0-11.4-5.4-11.4-12.6c0-7.2,4.2-12.1,11.3-12.1c7,0,10.3,5.2,10.5,10.9V289.5z M1054.6,286.2h13.5c-0.2-3-2.5-5.5-6.5-5.5
		C1057.5,280.6,1055.2,283.2,1054.6,286.2z"/>
	<path class="st1" d="M1087.2,287l2.7,0.4c4.1,0.7,6.7,2.8,6.7,7.1c0,3.9-3.3,7.4-9.6,7.4c-6.7,0-9.9-2.9-10.4-7.4h4
		c0.4,2.7,2.7,4,6.2,4s5.9-1.3,5.9-3.8c0-2-1.3-3.2-4.3-3.7l-5.3-0.9c-3.3-0.6-5.6-2.4-5.6-5.9c0-3.9,2.9-6.9,9.3-6.9
		c5.5,0,8.7,2.6,9.3,6.7h-4c-0.3-2.2-2.6-3.3-5.5-3.3c-3,0-5.1,1.1-5.1,3.1c0,1.8,1.2,2.5,3.5,2.9L1087.2,287z"/>
</g>
<g>
	<path class="st1" d="M1308.9,170.5l8.9-15.1h4.5l-12,20.5v12.7h-4.2v-12.7l-12-20.5h4.5l8.9,15.1H1308.9z"/>
	<path class="st1" d="M1342.3,176.8h-17.9c0.1,5.6,2.7,8.9,7.5,8.9c3.3,0,5.3-1.4,6-3.6h4c-0.7,4-4.1,7.1-10,7.1
		c-7.3,0-11.4-5.4-11.4-12.6c0-7.2,4.2-12.1,11.3-12.1c7,0,10.3,5.2,10.5,10.9V176.8z M1324.6,173.5h13.5c-0.2-3-2.5-5.5-6.5-5.5
		C1327.5,168,1325.2,170.5,1324.6,173.5z"/>
	<path class="st1" d="M1357.2,174.3l2.7,0.4c4.1,0.7,6.7,2.8,6.7,7.1c0,3.9-3.3,7.4-9.6,7.4c-6.7,0-9.9-2.9-10.4-7.4h4
		c0.4,2.7,2.7,4,6.2,4s5.9-1.3,5.9-3.8c0-2-1.3-3.2-4.3-3.7l-5.3-0.9c-3.3-0.6-5.6-2.4-5.6-5.9c0-3.9,2.9-6.9,9.3-6.9
		c5.5,0,8.7,2.6,9.3,6.7h-4c-0.3-2.2-2.6-3.3-5.5-3.3c-3,0-5.1,1.1-5.1,3.1c0,1.8,1.2,2.5,3.5,2.9L1357.2,174.3z"/>
</g>
<g>
	<path class="st1" d="M1038.9,170.5l8.9-15.1h4.5l-12,20.5v12.7h-4.2v-12.7l-12-20.5h4.5l8.9,15.1H1038.9z"/>
	<path class="st1" d="M1072.3,176.8h-17.9c0.1,5.6,2.7,8.9,7.5,8.9c3.3,0,5.3-1.4,6-3.6h4c-0.7,4-4.1,7.1-10,7.1
		c-7.3,0-11.4-5.4-11.4-12.6c0-7.2,4.2-12.1,11.3-12.1c7,0,10.3,5.2,10.5,10.9V176.8z M1054.6,173.5h13.5c-0.2-3-2.5-5.5-6.5-5.5
		C1057.5,168,1055.2,170.5,1054.6,173.5z"/>
	<path class="st1" d="M1087.2,174.3l2.7,0.4c4.1,0.7,6.7,2.8,6.7,7.1c0,3.9-3.3,7.4-9.6,7.4c-6.7,0-9.9-2.9-10.4-7.4h4
		c0.4,2.7,2.7,4,6.2,4c3.5,0,5.9-1.3,5.9-3.8c0-2-1.3-3.2-4.3-3.7l-5.3-0.9c-3.3-0.6-5.6-2.4-5.6-5.9c0-3.9,2.9-6.9,9.3-6.9
		c5.5,0,8.7,2.6,9.3,6.7h-4c-0.3-2.2-2.6-3.3-5.5-3.3c-3,0-5.1,1.1-5.1,3.1c0,1.8,1.2,2.5,3.5,2.9L1087.2,174.3z"/>
</g>
</svg>
